<svg width="56" height="57" viewBox="0 0 56 57" fill="none" xmlns="http://www.w3.org/2000/svg">
<path fill-rule="evenodd" clip-rule="evenodd" d="M41.0668 7.71175C41.8169 7.28319 42.75 7.82472 42.75 8.68854V45.3114C42.75 46.1751 41.8169 46.7167 41.0668 46.2881L35.9912 43.3878C35.2996 42.9925 34.4504 42.9925 33.7588 43.3878L28.7861 46.2294C27.6793 46.8618 26.3207 46.8618 25.2139 46.2294L20.2413 43.3878C19.5496 42.9925 18.7004 42.9925 18.0087 43.3878L12.9332 46.2881C12.1832 46.7167 11.25 46.1751 11.25 45.3114V8.68854C11.25 7.82472 12.1832 7.28319 12.9332 7.71175L18.0087 10.6121C18.7004 11.0073 19.5496 11.0073 20.2413 10.6121L25.2139 7.77059C26.3207 7.13816 27.6793 7.13816 28.7861 7.77059L33.7588 10.6121C34.4504 11.0073 35.2996 11.0073 35.9912 10.6121L41.0668 7.71175ZM21.375 20.25C20.7537 20.25 20.25 20.7536 20.25 21.375C20.25 21.9963 20.7537 22.5 21.375 22.5H32.625C33.2462 22.5 33.75 21.9963 33.75 21.375C33.75 20.7536 33.2462 20.25 32.625 20.25H21.375ZM21.375 25.875C20.7537 25.875 20.25 26.3787 20.25 27C20.25 27.6212 20.7537 28.125 21.375 28.125H32.625C33.2462 28.125 33.75 27.6212 33.75 27C33.75 26.3787 33.2462 25.875 32.625 25.875H21.375ZM21.375 31.5C20.7537 31.5 20.25 32.0037 20.25 32.625C20.25 33.2462 20.7537 33.75 21.375 33.75H32.625C33.2462 33.75 33.75 33.2462 33.75 32.625C33.75 32.0037 33.2462 31.5 32.625 31.5H21.375Z" fill="#00C680"/>
<path d="M44.3828 54.8635C49.9057 54.8635 54.3828 50.3864 54.3828 44.8635C54.3828 39.3407 49.9057 34.8635 44.3828 34.8635C38.86 34.8635 34.3828 39.3407 34.3828 44.8635C34.3828 50.3864 38.86 54.8635 44.3828 54.8635Z" fill="white" stroke="#07C495" stroke-width="2.58264" stroke-linecap="round" stroke-linejoin="round"/>
<path d="M38.9282 45.7726L41.6555 48.4999L48.9282 41.2272" stroke="#07C495" stroke-width="2.58264" stroke-linecap="round" stroke-linejoin="round"/>
</svg>
