<svg width="48" height="49" viewBox="0 0 48 49" fill="none" xmlns="http://www.w3.org/2000/svg">
<circle cx="24" cy="24.8286" r="24" fill="#09418D" fill-opacity="0.1"/>
<path d="M21.4998 31.9953H18.9998C17.1589 31.9953 15.6665 30.5029 15.6665 28.6619V21.1619C15.6665 19.321 17.1589 17.8286 18.9998 17.8286H28.1665C30.0074 17.8286 31.4998 19.321 31.4998 21.1619V23.6619" stroke="#09418D" stroke-width="1.66667" stroke-linecap="round" stroke-linejoin="round"/>
<path d="M20.6665 16.9954V18.662" stroke="#09418D" stroke-width="1.66667" stroke-linecap="round" stroke-linejoin="round"/>
<path d="M26.5 16.9954V18.662" stroke="#09418D" stroke-width="1.66667" stroke-linecap="round" stroke-linejoin="round"/>
<path d="M15.6665 21.9954H31.4998" stroke="#09418D" stroke-width="1.66667" stroke-linecap="round" stroke-linejoin="round"/>
<path d="M29.4165 28.3644L28.1665 29.6144" stroke="#09418D" stroke-width="1.66667" stroke-linecap="round" stroke-linejoin="round"/>
<path d="M28.1667 33.6619C30.4679 33.6619 32.3333 31.7965 32.3333 29.4953C32.3333 27.1941 30.4679 25.3286 28.1667 25.3286C25.8655 25.3286 24 27.1941 24 29.4953C24 31.7965 25.8655 33.6619 28.1667 33.6619Z" stroke="#09418D" stroke-width="1.66667" stroke-linecap="round" stroke-linejoin="round"/>
</svg>
