<svg width="48" height="49" viewBox="0 0 48 49" fill="none" xmlns="http://www.w3.org/2000/svg">
<circle cx="24" cy="24.8286" r="24" fill="#4E95FF" fill-opacity="0.1"/>
<path d="M32.3332 29.4287V31.9287C32.3341 32.1607 32.2866 32.3905 32.1936 32.6031C32.1006 32.8158 31.9643 33.0066 31.7933 33.1635C31.6222 33.3204 31.4203 33.4399 31.2005 33.5142C30.9806 33.5886 30.7477 33.6162 30.5165 33.5953C27.9522 33.3167 25.489 32.4404 23.3249 31.037C21.3114 29.7575 19.6043 28.0505 18.3249 26.037C16.9165 23.863 16.0401 21.3878 15.7665 18.812C15.7457 18.5815 15.7731 18.3493 15.8469 18.13C15.9208 17.9107 16.0395 17.7092 16.1955 17.5383C16.3515 17.3674 16.5414 17.2309 16.753 17.1374C16.9647 17.0439 17.1935 16.9955 17.4249 16.9953H19.9249C20.3293 16.9913 20.7214 17.1346 21.028 17.3983C21.3346 17.662 21.5349 18.0282 21.5915 18.4287C21.697 19.2287 21.8927 20.0143 22.1749 20.7703C22.287 21.0686 22.3112 21.3927 22.2448 21.7044C22.1783 22.016 22.0239 22.3021 21.7999 22.5287L20.7415 23.587C21.9278 25.6733 23.6552 27.4007 25.7415 28.587L26.7999 27.5287C27.0264 27.3046 27.3125 27.1502 27.6241 27.0837C27.9358 27.0173 28.2599 27.0415 28.5582 27.1537C29.3143 27.4358 30.0998 27.6315 30.8999 27.737C31.3047 27.7941 31.6744 27.998 31.9386 28.3099C32.2029 28.6218 32.3433 29.02 32.3332 29.4287Z" stroke="#4E95FF" stroke-width="1.66667" stroke-linecap="round" stroke-linejoin="round"/>
</svg>
