<svg width="24" height="24" viewBox="0 0 24 24" fill="none" xmlns="http://www.w3.org/2000/svg">
<path d="M19.9985 4.42834L12.3485 1.02834C12.2389 0.979082 12.1201 0.953613 12 0.953613C11.8799 0.953613 11.7611 0.979082 11.6515 1.02834L4.0015 4.42834C3.85237 4.49538 3.72573 4.60401 3.63678 4.7412C3.54783 4.8784 3.50034 5.03833 3.5 5.20184V12.4778C3.50585 13.5126 3.72907 14.5346 4.15518 15.4776C4.58128 16.4206 5.20077 17.2636 5.9735 17.9518L11.439 22.8053C11.5941 22.9416 11.7935 23.0168 12 23.0168C12.2065 23.0168 12.4059 22.9416 12.561 22.8053L18.0265 17.9518C18.7992 17.2636 19.4187 16.4206 19.8448 15.4776C20.2709 14.5346 20.4941 13.5126 20.5 12.4778V5.20184C20.4997 5.03833 20.4522 4.8784 20.3632 4.7412C20.2743 4.60401 20.1476 4.49538 19.9985 4.42834ZM18.8 12.4778C18.8016 13.2807 18.6328 14.0747 18.3045 14.8074C17.9763 15.54 17.4962 16.1946 16.896 16.7278L12 21.0628L7.104 16.7108C6.50382 16.1776 6.02372 15.523 5.69548 14.7904C5.36725 14.0577 5.19836 13.2637 5.2 12.4608V5.75434L12 2.72834L18.8 5.75434V12.4778Z" fill="#2E2E2E"/>
<path d="M9.44999 10.5484C9.28993 10.3883 9.07285 10.2984 8.84649 10.2984C8.62013 10.2984 8.40305 10.3883 8.24299 10.5484C8.08293 10.7085 7.99301 10.9255 7.99301 11.1519C7.99301 11.3783 8.08293 11.5953 8.24299 11.7554L10.368 13.8804C10.447 13.9601 10.541 14.0233 10.6446 14.0665C10.7482 14.1096 10.8593 14.1318 10.9715 14.1318C11.0837 14.1318 11.1948 14.1096 11.2984 14.0665C11.402 14.0233 11.496 13.9601 11.575 13.8804L15.825 9.6304C15.985 9.46132 16.0714 9.23559 16.065 9.00286C16.0586 8.77012 15.9601 8.54946 15.791 8.3894C15.6219 8.22934 15.3962 8.143 15.1634 8.14938C14.9307 8.15575 14.71 8.25432 14.55 8.4234L10.9035 12.0784L9.44999 10.5484Z" fill="#2E2E2E"/>
</svg>
