<svg width="24" height="24" viewBox="0 0 24 24" fill="none" xmlns="http://www.w3.org/2000/svg">
<path d="M3.68635 5.575C4.7588 5.575 5.62767 4.70542 5.62767 3.63372C5.62767 2.56084 4.7588 1.69202 3.68635 1.69202C2.61352 1.69202 1.74469 2.56084 1.74469 3.63372C1.74464 4.70547 2.61352 5.575 3.68635 5.575Z" fill="#2E2E2E"/>
<path d="M11.9862 10.7217V10.7246C11.9909 10.7246 11.9953 10.7232 12 10.7232C12.0047 10.7232 12.0091 10.7246 12.0138 10.7246V10.7217C12.7433 10.7069 13.3301 10.1135 13.3301 9.38107C13.3301 8.64757 12.7432 8.05456 12.0138 8.03965V8.03674C12.0091 8.03674 12.0047 8.0382 12 8.0382C11.9953 8.0382 11.9909 8.03674 11.9862 8.03674V8.03965C11.2567 8.05456 10.6699 8.64757 10.6699 9.38107C10.6699 10.1134 11.2567 10.7068 11.9862 10.7217Z" fill="#2E2E2E"/>
<path d="M20.3137 5.575C21.3865 5.575 22.2554 4.70542 22.2554 3.63372C22.2554 2.56084 21.3865 1.69202 20.3137 1.69202C19.2412 1.69202 18.3724 2.56084 18.3724 3.63372C18.3724 4.70547 19.2413 5.575 20.3137 5.575Z" fill="#2E2E2E"/>
<path d="M24 14.9847V8.45916C24 7.5181 22.9765 6.49463 22.0358 6.49463H21.764L20.4131 7.84547L19.0906 6.52294C18.2544 6.64524 17.5173 7.16349 17.1257 7.93004L15.5557 12.5222C15.5016 12.6275 15.4011 12.7022 15.2842 12.7229C15.1673 12.7436 15.0475 12.7084 14.9601 12.6275L13.9834 11.7818C13.6913 11.5114 13.308 11.3612 12.9099 11.3612H12H11.0902C10.692 11.3612 10.3088 11.5115 10.0166 11.7818L9.03994 12.6275C8.95247 12.7084 8.83266 12.7436 8.71584 12.7229C8.59894 12.7022 8.49844 12.6275 8.44434 12.5222L6.87431 7.93004C6.42431 7.04921 5.51841 6.49463 4.52906 6.49463H3.66638H1.9642C1.02347 6.49463 0 7.5181 0 8.45916V14.9847C0 15.4551 0.381094 15.8365 0.851484 15.8365C1.083 15.8365 0.851484 15.8365 1.44595 15.8365L1.76967 21.4017C1.76967 21.9022 2.1758 22.3079 2.67628 22.3079C2.8875 22.3079 3.27694 22.3079 3.66638 22.3079C4.05577 22.3079 4.4452 22.3079 4.65642 22.3079C5.15691 22.3079 5.56303 21.9022 5.56303 21.4017L5.88675 15.8365L5.88272 11.8631C5.88272 11.8004 5.92556 11.7463 5.98688 11.731C6.04823 11.7165 6.111 11.7455 6.13969 11.8014L7.3853 14.8671C7.53553 15.1604 7.8143 15.3665 8.13877 15.4243C8.46319 15.4819 8.796 15.3847 9.03811 15.1611L10.23 14.2832C10.2699 14.2465 10.3276 14.2371 10.377 14.2578C10.4267 14.2799 10.4586 14.3289 10.4586 14.3826L10.463 17.8283L10.6869 21.6808C10.6869 22.0271 10.9682 22.308 11.3148 22.308C11.4607 22.308 11.7304 22.308 12 22.308C12.2697 22.308 12.5394 22.308 12.6853 22.308C13.0319 22.308 13.3131 22.0271 13.3131 21.6808L13.537 17.8283L13.5414 14.3826C13.5414 14.3289 13.5733 14.2799 13.623 14.2578C13.6724 14.2371 13.7301 14.2465 13.77 14.2832L14.9619 15.1611C15.204 15.3847 15.5368 15.4819 15.8613 15.4243C16.1857 15.3666 16.4645 15.1604 16.6147 14.8671L17.8603 11.8014C17.889 11.7456 17.9517 11.7165 18.0131 11.731C18.0744 11.7463 18.1172 11.8004 18.1172 11.8631L18.1158 13.3787L16.8089 17.4403C16.778 17.5365 16.7947 17.6417 16.8542 17.7234C16.9137 17.8051 17.0088 17.8533 17.1097 17.8533H18.2305L18.437 21.4017C18.437 21.9022 18.8431 22.308 19.3436 22.308C19.5548 22.308 19.9442 22.308 20.3336 22.308C20.7231 22.308 21.1125 22.308 21.3237 22.308C21.8242 22.308 22.2303 21.9022 22.2303 21.4017L22.4368 17.8533H23.6752C23.776 17.8533 23.8711 17.8051 23.9307 17.7234C23.9902 17.6417 24.0069 17.5365 23.976 17.4403L23.4422 15.7814C23.7674 15.6612 24 15.3513 24 14.9847ZM4.00425 7.45716V10.9537H2.97136V7.45716H4.00425Z" fill="#2E2E2E"/>
</svg>
