<svg width="24" height="24" viewBox="0 0 24 24" fill="none" xmlns="http://www.w3.org/2000/svg">
<g clip-path="url(#clip0_500_3949)">
<path d="M21.8985 1.54417C22.143 1.54417 22.3148 1.58992 22.4048 1.62442C22.512 1.91092 22.6568 2.93767 21.5955 3.99967L16.182 9.41317L16.221 10.0852C16.3035 11.4907 16.4558 14.0092 16.587 16.1684C16.7025 18.0907 16.8128 19.9057 16.8203 20.0602C16.824 20.1667 16.8255 20.1914 16.7265 20.3107C16.5053 20.5792 16.092 21.0352 15.7448 21.4132C15.2048 19.9589 14.0708 16.8884 13.4445 15.1694L12.6398 12.9577L10.9748 14.6227L7.91325 17.5657L7.4865 17.9909L7.473 18.5924C7.4625 19.0724 7.46475 19.9349 7.46625 20.6947C7.46775 21.2242 7.46925 21.7057 7.4655 21.9704C7.45875 21.9832 7.5675 21.9974 7.55775 22.0147C7.4925 21.9097 7.422 21.7972 7.34775 21.6794C6.7305 20.6947 5.87625 19.3334 5.616 18.9082L5.4255 18.5969L5.11275 18.4079C3.97575 17.7209 2.71575 16.9282 1.947 16.4324C1.97325 16.4174 1.995 16.4984 2.013 16.4887H2.06325C2.3055 16.4887 2.70525 16.4939 3.153 16.4999C3.7395 16.5082 4.404 16.5172 4.9125 16.5172C5.1075 16.5172 5.28075 16.5157 5.42025 16.5127L6.0225 16.4992L6.4485 16.0739L9.39525 13.0342L11.0543 11.3759L8.853 10.5659C7.1985 9.95692 4.02975 8.77417 2.547 8.21692C2.92725 7.86667 3.3855 7.45117 3.6525 7.22917C3.72675 7.16767 3.78525 7.13617 3.82575 7.13617L3.879 7.13767C4.04475 7.14592 6.09825 7.27942 8.0835 7.40992C10.191 7.54792 12.57 7.70242 13.923 7.78867L14.5988 7.83067L20.0138 2.41567C20.7743 1.65592 21.5213 1.54267 21.8993 1.54267L21.8985 1.54417ZM21.8985 0.0449219C21.0128 0.0449219 19.9245 0.385422 18.9533 1.35742L14.0175 6.29317C11.2373 6.11692 4.11675 5.64667 3.93975 5.64142C3.90825 5.63992 3.86925 5.63842 3.82575 5.63842C3.585 5.63842 3.17025 5.68417 2.69775 6.07492C2.14275 6.53317 0.987004 7.62142 0.987004 7.62142C0.708004 7.90117 0.567004 8.24767 0.600754 8.57392C0.621004 8.77042 0.728254 9.12967 1.21125 9.31867C1.50525 9.43342 6.17775 11.1824 8.3355 11.9759L5.38875 15.0157C5.25825 15.0187 5.09625 15.0202 4.914 15.0202C4.0155 15.0202 2.62275 14.9909 2.064 14.9909C1.98975 14.9909 1.9305 14.9909 1.8885 14.9924C1.71825 14.9977 1.3665 14.9137 0.438754 15.6892L0.372754 15.7507C0.0945039 16.0289 0.0292539 16.3064 0.0232539 16.4902C0.0172539 16.6792 0.0675039 16.9514 0.341254 17.1704C0.505504 17.3032 2.61075 18.6509 4.338 19.6942C4.752 20.3699 6.657 23.3977 6.75675 23.5619C6.90225 23.8072 7.13925 23.9474 7.4235 23.9557H7.44675C7.72275 23.9557 8.00625 23.8184 8.28375 23.5492C9.069 22.6312 8.96025 22.2509 8.964 22.0904C8.97675 21.5894 8.95575 19.4669 8.973 18.6254L12.0338 15.6817C12.816 17.8304 14.526 22.4549 14.6408 22.7497C14.8313 23.2334 15.1905 23.3392 15.387 23.3594C15.4193 23.3632 15.4523 23.3647 15.4845 23.3647C15.7808 23.3647 16.0868 23.2252 16.3388 22.9747C16.3388 22.9747 17.4225 21.8242 17.883 21.2647C18.3435 20.7052 18.3263 20.2274 18.3173 20.0024C18.3135 19.8464 17.8793 12.7642 17.718 9.99892L22.6553 5.06167C24.405 3.31117 24.1268 1.20217 23.4773 0.553422C23.19 0.264672 22.6095 0.0471719 21.9 0.0471719L21.8985 0.0449219Z" fill="black"/>
<path fill-rule="evenodd" clip-rule="evenodd" d="M243.457 -203.452C229.307 -217.601 211.543 -215.733 203.543 -207.731L76.3433 -80.5314L-122.111 -120.727L-127.023 -115.815L31.0233 -35.2134L-117.383 113.193L-215.768 92.2533L-223.437 99.9233L-125.759 165.763L-59.9187 263.443L-52.249 255.773L-73.1887 157.387L75.22 8.97995L155.82 167.027L160.733 162.117L120.537 -36.3367L247.737 -163.537C255.74 -171.539 257.607 -189.302 243.457 -203.452ZM168.187 -243.086C199.39 -274.291 249.027 -268.591 278.813 -238.807C308.597 -209.023 314.297 -159.386 283.09 -128.181L174.87 -19.9601L215.063 178.493L142.533 251.027L61.93 92.9799L-18.63 173.54L2.31 271.927L-67.4667 341.7L-161.778 201.783L-301.696 107.473L-231.92 37.6966L-133.536 58.6366L-52.975 -21.9234L-211.022 -102.527L-138.489 -175.06L59.9633 -134.864L168.187 -243.086Z" fill="#080341"/>
</g>
<defs>
<clipPath id="clip0_500_3949">
<rect width="24" height="24" fill="white"/>
</clipPath>
</defs>
</svg>
