<svg width="24" height="24" viewBox="0 0 24 24" fill="none" xmlns="http://www.w3.org/2000/svg">
<g clip-path="url(#clip0_500_3727)">
<path d="M23 12.5L19 2.85C16.7717 1.96582 14.3973 1.50789 12 1.5C9.60274 1.50789 7.22827 1.96582 5 2.85L1 12.5V13.5C1 14.5609 1.42143 15.5783 2.17157 16.3284C2.92172 17.0786 3.93913 17.5 5 17.5C6.06087 17.5 7.07828 17.0786 7.82843 16.3284C8.57857 15.5783 9 14.5609 9 13.5V12.5L5.8 5L5.95 4.6C7.57077 3.99742 9.27336 3.64341 11 3.55V20.5H7.5C7.23478 20.5 6.98043 20.6054 6.79289 20.7929C6.60536 20.9804 6.5 21.2348 6.5 21.5C6.5 21.7652 6.60536 22.0196 6.79289 22.2071C6.98043 22.3946 7.23478 22.5 7.5 22.5H16.5C16.7652 22.5 17.0196 22.3946 17.2071 22.2071C17.3946 22.0196 17.5 21.7652 17.5 21.5C17.5 21.2348 17.3946 20.9804 17.2071 20.7929C17.0196 20.6054 16.7652 20.5 16.5 20.5H13V3.55C14.7266 3.64341 16.4292 3.99742 18.05 4.6L18.2 5L15 12.5V13.5C15 14.5609 15.4214 15.5783 16.1716 16.3284C16.9217 17.0786 17.9391 17.5 19 17.5C20.0609 17.5 21.0783 17.0786 21.8284 16.3284C22.5786 15.5783 23 14.5609 23 13.5V12.5ZM7.1 12.5H2.6L5 7.15L7.1 12.5ZM19 7.15L21.1 12.5H16.6L19 7.15Z" fill="#2E2E2E"/>
</g>
<defs>
<clipPath id="clip0_500_3727">
<rect width="24" height="24" fill="white"/>
</clipPath>
</defs>
</svg>
