<svg width="24" height="24" viewBox="0 0 24 24" fill="none" xmlns="http://www.w3.org/2000/svg">
<path d="M11.9389 9.76478C11.7055 10.2653 11.1105 10.4819 10.61 10.2485C10.1094 10.0151 9.89287 9.42008 10.1263 8.91954C10.3597 8.419 10.9547 8.20244 11.4552 8.43585C11.9558 8.66925 12.1723 9.26423 11.9389 9.76478Z" fill="#09418D"/>
<path d="M8.91951 13.8737C9.42005 14.1071 10.015 13.8905 10.2484 13.39C10.4818 12.8895 10.2653 12.2945 9.76475 12.0611C9.26421 11.8277 8.66923 12.0442 8.43582 12.5448C8.20242 13.0453 8.41897 13.6403 8.91951 13.8737Z" fill="#09418D"/>
<path d="M13.8737 15.0805C13.6403 15.581 13.0453 15.7976 12.5447 15.5642C12.0442 15.3308 11.8276 14.7358 12.061 14.2352C12.2944 13.7347 12.8894 13.5181 13.39 13.7516C13.8905 13.985 14.1071 14.5799 13.8737 15.0805Z" fill="#09418D"/>
<path d="M14.2352 11.9389C14.7357 12.1723 15.3307 11.9558 15.5641 11.4552C15.7975 10.9547 15.581 10.3597 15.0804 10.1263C14.5799 9.89288 13.9849 10.1095 13.7515 10.61C13.5181 11.1106 13.7347 11.7055 14.2352 11.9389Z" fill="#09418D"/>
<path fill-rule="evenodd" clip-rule="evenodd" d="M17.0714 1.12438C14.0682 -0.276059 10.4983 1.02327 9.09783 4.02651L4.02641 14.9022C2.62598 17.9055 3.92531 21.4754 6.92855 22.8758C9.93179 24.2762 13.5017 22.9769 14.9021 19.9737L19.9735 9.09793C21.374 6.09469 20.0746 2.52481 17.0714 1.12438ZM13.9347 17.3158L17.3157 10.0654L10.0652 6.68436L6.68427 13.9349L13.9347 17.3158ZM13.0895 19.1284L5.83903 15.7475C4.90541 17.7496 5.77163 20.1296 7.77379 21.0632C9.77595 21.9968 12.1559 21.1306 13.0895 19.1284ZM16.2262 2.93699C18.2283 3.87061 19.0945 6.25053 18.1609 8.2527L10.9104 4.87175C11.8441 2.86959 14.224 2.00337 16.2262 2.93699Z" fill="#09418D"/>
</svg>
