<svg width="136" height="98" viewBox="0 0 136 98" fill="none" xmlns="http://www.w3.org/2000/svg">
<path fill-rule="evenodd" clip-rule="evenodd" d="M108.751 20.422C110.738 19.2871 113.209 20.7211 113.209 23.0086V119.991C113.209 122.279 110.738 123.713 108.751 122.578L95.3104 114.898C93.4788 113.851 91.2301 113.851 89.3986 114.898L76.23 122.422C73.2991 124.097 69.7015 124.097 66.7706 122.422L53.6023 114.898C51.7706 113.851 49.5218 113.851 47.69 114.898L34.2492 122.578C32.2631 123.713 29.792 122.279 29.792 119.991V23.0086C29.792 20.7211 32.2631 19.2871 34.2492 20.422L47.69 28.1024C49.5218 29.1491 51.7706 29.1491 53.6023 28.1024L66.7706 20.5778C69.7015 18.903 73.2991 18.903 76.23 20.5778L89.3986 28.1024C91.2301 29.1491 93.4788 29.1491 95.3104 28.1024L108.751 20.422ZM56.6045 53.625C54.9592 53.625 53.6253 54.9588 53.6253 56.6042C53.6253 58.2495 54.9592 59.5833 56.6045 59.5833H86.3962C88.0413 59.5833 89.3753 58.2495 89.3753 56.6042C89.3753 54.9588 88.0413 53.625 86.3962 53.625H56.6045ZM56.6045 68.5208C54.9592 68.5208 53.6253 69.8549 53.6253 71.5C53.6253 73.1451 54.9592 74.4792 56.6045 74.4792H86.3962C88.0413 74.4792 89.3753 73.1451 89.3753 71.5C89.3753 69.8549 88.0413 68.5208 86.3962 68.5208H56.6045ZM56.6045 83.4167C54.9592 83.4167 53.6253 84.7507 53.6253 86.3958C53.6253 88.0409 54.9592 89.375 56.6045 89.375H86.3962C88.0413 89.375 89.3753 88.0409 89.3753 86.3958C89.3753 84.7507 88.0413 83.4167 86.3962 83.4167H56.6045Z" fill="#E9F6FC"/>
</svg>
