<svg width="48" height="48" viewBox="0 0 48 48" fill="none" xmlns="http://www.w3.org/2000/svg">
<circle cx="24" cy="24" r="24" fill="#09418D" fill-opacity="0.1"/>
<path d="M21.5001 31.1667H19.0001C17.1591 31.1667 15.6667 29.6743 15.6667 27.8334V20.3334C15.6667 18.4924 17.1591 17 19.0001 17H28.1667C30.0077 17 31.5001 18.4924 31.5001 20.3334V22.8334" stroke="#09418D" stroke-width="1.66667" stroke-linecap="round" stroke-linejoin="round"/>
<path d="M20.6667 16.1667V17.8334" stroke="#09418D" stroke-width="1.66667" stroke-linecap="round" stroke-linejoin="round"/>
<path d="M26.5 16.1667V17.8334" stroke="#09418D" stroke-width="1.66667" stroke-linecap="round" stroke-linejoin="round"/>
<path d="M15.6667 21.1667H31.5001" stroke="#09418D" stroke-width="1.66667" stroke-linecap="round" stroke-linejoin="round"/>
<path d="M29.4167 27.5358L28.1667 28.7858" stroke="#09418D" stroke-width="1.66667" stroke-linecap="round" stroke-linejoin="round"/>
<path d="M28.1667 32.8334C30.4679 32.8334 32.3333 30.9679 32.3333 28.6667C32.3333 26.3655 30.4679 24.5 28.1667 24.5C25.8655 24.5 24 26.3655 24 28.6667C24 30.9679 25.8655 32.8334 28.1667 32.8334Z" stroke="#09418D" stroke-width="1.66667" stroke-linecap="round" stroke-linejoin="round"/>
</svg>
