<svg width="48" height="48" viewBox="0 0 48 48" fill="none" xmlns="http://www.w3.org/2000/svg">
<circle cx="24" cy="24" r="24" fill="#4E95FF" fill-opacity="0.1"/>
<path d="M32.3334 28.6V31.1C32.3344 31.3321 32.2868 31.5618 32.1939 31.7745C32.1009 31.9871 31.9645 32.178 31.7935 32.3349C31.6225 32.4918 31.4206 32.6112 31.2007 32.6856C30.9809 32.76 30.7479 32.7876 30.5168 32.7667C27.9525 32.488 25.4893 31.6118 23.3251 30.2083C21.3116 28.9289 19.6046 27.2218 18.3251 25.2083C16.9168 23.0343 16.0403 20.5592 15.7668 17.9833C15.7459 17.7529 15.7733 17.5206 15.8472 17.3014C15.921 17.0821 16.0397 16.8806 16.1957 16.7097C16.3517 16.5388 16.5416 16.4023 16.7533 16.3088C16.9649 16.2153 17.1937 16.1669 17.4251 16.1667H19.9251C20.3295 16.1627 20.7216 16.3059 21.0282 16.5696C21.3349 16.8333 21.5352 17.1995 21.5918 17.6C21.6973 18.4001 21.893 19.1856 22.1751 19.9417C22.2872 20.2399 22.3115 20.5641 22.245 20.8757C22.1786 21.1874 22.0242 21.4734 21.8001 21.7L20.7418 22.7583C21.9281 24.8446 23.6555 26.572 25.7418 27.7583L26.8001 26.7C27.0267 26.476 27.3127 26.3216 27.6244 26.2551C27.936 26.1886 28.2602 26.2129 28.5584 26.325C29.3145 26.6071 30.1001 26.8028 30.9001 26.9083C31.3049 26.9655 31.6746 27.1693 31.9389 27.4813C32.2032 27.7932 32.3436 28.1913 32.3334 28.6Z" stroke="#4E95FF" stroke-width="1.66667" stroke-linecap="round" stroke-linejoin="round"/>
</svg>
