<svg width="42" height="42" viewBox="0 0 42 42" fill="none" xmlns="http://www.w3.org/2000/svg">
<circle cx="21" cy="21" r="21" fill="#09418D" fill-opacity="0.1"/>
<path d="M11.5715 11.5713V20.1427H15.0002V30.4284H19.1906L19.3919 29.8554C19.6338 29.1673 20.28 28.7053 21.0002 28.7053C21.72 28.7053 22.3664 29.1673 22.6083 29.8554L22.8096 30.4284H27.0002V20.1429H30.4289V11.5713H11.5715ZM25.286 28.7142H23.9629C23.3599 27.6633 22.2349 26.9911 21.0002 26.9911C19.7655 26.9911 18.64 27.6633 18.037 28.7142H16.7144V16.7142H25.2858V28.7142H25.286ZM28.7144 18.4287H27.0002V16.7145H27.8573V15H14.1431V16.7142H15.0002V18.4284H13.286V13.2858H28.7147V18.4287H28.7144Z" fill="#09418D"/>
<path d="M18.4287 18.4287H20.1429V25.2858H18.4287V18.4287ZM21.8574 18.4287H23.5716V23.5716H21.8574V18.4287Z" fill="#09418D"/>
</svg>
