<svg width="20" height="24" viewBox="0 0 20 24" fill="none" xmlns="http://www.w3.org/2000/svg">
<path d="M10.1856 16.3379C10.7908 16.2363 11.1992 15.6633 11.0976 15.058C10.9961 14.4527 10.4231 14.0443 9.81777 14.1458L10.1856 16.3379ZM12.2243 23.1131C12.838 23.1131 13.3356 22.6155 13.3356 22.0018C13.3356 21.388 12.838 20.8905 12.2243 20.8905V23.1131ZM15.8804 17.8821C15.4464 18.3161 15.4464 19.0197 15.8804 19.4537C16.3144 19.8877 17.0181 19.8877 17.452 19.4537L15.8804 17.8821ZM13.4374 15.057C13.2845 15.6514 13.6422 16.2573 14.2366 16.4102C14.831 16.5632 15.4368 16.2054 15.5898 15.6111L13.4374 15.057ZM16.6662 20.8905C16.0525 20.8905 15.5549 21.388 15.5549 22.0018C15.5549 22.6155 16.0525 23.1131 16.6662 23.1131V20.8905ZM16.6773 23.1131C17.2911 23.1131 17.7886 22.6155 17.7886 22.0018C17.7886 21.388 17.2911 20.8905 16.6773 20.8905V23.1131ZM12.2243 6.44367C12.2243 8.28492 10.7317 9.77755 8.8904 9.77755V12.0001C11.9591 12.0001 14.4469 9.51242 14.4469 6.44367H12.2243ZM8.8904 9.77755C7.04915 9.77755 5.55652 8.28492 5.55652 6.44367H3.33393C3.33393 9.51242 5.82165 12.0001 8.8904 12.0001V9.77755ZM5.55652 6.44367C5.55652 4.60243 7.04915 3.10979 8.8904 3.10979V0.887207C5.82165 0.887207 3.33393 3.37493 3.33393 6.44367H5.55652ZM8.8904 3.10979C10.7317 3.10979 12.2243 4.60243 12.2243 6.44367H14.4469C14.4469 3.37493 11.9591 0.887207 8.8904 0.887207V3.10979ZM8.8904 14.2227C8.07182 14.2227 7.29736 14.0464 6.60052 13.7308L5.68341 15.7553C6.66264 16.1989 7.74924 16.4453 8.8904 16.4453V14.2227ZM2.22264 20.2237V18.3168H5.02744e-05V20.2237H2.22264ZM2.88941 20.8905C2.55988 20.8905 2.37957 20.8896 2.25001 20.879C2.13342 20.8695 2.15873 20.8579 2.22264 20.8905L1.21361 22.8708C1.51523 23.0245 1.81499 23.0735 2.06902 23.0943C2.31009 23.114 2.59657 23.1131 2.88941 23.1131V20.8905ZM5.02744e-05 20.2237C5.02744e-05 20.5165 -0.000816654 20.803 0.0188866 21.0441C0.0396344 21.2981 0.0886092 21.5979 0.242301 21.8995L2.22264 20.8905C2.2552 20.9544 2.24361 20.9797 2.23408 20.8632C2.2235 20.7336 2.22264 20.5532 2.22264 20.2237H5.02744e-05ZM2.22264 20.8905L0.242301 21.8995C0.45538 22.3177 0.795403 22.6578 1.21361 22.8708L2.22264 20.8905ZM2.22264 18.3168C2.22264 17.5619 2.22712 17.3323 2.25819 17.1607L0.071151 16.7647C-0.00442813 17.1822 5.02744e-05 17.659 5.02744e-05 18.3168H2.22264ZM4.04489 13.1338C3.91285 13.1438 3.7838 13.1589 3.65336 13.1826L4.04929 15.3696C4.08981 15.3622 4.14124 15.3554 4.21379 15.3499L4.04489 13.1338ZM2.25819 17.1607C2.42331 16.2485 3.13718 15.5347 4.04929 15.3696L3.65336 13.1826C1.82913 13.5128 0.401405 14.9405 0.071151 16.7647L2.25819 17.1607ZM6.60052 13.7308C6.07723 13.4937 5.67719 13.3084 5.41144 13.2335L4.80806 15.3726C4.80149 15.3707 4.8139 15.3739 4.85604 15.3903C4.89637 15.4058 4.95147 15.4286 5.02769 15.4615C5.18197 15.5282 5.38918 15.622 5.68341 15.7553L6.60052 13.7308ZM4.21379 15.3499C4.47792 15.3298 4.51933 15.3287 4.58894 15.3339L4.75405 13.1174C4.48962 13.0978 4.28094 13.1158 4.04489 13.1338L4.21379 15.3499ZM5.41144 13.2335C5.17232 13.166 5.0018 13.1359 4.75405 13.1174L4.58894 15.3339C4.65457 15.3388 4.68237 15.3428 4.6998 15.3458C4.71721 15.3489 4.74471 15.3547 4.80806 15.3726L5.41144 13.2335ZM9.81777 14.1458C9.51695 14.1963 9.20712 14.2227 8.8904 14.2227V16.4453C9.33092 16.4453 9.76365 16.4086 10.1856 16.3379L9.81777 14.1458ZM12.2243 20.8905H2.88941V23.1131H12.2243V20.8905ZM17.7774 15.8897C17.7774 16.0821 17.727 16.2289 17.4225 16.5228C17.2517 16.6876 17.0505 16.8513 16.7716 17.0832C16.5068 17.3036 16.1962 17.5663 15.8804 17.8821L17.452 19.4537C17.6918 19.2139 17.9369 19.005 18.1929 18.7919C18.435 18.5907 18.72 18.3593 18.9659 18.1219C19.495 17.6114 20 16.9247 20 15.8897H17.7774ZM16.6661 14.7784C17.2799 14.7784 17.7774 15.2759 17.7774 15.8897H20C20 14.0484 18.5074 12.5558 16.6661 12.5558V14.7784ZM15.5898 15.6111C15.7133 15.1314 16.1499 14.7784 16.6661 14.7784V12.5558C15.1112 12.5558 13.8074 13.6193 13.4374 15.057L15.5898 15.6111ZM16.6662 23.1131H16.6773V20.8905H16.6662V23.1131Z" fill="#25A8E0"/>
</svg>
