<svg width="42" height="42" viewBox="0 0 42 42" fill="none" xmlns="http://www.w3.org/2000/svg">
<circle cx="21" cy="21" r="21" fill="#4E95FF" fill-opacity="0.1"/>
<g clip-path="url(#clip0_127_4203)">
<path d="M17.0001 19.76C16.8089 19.76 16.6156 19.76 16.4201 19.76C15.6286 19.7314 14.8396 19.8658 14.1022 20.1548C13.3648 20.4438 12.6947 20.8812 12.1334 21.44L11.9734 21.6267V27.1467H14.6934V24.0133L15.0601 23.6L15.2267 23.4067C16.0947 22.515 17.1752 21.8589 18.3667 21.5C17.7702 21.0461 17.2997 20.4471 17.0001 19.76Z" fill="#4E95FF"/>
<path d="M29.8933 21.42C29.332 20.8612 28.6619 20.4237 27.9245 20.1348C27.1871 19.8458 26.3981 19.7114 25.6066 19.74C25.3639 19.7407 25.1213 19.754 24.88 19.78C24.5747 20.4246 24.1171 20.9852 23.5466 21.4133C24.8186 21.7652 25.9709 22.4566 26.88 23.4133L27.0466 23.6L27.4066 24.0133V27.1533H30.0333V21.6067L29.8933 21.42Z" fill="#4E95FF"/>
<path d="M16.3999 18.46C16.4732 18.46 16.5332 18.46 16.6066 18.46C16.5106 17.6355 16.6552 16.8008 17.0231 16.0567C17.391 15.3126 17.9665 14.6909 18.6799 14.2667C18.4213 13.8716 18.0645 13.5504 17.6445 13.3346C17.2244 13.1188 16.7555 13.0159 16.2837 13.0357C15.8119 13.0556 15.3534 13.1977 14.953 13.448C14.5526 13.6984 14.2241 14.0484 13.9996 14.4639C13.7752 14.8793 13.6624 15.346 13.6725 15.8181C13.6826 16.2902 13.8151 16.7516 14.057 17.1571C14.299 17.5626 14.6421 17.8984 15.0528 18.1314C15.4635 18.3645 15.9277 18.4869 16.3999 18.4867V18.46Z" fill="#4E95FF"/>
<path d="M25.2866 17.96C25.2947 18.1132 25.2947 18.2668 25.2866 18.42C25.4145 18.4403 25.5437 18.4514 25.6732 18.4533H25.7999C26.27 18.4283 26.7257 18.2819 27.1225 18.0284C27.5192 17.775 27.8436 17.4232 28.0641 17.0071C28.2845 16.5911 28.3935 16.1251 28.3803 15.6545C28.3672 15.1839 28.2324 14.7246 27.9891 14.3216C27.7459 13.9185 27.4023 13.5853 26.9921 13.3543C26.5818 13.1234 26.1187 13.0027 25.6479 13.0039C25.177 13.0051 24.7146 13.1281 24.3054 13.3611C23.8963 13.5941 23.5545 13.929 23.3132 14.3333C23.9166 14.7273 24.4128 15.2649 24.7572 15.8978C25.1016 16.5308 25.2835 17.2394 25.2866 17.96Z" fill="#4E95FF"/>
<path d="M20.9134 20.9467C22.5592 20.9467 23.8933 19.6125 23.8933 17.9667C23.8933 16.3209 22.5592 14.9867 20.9134 14.9867C19.2675 14.9867 17.9333 16.3209 17.9333 17.9667C17.9333 19.6125 19.2675 20.9467 20.9134 20.9467Z" fill="#4E95FF"/>
<path d="M21.0734 22.5333C20.2028 22.4982 19.334 22.6395 18.5194 22.9489C17.7049 23.2582 16.9613 23.7291 16.3334 24.3333L16.1667 24.52V28.74C16.1693 28.8775 16.199 29.0131 16.254 29.1391C16.309 29.265 16.3883 29.379 16.4874 29.4743C16.5865 29.5696 16.7033 29.6445 16.8313 29.6947C16.9593 29.7449 17.096 29.7693 17.2334 29.7667H24.8934C25.0309 29.7693 25.1675 29.7449 25.2955 29.6947C25.4235 29.6445 25.5404 29.5696 25.6394 29.4743C25.7385 29.379 25.8178 29.265 25.8728 29.1391C25.9278 29.0131 25.9575 28.8775 25.9601 28.74V24.5333L25.8001 24.3333C25.1763 23.7273 24.4353 23.255 23.6225 22.9455C22.8097 22.636 21.9423 22.4957 21.0734 22.5333Z" fill="#4E95FF"/>
</g>
<defs>
<clipPath id="clip0_127_4203">
<rect width="24" height="24" fill="white" transform="translate(9 9)"/>
</clipPath>
</defs>
</svg>
