<svg width="36" height="36" viewBox="0 0 36 36" fill="none" xmlns="http://www.w3.org/2000/svg">
<rect width="36" height="36" rx="18" fill="#4E95FF"/>
<g clip-path="url(#clip0_458_3156)">
<path d="M21.333 12C21.5081 11.8249 21.716 11.686 21.9447 11.5912C22.1735 11.4965 22.4187 11.4477 22.6663 11.4477C22.914 11.4477 23.1592 11.4965 23.3879 11.5912C23.6167 11.686 23.8246 11.8249 23.9997 12C24.1748 12.1751 24.3137 12.383 24.4084 12.6117C24.5032 12.8405 24.552 13.0857 24.552 13.3333C24.552 13.5809 24.5032 13.8261 24.4084 14.0549C24.3137 14.2837 24.1748 14.4916 23.9997 14.6667L14.9997 23.6667L11.333 24.6667L12.333 21L21.333 12Z" stroke="white" stroke-width="1.33333" stroke-linecap="round" stroke-linejoin="round"/>
</g>
<defs>
<clipPath id="clip0_458_3156">
<rect width="16" height="16" fill="white" transform="translate(10 10)"/>
</clipPath>
</defs>
</svg>
