<svg width="24" height="24" viewBox="0 0 24 24" fill="none" xmlns="http://www.w3.org/2000/svg">
<g clip-path="url(#clip0_500_3940)">
<path d="M21.8985 1.54417C22.143 1.54417 22.3148 1.58992 22.4048 1.62442C22.512 1.91092 22.6568 2.93767 21.5955 3.99967L16.182 9.41317L16.221 10.0852C16.3035 11.4907 16.4558 14.0092 16.587 16.1684C16.7025 18.0907 16.8128 19.9057 16.8203 20.0602C16.824 20.1667 16.8255 20.1914 16.7265 20.3107C16.5053 20.5792 16.092 21.0352 15.7448 21.4132C15.2048 19.9589 14.0708 16.8884 13.4445 15.1694L12.6398 12.9577L10.9748 14.6227L7.91327 17.5657L7.48652 17.9909L7.47302 18.5924C7.46252 19.0724 7.46477 19.9349 7.46627 20.6947C7.46777 21.2242 7.46927 21.7057 7.46552 21.9704C7.45877 21.9832 7.56752 21.9974 7.55777 22.0147C7.49252 21.9097 7.42202 21.7972 7.34777 21.6794C6.73052 20.6947 5.87627 19.3334 5.61602 18.9082L5.42552 18.5969L5.11277 18.4079C3.97577 17.7209 2.71577 16.9282 1.94702 16.4324C1.97327 16.4174 1.99502 16.4984 2.01302 16.4887H2.06327C2.30552 16.4887 2.70527 16.4939 3.15302 16.4999C3.73952 16.5082 4.40402 16.5172 4.91252 16.5172C5.10752 16.5172 5.28077 16.5157 5.42027 16.5127L6.02252 16.4992L6.44852 16.0739L9.39527 13.0342L11.0543 11.3759L8.85302 10.5659C7.19852 9.95692 4.02977 8.77417 2.54702 8.21692C2.92727 7.86667 3.38552 7.45117 3.65252 7.22917C3.72677 7.16767 3.78527 7.13617 3.82577 7.13617L3.87902 7.13767C4.04477 7.14592 6.09827 7.27942 8.08352 7.40992C10.191 7.54792 12.57 7.70242 13.923 7.78867L14.5988 7.83067L20.0138 2.41567C20.7743 1.65592 21.5213 1.54267 21.8993 1.54267L21.8985 1.54417ZM21.8985 0.0449219C21.0128 0.0449219 19.9245 0.385422 18.9533 1.35742L14.0175 6.29317C11.2373 6.11692 4.11677 5.64667 3.93977 5.64142C3.90827 5.63992 3.86927 5.63842 3.82577 5.63842C3.58502 5.63842 3.17027 5.68417 2.69777 6.07492C2.14277 6.53317 0.987019 7.62142 0.987019 7.62142C0.708019 7.90117 0.567019 8.24767 0.600769 8.57392C0.621019 8.77042 0.728269 9.12967 1.21127 9.31867C1.50527 9.43342 6.17777 11.1824 8.33552 11.9759L5.38877 15.0157C5.25827 15.0187 5.09627 15.0202 4.91402 15.0202C4.01552 15.0202 2.62277 14.9909 2.06402 14.9909C1.98977 14.9909 1.93052 14.9909 1.88852 14.9924C1.71827 14.9977 1.36652 14.9137 0.438769 15.6892L0.372769 15.7507C0.0945191 16.0289 0.0292691 16.3064 0.0232691 16.4902C0.0172691 16.6792 0.0675191 16.9514 0.341269 17.1704C0.505519 17.3032 2.61077 18.6509 4.33802 19.6942C4.75202 20.3699 6.65702 23.3977 6.75677 23.5619C6.90227 23.8072 7.13927 23.9474 7.42352 23.9557H7.44677C7.72277 23.9557 8.00627 23.8184 8.28377 23.5492C9.06902 22.6312 8.96027 22.2509 8.96402 22.0904C8.97677 21.5894 8.95577 19.4669 8.97302 18.6254L12.0338 15.6817C12.816 17.8304 14.526 22.4549 14.6408 22.7497C14.8313 23.2334 15.1905 23.3392 15.387 23.3594C15.4193 23.3632 15.4523 23.3647 15.4845 23.3647C15.7808 23.3647 16.0868 23.2252 16.3388 22.9747C16.3388 22.9747 17.4225 21.8242 17.883 21.2647C18.3435 20.7052 18.3263 20.2274 18.3173 20.0024C18.3135 19.8464 17.8793 12.7642 17.718 9.99892L22.6553 5.06167C24.405 3.31117 24.1268 1.20217 23.4773 0.553422C23.19 0.264672 22.6095 0.0471719 21.9 0.0471719L21.8985 0.0449219Z" fill="#09418D"/>
<path fill-rule="evenodd" clip-rule="evenodd" d="M243.457 -203.452C229.307 -217.601 211.543 -215.733 203.543 -207.731L76.3434 -80.5314L-122.111 -120.727L-127.023 -115.815L31.0233 -35.2134L-117.383 113.193L-215.768 92.2533L-223.437 99.9233L-125.759 165.763L-59.9187 263.443L-52.249 255.773L-73.1886 157.387L75.22 8.97995L155.82 167.027L160.733 162.117L120.537 -36.3367L247.737 -163.537C255.74 -171.539 257.607 -189.302 243.457 -203.452ZM168.187 -243.086C199.39 -274.291 249.027 -268.591 278.813 -238.807C308.597 -209.023 314.297 -159.386 283.09 -128.181L174.87 -19.9601L215.063 178.493L142.533 251.027L61.93 92.9799L-18.63 173.54L2.31003 271.927L-67.4667 341.7L-161.778 201.783L-301.696 107.473L-231.92 37.6966L-133.536 58.6366L-52.975 -21.9234L-211.022 -102.527L-138.489 -175.06L59.9633 -134.864L168.187 -243.086Z" fill="#09418D"/>
</g>
<defs>
<clipPath id="clip0_500_3940">
<rect width="24" height="24" fill="white"/>
</clipPath>
</defs>
</svg>
