<svg width="24" height="24" viewBox="0 0 24 24" fill="none" xmlns="http://www.w3.org/2000/svg">
<path d="M11.939 9.76466C11.7056 10.2652 11.1106 10.4818 10.6101 10.2484C10.1095 10.015 9.893 9.41996 10.1264 8.91942C10.3598 8.41888 10.9548 8.20232 11.4553 8.43573C11.9559 8.66913 12.1724 9.26411 11.939 9.76466Z" fill="#2E2E2E"/>
<path d="M8.91942 13.8733C9.41996 14.1067 10.0149 13.8901 10.2483 13.3896C10.4817 12.8891 10.2652 12.2941 9.76466 12.0607C9.26412 11.8273 8.66914 12.0438 8.43573 12.5444C8.20233 13.0449 8.41888 13.6399 8.91942 13.8733Z" fill="#2E2E2E"/>
<path d="M13.8737 15.0801C13.6403 15.5806 13.0453 15.7972 12.5447 15.5638C12.0442 15.3304 11.8276 14.7354 12.061 14.2348C12.2944 13.7343 12.8894 13.5177 13.39 13.7512C13.8905 13.9846 14.1071 14.5795 13.8737 15.0801Z" fill="#2E2E2E"/>
<path d="M14.2351 11.9387C14.7356 12.1721 15.3306 11.9556 15.564 11.455C15.7974 10.9545 15.5809 10.3595 15.0803 10.1261C14.5798 9.89276 13.9848 10.1093 13.7514 10.6098C13.518 11.1104 13.7346 11.7053 14.2351 11.9387Z" fill="#2E2E2E"/>
<path fill-rule="evenodd" clip-rule="evenodd" d="M17.0715 1.12414C14.0683 -0.276303 10.4984 1.02303 9.09789 4.02627L4.02647 14.9019C2.62604 17.9052 3.92537 21.4751 6.92861 22.8755C9.93185 24.2759 13.5018 22.9766 14.9022 19.9734L19.9736 9.09769C21.3741 6.09445 20.0747 2.52457 17.0715 1.12414ZM13.9348 17.3155L17.3158 10.0651L10.0653 6.68412L6.68433 13.9346L13.9348 17.3155ZM13.0896 19.1281L5.83909 15.7472C4.90547 17.7493 5.77169 20.1293 7.77385 21.0629C9.77601 21.9965 12.156 21.1303 13.0896 19.1281ZM16.2263 2.93675C18.2284 3.87037 19.0946 6.25029 18.161 8.25246L10.9105 4.87151C11.8442 2.86935 14.2241 2.00313 16.2263 2.93675Z" fill="#2E2E2E"/>
</svg>
