<svg width="44" height="44" viewBox="0 0 44 44" fill="none" xmlns="http://www.w3.org/2000/svg">
<path d="M33.4583 39.7083H4.29167V10.5417H23.0417V6.375H4.29167C2 6.375 0.125 8.25 0.125 10.5417V39.7083C0.125 42 2 43.875 4.29167 43.875H33.4583C35.75 43.875 37.625 42 37.625 39.7083V20.9583H33.4583V39.7083ZM17.2292 33.1042L13.1458 28.1875L7.41667 35.5417H30.3333L22.9583 25.7292L17.2292 33.1042ZM37.625 6.375V0.125H33.4583V6.375H27.2083C27.2292 6.39583 27.2083 10.5417 27.2083 10.5417H33.4583V16.7708C33.4792 16.7917 37.625 16.7708 37.625 16.7708V10.5417H43.875V6.375H37.625Z" fill="black"/>
</svg>
