<svg width="20" height="21" viewBox="0 0 20 21" fill="none" xmlns="http://www.w3.org/2000/svg">
<path d="M14.5833 17.5833H2.91667V5.91667H10.4167V4.25H2.91667C2 4.25 1.25 5 1.25 5.91667V17.5833C1.25 18.5 2 19.25 2.91667 19.25H14.5833C15.5 19.25 16.25 18.5 16.25 17.5833V10.0833H14.5833V17.5833ZM8.09167 14.9417L6.45833 12.975L4.16667 15.9167H13.3333L10.3833 11.9917L8.09167 14.9417ZM16.25 4.25V1.75H14.5833V4.25H12.0833C12.0917 4.25833 12.0833 5.91667 12.0833 5.91667H14.5833V8.40833C14.5917 8.41667 16.25 8.40833 16.25 8.40833V5.91667H18.75V4.25H16.25Z" fill="#2E2E2E"/>
</svg>
