<svg width="17" height="17" viewBox="0 0 17 17" fill="none" xmlns="http://www.w3.org/2000/svg">
<g clip-path="url(#clip0_168_996)">
<path d="M7.83325 3.49365H3.16659C2.81296 3.49365 2.47382 3.63413 2.22378 3.88418C1.97373 4.13423 1.83325 4.47336 1.83325 4.82699V14.1603C1.83325 14.5139 1.97373 14.8531 2.22378 15.1031C2.47382 15.3532 2.81296 15.4937 3.16659 15.4937H12.4999C12.8535 15.4937 13.1927 15.3532 13.4427 15.1031C13.6928 14.8531 13.8333 14.5139 13.8333 14.1603V9.49365" stroke="#2E2E2E" stroke-width="1.33333" stroke-linecap="round" stroke-linejoin="round"/>
<path d="M12.8333 2.4938C13.0985 2.22859 13.4582 2.07959 13.8333 2.07959C14.2083 2.07959 14.568 2.22859 14.8333 2.4938C15.0985 2.75902 15.2475 3.11873 15.2475 3.4938C15.2475 3.86888 15.0985 4.22859 14.8333 4.4938L8.49992 10.8271L5.83325 11.4938L6.49992 8.82714L12.8333 2.4938Z" stroke="#2E2E2E" stroke-width="1.33333" stroke-linecap="round" stroke-linejoin="round"/>
</g>
<defs>
<clipPath id="clip0_168_996">
<rect width="16" height="16" fill="white" transform="translate(0.5 0.5)"/>
</clipPath>
</defs>
</svg>
