<svg width="40" height="40" viewBox="0 0 40 40" fill="none" xmlns="http://www.w3.org/2000/svg">
<rect width="40" height="40" rx="20" fill="#09418D"/>
<g clip-path="url(#clip0_326_13245)">
<path d="M19.2499 14.3677H13.9999C13.6021 14.3677 13.2205 14.5258 12.9392 14.8071C12.6579 15.0884 12.4999 15.4699 12.4999 15.8677V26.3677C12.4999 26.7655 12.6579 27.1471 12.9392 27.4284C13.2205 27.7097 13.6021 27.8677 13.9999 27.8677H24.4999C24.8977 27.8677 25.2792 27.7097 25.5605 27.4284C25.8418 27.1471 25.9999 26.7655 25.9999 26.3677V21.1177" stroke="white" stroke-width="1.77778" stroke-linecap="round" stroke-linejoin="round"/>
<path d="M24.8749 13.2429C25.1732 12.9445 25.5779 12.7769 25.9999 12.7769C26.4218 12.7769 26.8265 12.9445 27.1249 13.2429C27.4232 13.5413 27.5909 13.9459 27.5909 14.3679C27.5909 14.7898 27.4232 15.1945 27.1249 15.4929L19.9999 22.6179L16.9999 23.3679L17.7499 20.3679L24.8749 13.2429Z" stroke="white" stroke-width="1.77778" stroke-linecap="round" stroke-linejoin="round"/>
</g>
<defs>
<clipPath id="clip0_326_13245">
<rect width="18" height="18" fill="white" transform="translate(11 11)"/>
</clipPath>
</defs>
</svg>
