<svg width="22" height="22" viewBox="0 0 22 22" fill="none" xmlns="http://www.w3.org/2000/svg">
<path d="M10.0834 16.5H11.9167V14.6667H10.0834V16.5ZM11 1.83333C5.94004 1.83333 1.83337 5.94 1.83337 11C1.83337 16.06 5.94004 20.1667 11 20.1667C16.06 20.1667 20.1667 16.06 20.1667 11C20.1667 5.94 16.06 1.83333 11 1.83333ZM11 18.3333C6.95754 18.3333 3.66671 15.0425 3.66671 11C3.66671 6.9575 6.95754 3.66667 11 3.66667C15.0425 3.66667 18.3334 6.9575 18.3334 11C18.3334 15.0425 15.0425 18.3333 11 18.3333ZM11 5.5C8.97421 5.5 7.33337 7.14083 7.33337 9.16667H9.16671C9.16671 8.15833 9.99171 7.33333 11 7.33333C12.0084 7.33333 12.8334 8.15833 12.8334 9.16667C12.8334 11 10.0834 10.7708 10.0834 13.75H11.9167C11.9167 11.6875 14.6667 11.4583 14.6667 9.16667C14.6667 7.14083 13.0259 5.5 11 5.5Z" fill="#898989"/>
</svg>
