<svg width="16" height="16" viewBox="0 0 16 16" fill="none" xmlns="http://www.w3.org/2000/svg">
<path d="M8.00004 1.33334C4.32004 1.33334 1.33337 4.32001 1.33337 8.00001C1.33337 11.68 4.32004 14.6667 8.00004 14.6667C11.68 14.6667 14.6667 11.68 14.6667 8.00001C14.6667 4.32001 11.68 1.33334 8.00004 1.33334ZM12.9734 6.08001L11.12 6.84668C10.78 5.94001 10.0667 5.22001 9.15337 4.88668L9.92004 3.03334C11.32 3.56668 12.4334 4.68001 12.9734 6.08001ZM8.00004 10C6.89337 10 6.00004 9.10668 6.00004 8.00001C6.00004 6.89334 6.89337 6.00001 8.00004 6.00001C9.10671 6.00001 10 6.89334 10 8.00001C10 9.10668 9.10671 10 8.00004 10ZM6.08671 3.02668L6.86671 4.88001C5.94671 5.21334 5.22004 5.94001 4.88004 6.86001L3.02671 6.08668C3.56671 4.68001 4.68004 3.56668 6.08671 3.02668ZM3.02671 9.91334L4.88004 9.14668C5.22004 10.0667 5.94004 10.7867 6.86004 11.12L6.08004 12.9733C4.68004 12.4333 3.56671 11.32 3.02671 9.91334ZM9.92004 12.9733L9.15337 11.12C10.0667 10.78 10.7867 10.06 11.12 9.14001L12.9734 9.92001C12.4334 11.32 11.32 12.4333 9.92004 12.9733Z" fill="#2E2E2E"/>
</svg>
