<svg width="24" height="25" viewBox="0 0 24 25" fill="none" xmlns="http://www.w3.org/2000/svg">
<path d="M12 6.74937C15.79 6.74937 19.17 8.87937 20.82 12.2494C20.23 13.4694 19.4 14.5194 18.41 15.3694L19.82 16.7794C21.21 15.5494 22.31 14.0094 23 12.2494C21.27 7.85937 17 4.74937 12 4.74937C10.73 4.74937 9.51 4.94937 8.36 5.31937L10.01 6.96937C10.66 6.83937 11.32 6.74937 12 6.74937ZM10.93 7.88937L13 9.95937C13.57 10.2094 14.03 10.6694 14.28 11.2394L16.35 13.3094C16.43 12.9694 16.49 12.6094 16.49 12.2394C16.5 9.75937 14.48 7.74937 12 7.74937C11.63 7.74937 11.28 7.79937 10.93 7.88937ZM2.01 4.61937L4.69 7.29937C3.06 8.57937 1.77 10.2794 1 12.2494C2.73 16.6394 7 19.7494 12 19.7494C13.52 19.7494 14.98 19.4594 16.32 18.9294L19.74 22.3494L21.15 20.9394L3.42 3.19937L2.01 4.61937ZM9.51 12.1194L12.12 14.7294C12.08 14.7394 12.04 14.7494 12 14.7494C10.62 14.7494 9.5 13.6294 9.5 12.2494C9.5 12.1994 9.51 12.1694 9.51 12.1194ZM6.11 8.71937L7.86 10.4694C7.63 11.0194 7.5 11.6194 7.5 12.2494C7.5 14.7294 9.52 16.7494 12 16.7494C12.63 16.7494 13.23 16.6194 13.77 16.3894L14.75 17.3694C13.87 17.6094 12.95 17.7494 12 17.7494C8.21 17.7494 4.83 15.6194 3.18 12.2494C3.88 10.8194 4.9 9.63937 6.11 8.71937Z" fill="#898989"/>
</svg>
