<svg width="20" height="20" viewBox="0 0 20 20" fill="none" xmlns="http://www.w3.org/2000/svg">
<path d="M9.1665 15.0001H10.8332V13.3334H9.1665V15.0001ZM9.99984 1.66675C5.39984 1.66675 1.6665 5.40008 1.6665 10.0001C1.6665 14.6001 5.39984 18.3334 9.99984 18.3334C14.5998 18.3334 18.3332 14.6001 18.3332 10.0001C18.3332 5.40008 14.5998 1.66675 9.99984 1.66675ZM9.99984 16.6667C6.32484 16.6667 3.33317 13.6751 3.33317 10.0001C3.33317 6.32508 6.32484 3.33341 9.99984 3.33341C13.6748 3.33341 16.6665 6.32508 16.6665 10.0001C16.6665 13.6751 13.6748 16.6667 9.99984 16.6667ZM9.99984 5.00008C8.15817 5.00008 6.6665 6.49175 6.6665 8.33342H8.33317C8.33317 7.41675 9.08317 6.66675 9.99984 6.66675C10.9165 6.66675 11.6665 7.41675 11.6665 8.33342C11.6665 10.0001 9.1665 9.79175 9.1665 12.5001H10.8332C10.8332 10.6251 13.3332 10.4167 13.3332 8.33342C13.3332 6.49175 11.8415 5.00008 9.99984 5.00008Z" fill="#898989"/>
</svg> 