<svg width="20" height="20" viewBox="0 0 20 20" fill="none" xmlns="http://www.w3.org/2000/svg">
<path d="M16.8567 7.33333C15.752 7.33333 15.1348 8.43047 15.3863 9.24571L12.6815 11.9581C12.4529 11.8895 12.1177 11.8895 11.8891 11.9581L9.94627 10.0152C10.2053 9.19999 9.58818 8.09523 8.4758 8.09523C7.37103 8.09523 6.74627 9.19238 7.00532 10.0152L3.53103 13.4819C2.7158 13.2305 1.61865 13.8476 1.61865 14.9524C1.61865 15.7905 2.30437 16.4762 3.14246 16.4762C4.24722 16.4762 4.86437 15.379 4.61294 14.5638L8.0796 11.0895C8.30818 11.1581 8.64341 11.1581 8.87199 11.0895L10.8148 13.0324C10.5558 13.8476 11.1729 14.9524 12.2853 14.9524C13.3901 14.9524 14.0148 13.8552 13.7558 13.0324L16.4682 10.3276C17.2834 10.579 18.3806 9.9619 18.3806 8.85714C18.3806 8.01904 17.6948 7.33333 16.8567 7.33333Z" fill="#25A8E0"/>
<path d="M12.2853 8.09523L13.0015 6.51809L14.571 5.80952L13.0015 5.10095L12.2853 3.5238L11.5844 5.10095L9.99961 5.80952L11.5844 6.51809L12.2853 8.09523Z" fill="#25A8E0"/>
<path d="M3.52341 9.61904L3.90437 8.09523L5.42818 7.71428L3.90437 7.33333L3.52341 5.80952L3.14246 7.33333L1.61865 7.71428L3.14246 8.09523L3.52341 9.61904Z" fill="#25A8E0"/>
</svg>
