<svg width="16" height="16" viewBox="0 0 16 16" fill="none" xmlns="http://www.w3.org/2000/svg">
<path d="M14 2.33334H1.99996C1.26663 2.33334 0.666626 2.93334 0.666626 3.66668V12.3333C0.666626 13.0667 1.26663 13.6667 1.99996 13.6667H14C14.7333 13.6667 15.3333 13.0667 15.3333 12.3333V3.66668C15.3333 2.93334 14.7333 2.33334 14 2.33334ZM1.99996 12.3333V3.66668H7.33329V12.3333H1.99996ZM14 12.3333H8.66663V3.66668H14V12.3333ZM9.33329 6.00001H13.3333V7.00001H9.33329V6.00001ZM9.33329 7.66668H13.3333V8.66668H9.33329V7.66668ZM9.33329 9.33334H13.3333V10.3333H9.33329V9.33334Z" fill="#2E2E2E"/>
</svg>
