<svg width="14" height="14" viewBox="0 0 14 14" fill="none" xmlns="http://www.w3.org/2000/svg">
<path d="M11.4 11.9995H13V13.3329H9.00004V9.33288H10.3334V11.1529C11.5534 10.1729 12.3334 8.67954 12.3334 6.99954C12.3334 4.28621 10.2934 2.03954 7.66671 1.71288V0.366211C11.0334 0.699544 13.6667 3.53954 13.6667 6.99954C13.6667 8.99288 12.7867 10.7795 11.4 11.9995ZM1.66671 6.99954C1.66671 5.31954 2.44671 3.81954 3.66671 2.84621V4.66621H5.00004V0.666211H1.00004V1.99954H2.60004C1.21337 3.21954 0.333374 5.00621 0.333374 6.99954C0.333374 10.4595 2.96671 13.2995 6.33337 13.6329V12.2862C3.70671 11.9595 1.66671 9.71288 1.66671 6.99954ZM9.82671 4.40621L6.05337 8.17954L4.16671 6.29288L3.22671 7.23288L6.05337 10.0595L10.7667 5.34621L9.82671 4.40621Z" fill="#4E95FF"/>
</svg>
