<svg width="24" height="25" viewBox="0 0 24 25" fill="none" xmlns="http://www.w3.org/2000/svg">
<path d="M12 7.27441C15.79 7.27441 19.17 9.40441 20.82 12.7744C19.17 16.1444 15.79 18.2744 12 18.2744C8.21 18.2744 4.83 16.1444 3.18 12.7744C4.83 9.40441 8.21 7.27441 12 7.27441ZM12 5.27441C7 5.27441 2.73 8.38441 1 12.7744C2.73 17.1644 7 20.2744 12 20.2744C17 20.2744 21.27 17.1644 23 12.7744C21.27 8.38441 17 5.27441 12 5.27441ZM12 10.2744C13.38 10.2744 14.5 11.3944 14.5 12.7744C14.5 14.1544 13.38 15.2744 12 15.2744C10.62 15.2744 9.5 14.1544 9.5 12.7744C9.5 11.3944 10.62 10.2744 12 10.2744ZM12 8.27441C9.52 8.27441 7.5 10.2944 7.5 12.7744C7.5 15.2544 9.52 17.2744 12 17.2744C14.48 17.2744 16.5 15.2544 16.5 12.7744C16.5 10.2944 14.48 8.27441 12 8.27441Z" fill="#2E2E2E"/>
</svg>
