<svg xmlns="http://www.w3.org/2000/svg" width="18" height="18" viewBox="0 0 18 18" fill="none">
  <path d="M16.0632 12.4511L13.8096 7.18796C13.0464 5.40237 11.6424 5.33036 10.6992 7.02956L9.33842 9.48474C8.64722 10.7303 7.35842 10.8383 6.46562 9.72234L6.30722 9.52074C5.37842 8.35434 4.06802 8.49834 3.39842 9.83034L2.16002 12.3143C1.28882 14.0423 2.54882 16.0799 4.47842 16.0799H13.6656C15.5376 16.0799 16.7976 14.1719 16.0632 12.4511Z" stroke="#8D93A7" stroke-width="1.728" stroke-linecap="round" stroke-linejoin="round"/>
  <path opacity="0.4" d="M5.4725 6.00018C6.66544 6.00018 7.6325 5.03311 7.6325 3.84018C7.6325 2.64724 6.66544 1.68018 5.4725 1.68018C4.27957 1.68018 3.3125 2.64724 3.3125 3.84018C3.3125 5.03311 4.27957 6.00018 5.4725 6.00018Z" stroke="#8D93A7" stroke-width="1.728" stroke-linecap="round" stroke-linejoin="round"/>
  <rect x="1.15945" y="0.95999" width="15.84" height="15.84" rx="2.16" stroke="#8D93A7" stroke-width="1.44"/>
</svg>