<svg width="200" height="200" viewBox="0 0 200 200" fill="none" xmlns="http://www.w3.org/2000/svg">
<path d="M100 58.3333V25H16.6667V175H183.333V58.3333H100ZM50 158.333H33.3333V141.667H50V158.333ZM50 125H33.3333V108.333H50V125ZM50 91.6667H33.3333V75H50V91.6667ZM50 58.3333H33.3333V41.6667H50V58.3333ZM83.3333 158.333H66.6667V141.667H83.3333V158.333ZM83.3333 125H66.6667V108.333H83.3333V125ZM83.3333 91.6667H66.6667V75H83.3333V91.6667ZM83.3333 58.3333H66.6667V41.6667H83.3333V58.3333ZM166.667 158.333H100V141.667H116.667V125H100V108.333H116.667V91.6667H100V75H166.667V158.333ZM150 91.6667H133.333V108.333H150V91.6667ZM150 125H133.333V141.667H150V125Z" fill="#898989"/>
</svg>
