<svg width="250" height="157" viewBox="0 0 250 157" fill="none" xmlns="http://www.w3.org/2000/svg">
<g clip-path="url(#clip0_749_14669)">
<path d="M0 155.727C0 155.968 0.193253 156.161 0.433904 156.161H249.566C249.807 156.161 250 155.968 250 155.727C250 155.487 249.807 155.293 249.566 155.293H0.433904C0.193253 155.293 0 155.487 0 155.727Z" fill="#3F3D56"/>
<path d="M103.365 156.052H25.4921C22.3823 156.052 19.8523 153.522 19.8523 150.412V5.63983C19.8523 2.52999 22.3823 0 25.4921 0H103.365C106.475 0 109.005 2.52999 109.005 5.63983V150.412C109.005 153.522 106.475 156.052 103.365 156.052ZM25.4921 0.729214C22.7845 0.729214 20.5815 2.93216 20.5815 5.63983V150.412C20.5815 153.12 22.7845 155.323 25.4921 155.323H103.365C106.073 155.323 108.276 153.12 108.276 150.412V5.63983C108.276 2.93216 106.073 0.729214 103.365 0.729214H25.4921Z" fill="#3F3D56"/>
<path d="M243.023 73.6166C242.715 73.0975 241.383 73.6533 241.139 73.1822C240.895 72.7128 242.132 71.9977 242.839 70.3639C242.966 70.0692 243.77 68.2126 243.175 67.6397C242.048 66.5537 236.889 71.0351 235.084 69.5686C234.688 69.2468 234.411 68.6043 233.212 67.5611C232.735 67.1462 232.447 66.9588 232.167 67.0285C231.771 67.1274 231.74 67.6575 231.315 68.6998C230.678 70.263 230.302 70.1686 229.93 71.4158C229.655 72.3416 229.718 72.8799 229.394 72.9847C228.935 73.1331 228.513 72.1511 227.931 72.2391C227.338 72.3288 226.979 73.4722 226.866 74.3282C226.653 75.9347 227.243 76.9948 227.57 78.1095C227.926 79.3208 228.137 81.163 227.316 83.7709L219.193 106.656C220.987 101.96 226.179 89.0872 228.36 84.3036C228.99 82.9226 229.686 81.5219 231.114 80.9691C232.488 80.4369 234.376 80.7547 236.783 80.1748C237.064 80.1071 237.845 79.9086 237.943 79.4498C238.024 79.0704 237.565 78.8587 237.636 78.5034C237.73 78.0269 238.632 78.021 239.741 77.4712C240.523 77.0836 241.01 76.6225 241.429 76.226C241.555 76.1065 243.433 74.3076 243.023 73.6166Z" fill="#F2F2F2"/>
<path d="M211.067 85.6642C210.723 85.6655 210.612 86.4795 210.31 86.4637C210.009 86.4481 210.015 85.6344 209.417 84.816C209.309 84.6685 208.63 83.7385 208.177 83.8651C207.319 84.105 208.03 87.9298 206.789 88.3927C206.517 88.4943 206.122 88.4447 205.264 88.7323C204.923 88.8466 204.748 88.9341 204.701 89.0913C204.635 89.3142 204.887 89.4826 205.276 89.9918C205.859 90.7554 205.704 90.9131 206.209 91.4551C206.584 91.8574 206.866 91.9819 206.824 92.1712C206.765 92.4392 206.161 92.3631 206.036 92.6738C205.909 92.9909 206.367 93.4969 206.754 93.7995C207.481 94.3674 208.172 94.3836 208.813 94.5448C209.51 94.7199 210.476 95.1479 211.519 96.3032L220.407 106.893C218.62 104.658 213.8 98.3952 212.082 95.9441C211.586 95.2366 211.099 94.4911 211.239 93.6308C211.375 92.8025 212.076 91.9675 212.485 90.6188C212.533 90.4613 212.661 90.0212 212.464 89.8406C212.301 89.6913 212.065 89.8555 211.911 89.7183C211.704 89.5344 211.962 89.0899 212.012 88.387C212.047 87.8914 211.962 87.5193 211.888 87.1993C211.866 87.1028 211.524 85.6624 211.067 85.6642Z" fill="#F2F2F2"/>
<path d="M217.921 87.2029L217.714 85.355L217.809 85.2149C218.247 84.5671 218.47 83.9345 218.472 83.334C218.473 83.2385 218.468 83.143 218.464 83.0458C218.446 82.6603 218.424 82.1812 218.674 81.6226C218.814 81.3112 219.207 80.5903 219.799 80.6795C219.958 80.7018 220.078 80.775 220.17 80.8606C220.183 80.8392 220.197 80.8178 220.212 80.7946C220.396 80.5135 220.542 80.3931 220.682 80.2771C220.79 80.1878 220.902 80.0959 221.077 79.8782C221.154 79.7828 221.213 79.6989 221.264 79.6284C221.417 79.4151 221.617 79.1608 221.969 79.1653C222.346 79.1832 222.543 79.4946 222.674 79.7007C222.907 80.0683 223.013 80.3333 223.083 80.5091C223.108 80.5733 223.137 80.6456 223.152 80.6679C223.273 80.8463 224.26 80.6795 224.631 80.6188C225.466 80.4796 226.188 80.3592 226.486 80.8856C226.699 81.2621 226.541 81.76 226.001 82.4051C225.833 82.6059 225.654 82.7585 225.495 82.878C225.627 82.9566 225.744 83.077 225.792 83.2662C225.905 83.7141 225.519 84.1629 224.648 84.6019C224.432 84.7116 224.14 84.858 223.732 84.9285C223.54 84.9615 223.367 84.9695 223.219 84.974C223.216 85.0596 223.196 85.1524 223.143 85.2479C222.99 85.529 222.672 85.6628 222.192 85.6307C221.664 85.603 221.229 85.5022 220.845 85.4139C220.51 85.3371 220.221 85.272 219.995 85.2872C219.574 85.3211 219.25 85.6575 218.87 86.0938L217.921 87.2029Z" fill="#F2F2F2"/>
<path d="M218.882 76.2005L217.147 76.8695L216.987 76.8135C216.25 76.5545 215.581 76.4992 214.999 76.6489C214.907 76.6727 214.816 76.7012 214.723 76.7302C214.355 76.8452 213.897 76.9883 213.293 76.8884C212.956 76.8318 212.159 76.6341 212.095 76.0392C212.077 75.8795 212.117 75.7444 212.176 75.6342C212.152 75.6267 212.128 75.6188 212.102 75.6104C211.783 75.5035 211.63 75.3929 211.482 75.2864C211.368 75.2046 211.251 75.12 210.996 75.0061C210.884 74.9561 210.788 74.9195 210.707 74.8886C210.462 74.7947 210.165 74.6659 210.08 74.3238C210.002 73.9551 210.253 73.6854 210.419 73.5066C210.716 73.1877 210.945 73.0182 211.098 72.9059C211.153 72.865 211.216 72.8186 211.234 72.7987C211.375 72.636 210.964 71.7242 210.811 71.3801C210.465 70.608 210.165 69.9399 210.599 69.5185C210.909 69.2167 211.43 69.2437 212.191 69.6022C212.428 69.714 212.621 69.8483 212.777 69.9716C212.82 69.8244 212.906 69.6799 213.077 69.5858C213.482 69.3634 214.014 69.622 214.659 70.3534C214.82 70.5349 215.036 70.7796 215.208 71.1565C215.288 71.3342 215.34 71.4996 215.382 71.6417C215.466 71.623 215.56 71.6189 215.666 71.6452C215.977 71.7219 216.187 71.9961 216.278 72.4686C216.385 72.9865 216.398 73.4328 216.41 73.8264C216.42 74.1699 216.431 74.4657 216.503 74.681C216.642 75.079 217.05 75.3069 217.568 75.5639L218.882 76.2005Z" fill="#F2F2F2"/>
<path d="M217.921 70.7566L217.714 68.9087L217.809 68.7686C218.247 68.1208 218.47 67.4882 218.472 66.8877C218.473 66.7922 218.468 66.6967 218.464 66.5995C218.446 66.214 218.424 65.7349 218.674 65.1763C218.814 64.8649 219.207 64.144 219.799 64.2332C219.958 64.2555 220.078 64.3287 220.17 64.4143C220.183 64.3929 220.197 64.3715 220.212 64.3483C220.396 64.0672 220.542 63.9468 220.682 63.8308C220.79 63.7415 220.902 63.6496 221.077 63.4319C221.154 63.3365 221.213 63.2526 221.264 63.1821C221.417 62.9688 221.617 62.7145 221.969 62.719C222.346 62.7369 222.543 63.0483 222.674 63.2544C222.907 63.622 223.013 63.887 223.083 64.0628C223.108 64.127 223.137 64.1993 223.152 64.2216C223.273 64.4 224.26 64.2332 224.631 64.1725C225.466 64.0333 226.188 63.9129 226.486 64.4393C226.699 64.8158 226.541 65.3137 226.001 65.9588C225.833 66.1596 225.654 66.3122 225.495 66.4317C225.627 66.5103 225.744 66.6307 225.792 66.8199C225.905 67.2678 225.519 67.7166 224.648 68.1556C224.432 68.2654 224.14 68.4117 223.732 68.4822C223.54 68.5152 223.367 68.5232 223.219 68.5277C223.216 68.6133 223.196 68.7061 223.143 68.8016C222.99 69.0827 222.672 69.2165 222.192 69.1844C221.664 69.1567 221.229 69.0559 220.845 68.9676C220.51 68.8908 220.221 68.8257 219.995 68.8409C219.574 68.8748 219.25 69.2112 218.87 69.6475L217.921 70.7566Z" fill="#F2F2F2"/>
<path d="M219.812 106.626L219.425 106.383L218.973 106.435C218.966 106.393 218.942 106.297 218.905 106.146C218.703 105.319 218.086 102.805 217.572 98.8452C217.214 96.0809 217.011 93.2391 216.969 90.3972C216.927 87.5508 217.062 85.396 217.17 83.6641C217.251 82.3578 217.35 81.114 217.448 79.9023C217.706 76.6652 217.95 73.6074 217.769 70.2221C217.729 69.4664 217.644 67.8933 216.725 66.2194C216.192 65.2486 215.458 64.3867 214.542 63.6586L215.112 62.943C216.122 63.7478 216.935 64.7025 217.527 65.7804C218.546 67.6363 218.637 69.3504 218.682 70.1739C218.866 73.619 218.62 76.7062 218.358 79.9746C218.262 81.1819 218.163 82.4203 218.082 83.7212C217.974 85.4371 217.841 87.5732 217.883 90.3829C217.924 93.1909 218.124 95.998 218.478 98.7274C218.986 102.637 219.593 105.114 219.792 105.928C219.899 106.363 219.921 106.454 219.812 106.626Z" fill="#F2F2F2"/>
<path d="M212.867 65.1103C212.829 65.1103 212.791 65.1094 212.753 65.1067C211.975 65.0648 211.254 64.599 210.611 63.7228C210.309 63.3106 210.155 62.8404 209.847 61.9026C209.799 61.758 209.567 61.0246 209.426 60.0155C209.334 59.3561 209.346 59.0804 209.476 58.8368C209.621 58.5655 209.856 58.3764 210.12 58.2488C210.109 58.1613 210.118 58.0712 210.156 57.9793C210.312 57.5983 210.726 57.6483 210.95 57.6724C211.063 57.6866 211.204 57.7054 211.357 57.6973C211.597 57.6857 211.726 57.6143 211.921 57.5073C212.108 57.4047 212.341 57.2771 212.686 57.2066C213.365 57.0647 213.935 57.2574 214.123 57.3208C215.111 57.65 215.598 58.4183 216.162 59.3079C216.275 59.4863 216.661 60.1359 216.915 61.0264C217.099 61.6688 217.073 61.9543 217.018 62.1667C216.906 62.603 216.64 62.8528 215.966 63.4043C215.262 63.9816 214.909 64.2707 214.605 64.4464C213.899 64.8542 213.456 65.1103 212.867 65.1103Z" fill="#F2F2F2"/>
<path d="M109.222 64.3552H19.6351V87.6245H109.222V64.3552Z" fill="#4E95FF"/>
<path d="M76.6448 0.364609H53.3755V155.687H76.6448V0.364609Z" fill="#4E95FF"/>
<path opacity="0.2" d="M77.5049 85.8726C77.6696 85.2317 77.7679 84.5655 77.7918 83.879L106.895 57.3744L81.8804 45.158L70.8558 74.557C70.1022 74.3601 69.3157 74.2446 68.5005 74.2446C68.0677 74.2446 67.6451 74.2844 67.228 74.3416L56.2841 45.158L31.2697 57.3744L59.2289 82.8373C59.2109 83.0741 59.1928 83.3109 59.1928 83.5523C59.1928 84.3549 59.3051 85.1296 59.4962 85.8726C42.3579 91.2287 35.3418 107.403 35.3418 107.403L56.8659 124.855C55.5822 112.018 63.4217 98.8754 67.6599 92.8176C67.9372 92.8425 68.2167 92.8601 68.5005 92.8601C68.7843 92.8601 69.0638 92.8425 69.3411 92.8176C73.5793 98.8754 81.4189 112.018 80.1352 124.855L101.659 107.403C101.659 107.403 94.6431 91.2287 77.5049 85.8726Z" fill="black"/>
<path d="M80.6652 118.567C80.4142 118.567 80.1612 118.512 79.9223 118.4C79.318 118.118 78.9363 117.531 78.9258 116.866C78.7494 105.612 72.3321 94.566 68.5224 88.9836C68.268 88.6109 67.8286 88.3883 67.3469 88.3883H67.3447C66.8454 88.3883 66.406 88.6109 66.1516 88.9836C62.3421 94.566 55.9248 105.612 55.7482 116.866C55.7377 117.53 55.356 118.118 54.7518 118.4C54.1415 118.686 53.4375 118.6 52.915 118.176L35.0247 103.67C34.3861 103.152 34.1986 102.245 34.5791 101.513C36.3875 98.0301 43.3498 86.2922 57.0135 81.4654C57.6232 81.25 57.9935 80.6429 57.9138 79.9888C57.8694 79.6235 57.847 79.2568 57.847 78.8986C57.8479 78.4713 57.6846 78.0832 57.3991 77.8233L31.679 54.3994C31.2524 54.0109 31.0466 53.438 31.1281 52.8669C31.2099 52.2958 31.5682 51.8034 32.0867 51.5502L53.5011 41.0923C53.9403 40.8776 54.4528 40.8586 54.9077 41.0391C55.3622 41.22 55.7213 41.5865 55.8931 42.0444L65.8222 68.5222C66.0271 69.0688 66.5527 69.4256 67.1493 69.4106C67.5992 69.4003 68.0555 69.4263 68.5103 69.4854C69.1523 69.5712 69.7581 69.2091 69.9828 68.6087L79.9445 42.0444C80.1163 41.5865 80.4754 41.22 80.9299 41.0391C81.3844 40.8587 81.8975 40.8778 82.3365 41.0923L103.751 51.5502C104.269 51.8034 104.628 52.2958 104.709 52.8673C104.791 53.438 104.585 54.0109 104.158 54.3994L77.2121 78.9402C76.9609 79.1688 76.8046 79.4811 76.7718 79.819C76.7647 79.892 76.7571 79.965 76.7483 80.0376C76.6744 80.6522 77.0563 81.2521 77.6563 81.464C91.323 86.2897 98.2863 98.0297 100.095 101.513C100.476 102.245 100.288 103.152 99.6495 103.67L81.759 118.176C81.441 118.434 81.0556 118.567 80.6652 118.567Z" fill="#4E95FF"/>
<path d="M231.764 156.195H156.632C153.523 156.195 150.992 153.664 150.992 150.555V112.327C150.992 109.217 153.523 106.687 156.632 106.687H231.764C234.874 106.687 237.404 109.217 237.404 112.327V150.555C237.404 153.664 234.874 156.195 231.764 156.195ZM156.632 107.416C153.925 107.416 151.722 109.619 151.722 112.327V150.555C151.722 153.262 153.925 155.465 156.632 155.465H231.764C234.472 155.465 236.675 153.262 236.675 150.555V112.327C236.675 109.619 234.472 107.416 231.764 107.416H156.632Z" fill="#3F3D56"/>
<path d="M201.74 106.731H188.903V156.151H201.74V106.731Z" fill="#4E95FF"/>
<path d="M237.04 125.344H151.357V138.18H237.04V125.344Z" fill="#4E95FF"/>
<path opacity="0.2" d="M191.693 139.748C192.046 139.839 192.414 139.893 192.793 139.906L207.414 155.961L214.153 142.162L197.935 136.08C198.044 135.664 198.107 135.231 198.107 134.781C198.107 134.542 198.085 134.309 198.054 134.079L214.153 128.042L207.414 114.243L193.367 129.666C193.237 129.656 193.106 129.646 192.973 129.646C192.53 129.646 192.103 129.708 191.693 129.814C188.738 120.36 179.816 116.489 179.816 116.489L170.188 128.363C177.27 127.655 184.52 131.979 187.862 134.317C187.848 134.47 187.838 134.624 187.838 134.781C187.838 134.937 187.848 135.092 187.862 135.245C184.52 137.583 177.27 141.907 170.188 141.199L179.816 153.073C179.816 153.073 188.738 149.202 191.693 139.748Z" fill="black"/>
<path d="M207.941 153.753C207.65 153.753 207.371 153.632 207.172 153.413L193.633 138.547C193.522 138.425 193.359 138.347 193.176 138.329L193.117 138.323C192.786 138.286 192.485 138.465 192.381 138.759C189.709 146.335 183.203 150.191 181.273 151.192C180.838 151.418 180.298 151.304 179.988 150.922L171.986 141.051C171.732 140.739 171.681 140.317 171.851 139.951C172.02 139.59 172.371 139.363 172.767 139.357C178.953 139.261 185.033 135.73 188.105 133.633C188.29 133.507 188.401 133.289 188.4 133.051C188.401 132.801 188.29 132.583 188.105 132.457C185.033 130.361 178.955 126.829 172.766 126.734C172.37 126.728 172.02 126.5 171.851 126.139C171.681 125.773 171.732 125.352 171.986 125.039L179.989 115.169C180.298 114.787 180.839 114.673 181.273 114.898C183.203 115.9 189.707 119.755 192.38 127.329C192.484 127.622 192.78 127.805 193.077 127.769C193.402 127.728 193.724 127.719 194.037 127.742L207.172 113.319C207.404 113.064 207.747 112.94 208.089 112.99C208.431 113.039 208.725 113.253 208.877 113.563L214.646 125.377C214.775 125.641 214.786 125.947 214.678 126.219C214.57 126.491 214.35 126.706 214.076 126.808L199.47 132.286C199.201 132.387 199.025 132.65 199.033 132.939L199.034 133.045C199.034 133.272 199.018 133.503 198.987 133.732C198.947 134.026 199.13 134.319 199.423 134.429L214.077 139.924C214.351 140.027 214.57 140.242 214.678 140.514C214.786 140.786 214.775 141.092 214.646 141.355L208.877 153.169C208.725 153.48 208.431 153.694 208.089 153.743C208.04 153.75 207.99 153.753 207.941 153.753Z" fill="#4E95FF"/>
<path d="M139.896 62.5988H128.146V58.7299C128.146 52.2449 133.411 46.9799 139.896 46.9799L139.896 62.5988Z" fill="#2F2E41"/>
<path d="M137.292 55.3764L139.312 64.4631L127.473 62.4974L132.298 53.9035L137.292 55.3764Z" fill="#FFB6B6"/>
<path opacity="0.1" d="M137.292 55.3764L139.312 64.4631L127.473 62.4974L132.298 53.9035L137.292 55.3764Z" fill="black"/>
<path d="M137.292 74.7876H125.942V91.5856H137.292V74.7876Z" fill="#FFB6B6"/>
<path d="M144.669 105.319L142.172 118.712C142.172 118.712 143.761 128.019 138.994 137.553L135.816 147.314L131.049 146.633C131.049 146.633 134 139.369 134 136.191C134 133.013 134.681 120.755 134.681 120.755L134.341 106.768L144.669 105.319Z" fill="#FFB6B6"/>
<path d="M130.368 146.406C130.368 146.406 135.816 144.363 136.27 147.314L136.043 148.676C136.043 148.676 138.086 154.805 135.135 155.259C132.184 155.713 129.46 156.394 129.233 155.032C129.006 153.67 129.01 151.97 129.575 150.777C130.141 149.584 130.368 146.406 130.368 146.406Z" fill="#2F2E41"/>
<path d="M127.485 103.242L126.159 116.801C126.159 116.801 122.044 125.299 123.972 135.782L124.31 146.042L129.078 146.714C129.078 146.714 128.264 138.916 129.147 135.863C130.031 132.81 132.786 120.846 132.786 120.846L137.003 107.506L127.485 103.242Z" fill="#FFB6B6"/>
<path d="M129.795 146.685C129.795 146.685 125.13 143.208 123.873 145.916L123.713 147.287C123.713 147.287 120.11 154.066 122.819 155.323C125.527 156.579 127.89 156.532 128.486 155.286C129.083 154.041 129.553 152.407 129.341 151.104C129.129 149.801 129.795 146.685 129.795 146.685Z" fill="#2F2E41"/>
<path d="M141.718 83.7541L151.479 104.411C151.479 104.411 131.844 114.286 120.267 114.286L126.015 83.7541L141.718 83.7541Z" fill="#2F2E41"/>
<path d="M132.979 59.5786L138.654 60.4866L138.2 74.7876L144.556 87.4996L136.384 91.5857C136.384 91.5857 130.028 79.5546 128.893 72.0636C127.758 64.5726 128.439 59.1246 128.439 59.1246L132.979 59.5786Z" fill="#E6E6E6"/>
<path d="M128.666 60.0326L122.991 60.9406L123.445 75.2416L122.083 88.4076L125.261 92.0396C125.261 92.0396 131.617 80.0086 132.752 72.5176C133.887 65.0266 133.206 59.5786 133.206 59.5786L128.666 60.0326Z" fill="#E6E6E6"/>
<path d="M137.405 60.8271L138.654 60.4866C138.654 60.4866 143.08 59.9191 143.761 61.7351C144.442 63.5511 144.215 74.2201 144.215 74.2201C144.215 74.2201 145.386 87.3147 140.828 87.4639C136.27 87.6131 137.178 76.7171 137.178 76.7171L137.405 60.8271Z" fill="#E6E6E6"/>
<path d="M135.311 57.8701C138.555 57.8701 141.186 55.2398 141.186 51.9951C141.186 48.7504 138.555 46.1201 135.311 46.1201C132.066 46.1201 129.436 48.7504 129.436 51.9951C129.436 55.2398 132.066 57.8701 135.311 57.8701Z" fill="#FFB6B6"/>
<path d="M133.473 60.0807C134.733 59.7609 136.162 61.107 136.665 63.0881C136.876 63.8767 136.896 64.7046 136.722 65.5023L137.264 67.7543L137.304 67.7522L141.575 77.8194C142.569 80.1602 142.464 82.8474 141.197 85.0521C140.443 86.3636 139.454 87.2453 138.292 86.3453C136.365 84.8518 135.106 76.3007 134.531 71.3886L133.202 66.3955C132.669 65.777 132.291 65.0398 132.101 64.2454C131.598 62.2651 132.213 60.4005 133.473 60.0807Z" fill="#FFB6B6"/>
<path d="M127.985 60.8271L126.736 60.4866C126.736 60.4866 122.31 59.9191 121.629 61.7351C120.948 63.5511 121.175 74.2201 121.175 74.2201C121.175 74.2201 120.003 87.3147 124.561 87.4639C129.12 87.6131 128.212 76.7171 128.212 76.7171L127.985 60.8271Z" fill="#E6E6E6"/>
<path d="M131.917 60.0807C130.657 59.7609 129.228 61.107 128.725 63.0881C128.513 63.8767 128.494 64.7046 128.667 65.5023L128.126 67.7543L128.086 67.7522L123.814 77.8194C122.821 80.1602 122.926 82.8474 124.193 85.0521C124.946 86.3636 125.936 87.2453 127.097 86.3453C129.025 84.8518 130.284 76.3007 130.859 71.3886L132.188 66.3955C132.721 65.777 133.099 65.0398 133.289 64.2454C133.792 62.2651 133.177 60.4005 131.917 60.0807Z" fill="#FFB6B6"/>
<path d="M124.063 56.7481C124.362 55.8394 124.952 55.0439 125.216 54.1245C125.566 52.9038 126.312 55.6119 126.385 54.344C126.524 51.934 130.202 45.7347 132.302 44.5439C134.401 43.3531 135.607 43.7121 137.747 44.8305C137.747 44.8305 138.785 44.8965 140.078 45.5348C141.371 46.1731 142.534 47.1953 143.037 48.5465C143.436 49.6176 143.392 50.7938 143.525 51.9288C143.896 55.0909 145.668 58.0982 145.288 61.2592C145.169 62.2454 144.794 63.2652 143.988 63.8453C143.182 64.4254 141.879 64.3623 141.348 63.5226C141.167 63.2361 141.091 62.8962 140.935 62.5948C140.78 62.2935 140.5 62.0126 140.161 62.022C139.652 62.0361 139.392 62.7195 139.593 63.1877C139.794 63.656 140.266 63.9387 140.709 64.1901C139.654 64.6649 138.345 64.5171 137.422 63.8189C136.499 63.1207 136 61.9011 136.17 60.7564C136.41 59.1433 138.759 59.4772 139.036 57.8701C139.238 56.7002 139.946 54.7427 139.753 53.5713C139.56 52.4 138.634 53.8183 139.609 53.1415C138.537 53.6587 136.241 50.1201 135.118 49.7238C133.995 49.3274 133.042 48.4692 132.532 47.3931C131.34 49.1202 130.292 48.6512 129.866 50.7055C129.439 52.7598 129.833 57.4269 131.59 58.5738C130.887 59.0536 130.327 59.7396 129.997 60.5243C129.81 60.9688 129.689 61.4551 129.379 61.8243C128.786 62.5294 127.692 62.5723 126.82 62.2759C125.739 61.9082 124.815 61.1008 124.305 60.0789C123.795 59.057 123.706 57.8329 124.063 56.7481Z" fill="#2F2E41"/>
</g>
<defs>
<clipPath id="clip0_749_14669">
<rect width="250" height="156.243" fill="white"/>
</clipPath>
</defs>
</svg>
