<svg width="30" height="30" viewBox="0 0 30 30" fill="none" xmlns="http://www.w3.org/2000/svg">
<g clip-path="url(#clip0_3023_12907)">
<path d="M10.8909 5.99988H7.3692C7.04505 5.99988 6.78223 6.26267 6.78223 6.58685V23.4129C6.78223 23.7371 7.04502 23.9999 7.3692 23.9999H10.8909C11.215 23.9999 11.4779 23.7371 11.4779 23.4129V6.58685C11.4779 6.26267 11.2151 5.99988 10.8909 5.99988ZM10.304 22.826H7.95613V7.17378H10.304V22.826Z" fill="#898989"/>
<path d="M16.765 15.391H13.2432C12.9191 15.391 12.6562 15.6538 12.6562 15.978V23.4127C12.6562 23.7369 12.919 23.9997 13.2432 23.9997H16.765C17.0891 23.9997 17.3519 23.7369 17.3519 23.4127V15.978C17.3519 15.6538 17.0891 15.391 16.765 15.391ZM16.178 22.8258H13.8302V16.5649H16.178V22.8258Z" fill="#898989"/>
<path d="M22.6331 10.6954H19.1114C18.7872 10.6954 18.5244 10.9582 18.5244 11.2824V23.4128C18.5244 23.737 18.7872 23.9998 19.1114 23.9998H22.6331C22.9573 23.9998 23.2201 23.737 23.2201 23.4128V11.2824C23.2201 10.9582 22.9573 10.6954 22.6331 10.6954ZM22.0462 22.8259H19.6983V11.8694H22.0462V22.8259Z" fill="#898989"/>
</g>
<defs>
<clipPath id="clip0_3023_12907">
<rect width="18" height="18" fill="white" transform="translate(6 6)"/>
</clipPath>
</defs>
</svg>
