<svg width="30" height="30" viewBox="0 0 30 30" fill="none" xmlns="http://www.w3.org/2000/svg">
<g clip-path="url(#clip0_3023_12880)">
<path d="M7.66667 12.2498H22.3333M11.3333 12.2498V22.3332M9.68333 22.3332H20.3167C21.3434 22.3332 21.8569 22.3332 22.249 22.1333C22.5939 21.9576 22.8744 21.6771 23.0502 21.3322C23.25 20.94 23.25 20.4266 23.25 19.3998V10.5998C23.25 9.57308 23.25 9.05969 23.0502 8.66752C22.8744 8.32255 22.5939 8.04209 22.249 7.86633C21.8569 7.6665 21.3434 7.6665 20.3167 7.6665H9.68333C8.65657 7.6665 8.14319 7.6665 7.75102 7.86633C7.40605 8.04209 7.12559 8.32255 6.94982 8.66752C6.75 9.05969 6.75 9.57307 6.75 10.5998V19.3998C6.75 20.4266 6.75 20.94 6.94982 21.3322C7.12559 21.6771 7.40605 21.9576 7.75102 22.1333C8.14319 22.3332 8.65657 22.3332 9.68333 22.3332Z" stroke="#898989" stroke-width="1.83333" stroke-linecap="round" stroke-linejoin="round"/>
</g>
<defs>
<clipPath id="clip0_3023_12880">
<rect width="18" height="18" fill="white" transform="translate(6 6)"/>
</clipPath>
</defs>
</svg>
