<svg width="42" height="42" viewBox="0 0 42 42" fill="none" xmlns="http://www.w3.org/2000/svg">
<circle cx="21" cy="21" r="21" fill="#25A8E0" fill-opacity="0.1"/>
<path opacity="0.5" d="M11 20.25C11 17.3505 13.0147 15 15.5 15C17.9853 15 20 17.3505 20 20.25V29H13.2326C11.9996 29 11 27.8339 11 26.3953V20.25Z" fill="#25A8E0"/>
<path opacity="0.8" d="M20 20.25V29H23H24H28.7931C30.0119 29 31 27.8473 31 26.4253V20.25C31 17.3505 28.9853 15 26.5 15H15.5C17.9853 15 20 17.3505 20 20.25Z" fill="#25A8E0"/>
<path d="M18.5 29V31C18.5 31.4142 18.8358 31.75 19.25 31.75C19.6642 31.75 20 31.4142 20 31V29H18.5Z" fill="#25A8E0"/>
<path d="M24 29H22.5V31C22.5 31.4142 22.8358 31.75 23.25 31.75C23.6642 31.75 24 31.4142 24 31V29Z" fill="#25A8E0"/>
<path fill-rule="evenodd" clip-rule="evenodd" d="M13.25 25C13.25 24.5858 13.5858 24.25 14 24.25H17C17.4142 24.25 17.75 24.5858 17.75 25C17.75 25.4142 17.4142 25.75 17 25.75H14C13.5858 25.75 13.25 25.4142 13.25 25Z" fill="#25A8E0"/>
<path fill-rule="evenodd" clip-rule="evenodd" d="M26.3846 15.5847L26.6407 15.5334C27.0564 15.4502 27.4863 15.49 27.8814 15.6481C28.5717 15.9245 29.3266 15.9762 30.0458 15.7962L30.1073 15.7808C30.6309 15.6497 31 15.163 31 14.6034V12.4728C31 11.735 30.3358 11.1914 29.6454 11.3642C29.249 11.4634 28.8329 11.435 28.4523 11.2826L28.3793 11.2533C27.7422 10.9983 27.0491 10.9342 26.3787 11.0684L25.93 11.1582C25.3901 11.2663 25 11.7572 25 12.3285V19.2807C25 19.678 25.31 20 25.6923 20C26.0747 20 26.3846 19.678 26.3846 19.2807V15.5847Z" fill="#25A8E0"/>
</svg>
