<svg width="19" height="20" viewBox="0 0 19 20" fill="none" xmlns="http://www.w3.org/2000/svg">
<g clip-path="url(#clip0_918_10541)">
<path d="M14.1875 9.97293H10.75V6.97293H9.625C9.97323 6.50806 10.1603 5.94229 10.1579 5.36146C10.1579 4.49771 9.74922 3.68612 9.09128 3.24346L8.81216 3.05565L8.53306 3.24346C7.875 3.68618 7.46641 4.49774 7.46641 5.36146C7.46406 5.9423 7.65122 6.50805 7.9995 6.9729H6.75V9.9729H3.8125C3.33196 9.97344 2.87126 10.1646 2.53147 10.5044C2.19168 10.8442 2.00055 11.3049 2 11.7854V17.4083C2.0003 17.6735 2.10575 17.9276 2.29322 18.1151C2.48069 18.3026 2.73487 18.408 3 18.4083H15C15.2651 18.408 15.5193 18.3026 15.7068 18.1151C15.8942 17.9276 15.9997 17.6735 16 17.4083V11.7854C15.9995 11.3049 15.8083 10.8442 15.4685 10.5044C15.1287 10.1646 14.668 9.97348 14.1875 9.97293ZM8.81216 4.33152C9.03059 4.6029 9.15794 4.97109 9.15794 5.36149C9.15794 5.7519 9.03059 6.12012 8.81216 6.39146C8.59375 6.12012 8.46641 5.7519 8.46641 5.36146C8.46641 4.97102 8.59375 4.6029 8.81216 4.33152ZM7.75 7.97293H9.75V9.97293H7.75V7.97293ZM3 11.7854C3.00025 11.57 3.08593 11.3635 3.23825 11.2112C3.39057 11.0589 3.59709 10.9732 3.8125 10.9729H14.1875C14.4029 10.9732 14.6094 11.0589 14.7618 11.2112C14.9141 11.3635 14.9998 11.57 15 11.7854V12.7722L14.325 13.0701C14.193 13.1281 14.0503 13.1581 13.9061 13.1581C13.7619 13.1581 13.6192 13.1281 13.4872 13.0701L12.3125 12.5517L11.1375 13.07C11.0055 13.1281 10.8628 13.1581 10.7186 13.1581C10.5744 13.1581 10.4317 13.1281 10.2997 13.07L9.125 12.5517L7.95 13.07C7.81798 13.1281 7.67533 13.1581 7.53109 13.1581C7.38686 13.1581 7.2442 13.1281 7.11219 13.07L5.9375 12.5517L4.76272 13.07C4.6307 13.1281 4.48805 13.1581 4.34381 13.1581C4.19958 13.1581 4.05692 13.1281 3.92491 13.07L3 12.662V11.7854ZM15 17.4083H3V13.755L3.52119 13.9849C3.78042 14.099 4.06054 14.1579 4.34375 14.1579C4.62696 14.1579 4.90708 14.099 5.16631 13.9849L5.9375 13.6447L6.70872 13.9849C6.96794 14.099 7.24806 14.1579 7.53127 14.1579C7.81448 14.1579 8.09459 14.099 8.35381 13.9849L9.125 13.6447L9.89616 13.9849C10.1554 14.099 10.4355 14.1579 10.7187 14.1579C11.0019 14.1579 11.282 14.099 11.5412 13.9849L12.3125 13.6447L13.0837 13.985C13.3429 14.099 13.623 14.1579 13.9062 14.1579C14.1894 14.1579 14.4695 14.099 14.7287 13.985L15.0004 13.8651L15.0006 17.4083H15Z" fill="#25A8E0"/>
</g>
<defs>
<clipPath id="clip0_918_10541">
<rect width="16" height="16" fill="white" transform="translate(1 2.90845)"/>
</clipPath>
</defs>
</svg>
