<svg width="21" height="20" viewBox="0 0 21 20" fill="none" xmlns="http://www.w3.org/2000/svg">
<path d="M16.3333 2.5H4.66667C3.75 2.5 3 3.25 3 4.16667V15.8333C3 16.75 3.75 17.5 4.66667 17.5H16.3333C17.25 17.5 18 16.75 18 15.8333V4.16667C18 3.25 17.25 2.5 16.3333 2.5ZM16.3333 15.8333H14.8917L16.3333 14.3917V15.8333ZM16.3333 13.3333H15.625L13.125 15.8333H11.775L14.275 13.3333H12.5083L10.0083 15.8333H8.66667L11.1667 13.3333H9.4L6.9 15.8333H5.36667L7.86667 13.3333H6.1L4.66667 14.7667V4.16667H16.3333V13.3333Z" fill="#ffffff"/>
<path d="M9.39167 9.16667L11.0583 10.8333L15.2917 6.59167L14.1167 5.41667L11.0583 8.475L9.39167 6.80833L5.70833 10.4917L6.88333 11.6667L9.39167 9.16667Z" fill="#ffffff"/>
</svg>
