<svg width="48" height="49" viewBox="0 0 48 49" fill="none" xmlns="http://www.w3.org/2000/svg">
<circle cx="24" cy="24.4084" r="24" fill="#25A8E0" fill-opacity="0.1"/>
<path d="M19.4283 28.5131C19.4283 28.21 19.3079 27.9193 19.0936 27.705C18.8792 27.4906 18.5885 27.3702 18.2854 27.3702C17.9823 27.3702 17.6916 27.4906 17.4773 27.705C17.263 27.9193 17.1426 28.21 17.1426 28.5131C17.1444 30.028 17.747 31.4804 18.8183 32.5517C19.8895 33.6229 21.3419 34.2256 22.8569 34.2274V35.3702C22.8569 35.6733 22.9773 35.964 23.1916 36.1783C23.4059 36.3927 23.6966 36.5131 23.9997 36.5131C24.3028 36.5131 24.5935 36.3927 24.8078 36.1783C25.0222 35.964 25.1426 35.6733 25.1426 35.3702V34.2274C26.6581 34.2274 28.1116 33.6253 29.1832 32.5537C30.2548 31.4821 30.8569 30.0286 30.8569 28.5131C30.8569 26.9976 30.2548 25.5441 29.1832 24.4725C28.1116 23.4008 26.6581 22.7988 25.1426 22.7988V15.9417C26.0519 15.9417 26.924 16.3029 27.5669 16.9459C28.2099 17.5888 28.5711 18.4609 28.5711 19.3702C28.5711 19.6733 28.6916 19.964 28.9059 20.1783C29.1202 20.3927 29.4109 20.5131 29.714 20.5131C30.0171 20.5131 30.3078 20.3927 30.5221 20.1783C30.7365 19.964 30.8569 19.6733 30.8569 19.3702C30.8551 17.8553 30.2524 16.4029 29.1812 15.3316C28.1099 14.2604 26.6575 13.6578 25.1426 13.6559V12.5131C25.1426 12.21 25.0222 11.9193 24.8078 11.705C24.5935 11.4906 24.3028 11.3702 23.9997 11.3702C23.6966 11.3702 23.4059 11.4906 23.1916 11.705C22.9773 11.9193 22.8569 12.21 22.8569 12.5131V13.6559C21.3413 13.6559 19.8879 14.258 18.8163 15.3296C17.7446 16.4012 17.1426 17.8547 17.1426 19.3702C17.1426 20.8857 17.7446 22.3392 18.8163 23.4108C19.8879 24.4825 21.3413 25.0845 22.8569 25.0845V31.9417C21.9476 31.9417 21.0755 31.5804 20.4325 30.9374C19.7895 30.2945 19.4283 29.4224 19.4283 28.5131ZM25.1426 25.0845C26.0519 25.0845 26.924 25.4457 27.5669 26.0887C28.2099 26.7317 28.5711 27.6038 28.5711 28.5131C28.5711 29.4224 28.2099 30.2945 27.5669 30.9374C26.924 31.5804 26.0519 31.9417 25.1426 31.9417V25.0845ZM19.4283 19.3702C19.4283 18.4609 19.7895 17.5888 20.4325 16.9459C21.0755 16.3029 21.9476 15.9417 22.8569 15.9417V22.7988C21.9476 22.7988 21.0755 22.4376 20.4325 21.7946C19.7895 21.1516 19.4283 20.2795 19.4283 19.3702Z" fill="#25A8E0"/>
</svg>
