<svg width="48" height="49" viewBox="0 0 48 49" fill="none" xmlns="http://www.w3.org/2000/svg">
<g clip-path="url(#clip0_727_11783)">
<path d="M34.2857 20.513C34.2857 14.8414 29.6716 10.2274 24 10.2274C18.3285 10.2274 13.7144 14.8414 13.7144 20.513C13.7144 24.0949 15.5552 27.2544 18.34 29.0968V37.0844C18.34 37.3049 18.467 37.5059 18.6662 37.6005C18.7443 37.6377 18.8281 37.6559 18.9115 37.6559C19.0405 37.6559 19.1685 37.6122 19.2724 37.5276L23.9999 33.6783L28.7275 37.5274C28.8987 37.6667 29.1348 37.695 29.3339 37.6002C29.5332 37.5053 29.6601 37.3042 29.6599 37.0835L29.6516 29.1024C32.4411 27.2608 34.2857 24.0985 34.2857 20.513ZM24.3608 32.498C24.1506 32.3269 23.8492 32.3269 23.6391 32.498L19.4831 35.8819V29.7521C20.8474 30.4219 22.3804 30.7986 24 30.7986C25.6165 30.7986 27.1469 30.4234 28.5093 29.756L28.5156 35.8808L24.3608 32.498ZM24 29.6556C18.9588 29.6556 14.8574 25.5542 14.8574 20.513C14.8574 15.4718 18.9588 11.3704 24 11.3704C29.0412 11.3704 33.1426 15.4718 33.1426 20.513C33.1426 25.5542 29.0412 29.6556 24 29.6556Z" fill="#4E95FF"/>
<path d="M24.5716 13.0845C24.5716 12.7688 24.3158 12.5129 24.0001 12.5129C19.5888 12.5129 16 16.1017 16 20.513C16 20.6337 16.0029 20.7571 16.0085 20.8797C16.0226 21.186 16.2754 21.425 16.5789 21.425C16.5877 21.425 16.5967 21.4248 16.6056 21.4243C16.921 21.4098 17.1648 21.1424 17.1503 20.8272C17.1454 20.7219 17.1429 20.6162 17.1429 20.513C17.1429 16.732 20.219 13.6559 24 13.6559C24.3158 13.656 24.5716 13.4001 24.5716 13.0845Z" fill="#4E95FF"/>
<path d="M31.9915 20.1462C31.9769 19.8309 31.7086 19.5851 31.3942 19.6017C31.0788 19.6163 30.835 19.8837 30.8497 20.199C30.8544 20.302 30.8568 20.4076 30.8568 20.513C30.8568 24.294 27.7808 27.37 23.9998 27.37C23.6842 27.37 23.4282 27.6259 23.4282 27.9416C23.4282 28.2572 23.6841 28.5131 23.9998 28.5131C28.4111 28.5131 31.9998 24.9243 31.9998 20.5131C31.9999 20.3901 31.9971 20.2667 31.9915 20.1462Z" fill="#4E95FF"/>
<path d="M23.9997 25.2607C23.9998 25.2607 23.9999 25.2607 24 25.2607C24.1806 25.2607 24.3507 25.1753 24.4585 25.0304L25.671 23.4012L27.6824 23.1689C27.8619 23.1482 28.0211 23.0437 28.1115 22.8871C28.202 22.7306 28.2131 22.5406 28.1415 22.3746L27.3369 20.5101L28.1413 18.6519C28.2131 18.4861 28.2021 18.296 28.1119 18.1394C28.0216 17.9828 27.8625 17.8781 27.683 17.8572L25.6659 17.6216L24.4589 15.996C24.3512 15.8509 24.1811 15.7654 24.0003 15.7652C24.0002 15.7652 24.0001 15.7652 24 15.7652C23.8194 15.7652 23.6494 15.8506 23.5416 15.9955L22.3292 17.6247L20.3179 17.857C20.1384 17.8777 19.9793 17.9822 19.8887 18.1388C19.7983 18.2953 19.7871 18.4853 19.8588 18.6513L20.6634 20.5158L19.859 22.374C19.7873 22.5398 19.7982 22.7299 19.8884 22.8865C19.9787 23.0431 20.1378 23.1477 20.3173 23.1687L22.3343 23.4043L23.5413 25.0299C23.6489 25.175 23.8189 25.2605 23.9997 25.2607ZM22.712 22.2976L21.2134 22.1226L21.8104 20.7433C21.873 20.5986 21.8731 20.4345 21.8106 20.2898L21.2128 18.9044L22.7058 18.7319C22.8624 18.7139 23.0046 18.6318 23.0987 18.5054L23.9996 17.2949L24.8954 18.5015C24.9894 18.628 25.1315 18.7101 25.288 18.7285L26.7868 18.9035L26.1898 20.2828C26.1272 20.4274 26.1271 20.5915 26.1895 20.7363L26.7874 22.1217L25.2944 22.2942C25.1379 22.3122 24.9956 22.3943 24.9016 22.5207L24.0006 23.7312L23.1047 22.5246C23.0106 22.3979 22.8686 22.3158 22.712 22.2976Z" fill="#4E95FF"/>
<path d="M17.3707 22.2659C17.2845 21.9622 16.968 21.7845 16.6644 21.8708C16.3608 21.9571 16.1842 22.2717 16.2704 22.5753L16.2748 22.5917C16.3463 22.8434 16.576 23.0086 16.8255 23.0086C16.8769 23.0086 16.9291 23.0016 16.9812 22.9868C17.2848 22.9006 17.4614 22.5859 17.3753 22.2823L17.3707 22.2659Z" fill="#4E95FF"/>
<path d="M31.1786 19.1756C31.225 19.1756 31.2723 19.1699 31.3192 19.158C31.6252 19.0806 31.8106 18.7697 31.7331 18.4637C31.7309 18.4551 31.7286 18.4461 31.7262 18.4373C31.6417 18.1332 31.3267 17.9556 31.0226 18.0401C30.7184 18.1246 30.5405 18.4401 30.625 18.7442C30.6905 19.0032 30.9231 19.1756 31.1786 19.1756Z" fill="#4E95FF"/>
</g>
<defs>
<clipPath id="clip0_727_11783">
<rect width="27.4286" height="27.4286" fill="white" transform="translate(10.2861 10.2274)"/>
</clipPath>
</defs>
</svg>
