<svg width="42" height="42" viewBox="0 0 42 42" fill="none" xmlns="http://www.w3.org/2000/svg">
<circle cx="21" cy="21" r="21" fill="#DC3835" fill-opacity="0.1"/>
<path opacity="0.4" d="M30.0901 30.5C30.0901 30.78 29.8701 31 29.5901 31H12.4102C12.1302 31 11.9102 30.78 11.9102 30.5C11.9102 26.36 15.9901 23 21.0002 23C22.0302 23 23.0302 23.14 23.9502 23.41C23.3602 24.11 23.0002 25.02 23.0002 26C23.0002 26.75 23.2101 27.46 23.5801 28.06C23.7801 28.4 24.0401 28.71 24.3401 28.97C25.0401 29.61 25.9702 30 27.0002 30C28.1202 30 29.1302 29.54 29.8502 28.8C30.0102 29.34 30.0901 29.91 30.0901 30.5Z" fill="#DC3835"/>
<path d="M30.8807 25.04C30.7807 24.65 30.6207 24.26 30.4007 23.91C30.2507 23.65 30.0507 23.4 29.8307 23.17C29.1107 22.45 28.1707 22.06 27.2107 22.01C26.1207 21.94 25.0107 22.34 24.1707 23.17C23.3807 23.96 22.9807 25.01 23.0007 26.06C23.0107 27.06 23.4107 28.06 24.1707 28.83C24.7007 29.36 25.3507 29.71 26.0407 29.87C26.4207 29.97 26.8207 30.01 27.2207 29.98C28.1707 29.94 29.1007 29.56 29.8307 28.83C30.8607 27.8 31.2107 26.35 30.8807 25.04ZM28.6007 27.6C28.3107 27.89 27.8307 27.89 27.5407 27.6L26.9907 27.05L26.4607 27.58C26.1707 27.87 25.6907 27.87 25.4007 27.58C25.1107 27.28 25.1107 26.81 25.4007 26.52L25.9307 25.99L25.4207 25.49C25.1307 25.19 25.1307 24.72 25.4207 24.42C25.7207 24.13 26.1907 24.13 26.4907 24.42L26.9907 24.93L27.5207 24.4C27.8107 24.11 28.2807 24.11 28.5807 24.4C28.8707 24.69 28.8707 25.17 28.5807 25.46L28.0507 25.99L28.6007 26.54C28.8907 26.83 28.8907 27.31 28.6007 27.6Z" fill="#DC3835"/>
<path d="M21 21C23.7614 21 26 18.7614 26 16C26 13.2386 23.7614 11 21 11C18.2386 11 16 13.2386 16 16C16 18.7614 18.2386 21 21 21Z" fill="#DC3835"/>
</svg>
