<svg width="18" height="18" viewBox="0 0 18 18" fill="none" xmlns="http://www.w3.org/2000/svg">
<path d="M13.875 17.25H3.375C2.55 17.25 1.875 16.575 1.875 15.75V5.25H3.375V15.75H13.875V17.25ZM11.25 5.25V3.75H9.75V5.25H8.25V6.75H9.75V8.25H11.25V6.75H12.75V5.25H11.25ZM12.75 9.75H8.25V11.25H12.75V9.75ZM11.625 0.75H6.375C5.55 0.75 4.8825 1.425 4.8825 2.25L4.875 12.75C4.875 13.575 5.5425 14.25 6.3675 14.25H14.625C15.45 14.25 16.125 13.575 16.125 12.75V5.25L11.625 0.75ZM14.625 12.75H6.375V2.25H11.0025L14.625 5.8725V12.75Z" fill="#952EDB"/>
</svg>
