<svg width="20" height="20" viewBox="0 0 20 20" fill="none" xmlns="http://www.w3.org/2000/svg">
<path d="M17.5002 7.08317C16.2918 7.08317 15.6168 8.28317 15.8918 9.17484L12.9335 12.1415C12.6835 12.0665 12.3168 12.0665 12.0668 12.1415L9.94183 10.0165C10.2252 9.12484 9.55016 7.9165 8.3335 7.9165C7.12516 7.9165 6.44183 9.1165 6.72516 10.0165L2.92516 13.8082C2.0335 13.5332 0.833496 14.2082 0.833496 15.4165C0.833496 16.3332 1.5835 17.0832 2.50016 17.0832C3.7085 17.0832 4.3835 15.8832 4.1085 14.9915L7.90016 11.1915C8.15016 11.2665 8.51683 11.2665 8.76683 11.1915L10.8918 13.3165C10.6085 14.2082 11.2835 15.4165 12.5002 15.4165C13.7085 15.4165 14.3918 14.2165 14.1085 13.3165L17.0752 10.3582C17.9668 10.6332 19.1668 9.95817 19.1668 8.74984C19.1668 7.83317 18.4168 7.08317 17.5002 7.08317Z" fill="#ffffff"/>
<path d="M12.5002 7.9165L13.2835 6.1915L15.0002 5.4165L13.2835 4.6415L12.5002 2.9165L11.7335 4.6415L10.0002 5.4165L11.7335 6.1915L12.5002 7.9165Z" fill="#ffffff"/>
<path d="M2.91683 9.58317L3.3335 7.9165L5.00016 7.49984L3.3335 7.08317L2.91683 5.4165L2.50016 7.08317L0.833496 7.49984L2.50016 7.9165L2.91683 9.58317Z" fill="#ffffff"/>
</svg>
