<svg width="18" height="19" viewBox="0 0 18 19" fill="none" xmlns="http://www.w3.org/2000/svg">
<path d="M16.4996 13.0985V15.3485C16.5004 15.5573 16.4576 15.7641 16.374 15.9555C16.2903 16.1469 16.1676 16.3187 16.0136 16.4599C15.8597 16.6011 15.678 16.7086 15.4801 16.7755C15.2823 16.8424 15.0726 16.8673 14.8646 16.8485C12.5567 16.5977 10.3398 15.8091 8.39208 14.546C6.57995 13.3945 5.04359 11.8581 3.89208 10.046C2.62457 8.08936 1.83577 5.8617 1.58958 3.54346C1.57084 3.33606 1.59549 3.12703 1.66196 2.92968C1.72843 2.73233 1.83526 2.55098 1.97566 2.39717C2.11605 2.24337 2.28694 2.12049 2.47743 2.03635C2.66792 1.95221 2.87384 1.90866 3.08208 1.90846H5.33208C5.69606 1.90488 6.04893 2.03377 6.3249 2.27111C6.60088 2.50845 6.78114 2.83804 6.83208 3.19846C6.92705 3.91851 7.10317 4.6255 7.35708 5.30596C7.45799 5.5744 7.47983 5.86614 7.42001 6.14662C7.3602 6.42709 7.22123 6.68454 7.01958 6.88846L6.06708 7.84096C7.13475 9.71862 8.68942 11.2733 10.5671 12.341L11.5196 11.3885C11.7235 11.1868 11.9809 11.0478 12.2614 10.988C12.5419 10.9282 12.8336 10.9501 13.1021 11.051C13.7825 11.3049 14.4895 11.481 15.2096 11.576C15.5739 11.6274 15.9066 11.8109 16.1445 12.0916C16.3823 12.3723 16.5087 12.7306 16.4996 13.0985Z" stroke="#898989" stroke-width="1.5" stroke-linecap="round" stroke-linejoin="round"/>
</svg>
