<svg width="18" height="18" viewBox="0 0 18 18" fill="none" xmlns="http://www.w3.org/2000/svg">
<path d="M8.9915 0.666992C4.3915 0.666992 0.666504 4.40033 0.666504 9.00033C0.666504 13.6003 4.3915 17.3337 8.9915 17.3337C13.5998 17.3337 17.3332 13.6003 17.3332 9.00033C17.3332 4.40033 13.5998 0.666992 8.9915 0.666992ZM14.7665 5.66699H12.3082C12.0415 4.62533 11.6582 3.62533 11.1582 2.70033C12.6915 3.22533 13.9665 4.29199 14.7665 5.66699ZM8.99984 2.36699C9.6915 3.36699 10.2332 4.47533 10.5915 5.66699H7.40817C7.7665 4.47533 8.30817 3.36699 8.99984 2.36699ZM2.54984 10.667C2.4165 10.1337 2.33317 9.57533 2.33317 9.00033C2.33317 8.42533 2.4165 7.86699 2.54984 7.33366H5.3665C5.29984 7.88366 5.24984 8.43366 5.24984 9.00033C5.24984 9.56699 5.29984 10.117 5.3665 10.667H2.54984ZM3.23317 12.3337H5.6915C5.95817 13.3753 6.3415 14.3753 6.8415 15.3003C5.30817 14.7753 4.03317 13.717 3.23317 12.3337ZM5.6915 5.66699H3.23317C4.03317 4.28366 5.30817 3.22533 6.8415 2.70033C6.3415 3.62533 5.95817 4.62533 5.6915 5.66699ZM8.99984 15.6337C8.30817 14.6337 7.7665 13.5253 7.40817 12.3337H10.5915C10.2332 13.5253 9.6915 14.6337 8.99984 15.6337ZM10.9498 10.667H7.04984C6.97484 10.117 6.9165 9.56699 6.9165 9.00033C6.9165 8.43366 6.97484 7.87533 7.04984 7.33366H10.9498C11.0248 7.87533 11.0832 8.43366 11.0832 9.00033C11.0832 9.56699 11.0248 10.117 10.9498 10.667ZM11.1582 15.3003C11.6582 14.3753 12.0415 13.3753 12.3082 12.3337H14.7665C13.9665 13.7087 12.6915 14.7753 11.1582 15.3003ZM12.6332 10.667C12.6998 10.117 12.7498 9.56699 12.7498 9.00033C12.7498 8.43366 12.6998 7.88366 12.6332 7.33366H15.4498C15.5832 7.86699 15.6665 8.42533 15.6665 9.00033C15.6665 9.57533 15.5832 10.1337 15.4498 10.667H12.6332Z" fill="#898989"/>
</svg>
