<svg width="19" height="18" viewBox="0 0 19 18" fill="none" xmlns="http://www.w3.org/2000/svg">
<path d="M2.41667 14.4167V5.25H15.75V7.99167C16.35 8.175 16.9167 8.44167 17.4167 8.8V5.25C17.4167 4.325 16.675 3.58333 15.75 3.58333H12.4167V1.91667C12.4167 0.991667 11.675 0.25 10.75 0.25H7.41667C6.49167 0.25 5.75 0.991667 5.75 1.91667V3.58333H2.41667C1.49167 3.58333 0.758333 4.325 0.758333 5.25L0.75 14.4167C0.75 15.3417 1.49167 16.0833 2.41667 16.0833H8.81667C8.56667 15.5667 8.4 15.0083 8.31667 14.4167H2.41667ZM7.41667 1.91667H10.75V3.58333H7.41667V1.91667Z" fill="white"/>
<path d="M14.0833 9.41667C11.7833 9.41667 9.91667 11.2833 9.91667 13.5833C9.91667 15.8833 11.7833 17.75 14.0833 17.75C16.3833 17.75 18.25 15.8833 18.25 13.5833C18.25 11.2833 16.3833 9.41667 14.0833 9.41667ZM15.4583 15.5417L13.6667 13.75V11.0833H14.5V13.4083L16.0417 14.95L15.4583 15.5417Z" fill="white"/>
</svg>
