<svg width="736" height="261" viewBox="0 0 736 261" fill="none" xmlns="http://www.w3.org/2000/svg">
<path d="M0.948 30V29.184H2.7V23.544H1.308V22.908C1.66 22.844 1.964 22.768 2.22 22.68C2.484 22.584 2.72 22.472 2.928 22.344H3.684V29.184H5.268V30H0.948ZM8.95284 30.144C8.18484 30.144 7.58084 29.8 7.14084 29.112C6.70884 28.416 6.49284 27.428 6.49284 26.148C6.49284 24.86 6.70884 23.88 7.14084 23.208C7.58084 22.536 8.18484 22.2 8.95284 22.2C9.71284 22.2 10.3088 22.536 10.7408 23.208C11.1808 23.88 11.4008 24.86 11.4008 26.148C11.4008 27.428 11.1808 28.416 10.7408 29.112C10.3088 29.8 9.71284 30.144 8.95284 30.144ZM8.95284 29.352C9.40084 29.352 9.76084 29.1 10.0328 28.596C10.3048 28.084 10.4408 27.268 10.4408 26.148C10.4408 25.028 10.3048 24.224 10.0328 23.736C9.76084 23.24 9.40084 22.992 8.95284 22.992C8.50484 22.992 8.14084 23.24 7.86084 23.736C7.58884 24.224 7.45284 25.028 7.45284 26.148C7.45284 27.268 7.58884 28.084 7.86084 28.596C8.14084 29.1 8.50484 29.352 8.95284 29.352ZM14.9177 30.144C14.1497 30.144 13.5457 29.8 13.1057 29.112C12.6737 28.416 12.4577 27.428 12.4577 26.148C12.4577 24.86 12.6737 23.88 13.1057 23.208C13.5457 22.536 14.1497 22.2 14.9177 22.2C15.6777 22.2 16.2737 22.536 16.7057 23.208C17.1457 23.88 17.3657 24.86 17.3657 26.148C17.3657 27.428 17.1457 28.416 16.7057 29.112C16.2737 29.8 15.6777 30.144 14.9177 30.144ZM14.9177 29.352C15.3657 29.352 15.7257 29.1 15.9977 28.596C16.2697 28.084 16.4057 27.268 16.4057 26.148C16.4057 25.028 16.2697 24.224 15.9977 23.736C15.7257 23.24 15.3657 22.992 14.9177 22.992C14.4697 22.992 14.1057 23.24 13.8257 23.736C13.5537 24.224 13.4177 25.028 13.4177 26.148C13.4177 27.268 13.5537 28.084 13.8257 28.596C14.1057 29.1 14.4697 29.352 14.9177 29.352Z" fill="#292C35"/>
<path d="M3 70.144C2.52 70.144 2.092 70.056 1.716 69.88C1.34 69.696 1.04 69.444 0.816 69.124C0.6 68.804 0.492 68.444 0.492 68.044C0.492 67.708 0.56 67.412 0.696 67.156C0.84 66.892 1.02 66.664 1.236 66.472C1.46 66.272 1.692 66.108 1.932 65.98V65.932C1.652 65.732 1.404 65.488 1.188 65.2C0.972 64.912 0.864 64.568 0.864 64.168C0.864 63.776 0.96 63.432 1.152 63.136C1.344 62.84 1.604 62.612 1.932 62.452C2.26 62.284 2.628 62.2 3.036 62.2C3.7 62.2 4.224 62.392 4.608 62.776C5 63.16 5.196 63.648 5.196 64.24C5.196 64.504 5.14 64.756 5.028 64.996C4.916 65.228 4.78 65.44 4.62 65.632C4.46 65.816 4.3 65.968 4.14 66.088V66.136C4.372 66.264 4.588 66.416 4.788 66.592C4.988 66.768 5.152 66.98 5.28 67.228C5.408 67.468 5.472 67.76 5.472 68.104C5.472 68.48 5.368 68.824 5.16 69.136C4.96 69.448 4.672 69.696 4.296 69.88C3.928 70.056 3.496 70.144 3 70.144ZM3.54 65.824C3.796 65.592 3.992 65.348 4.128 65.092C4.272 64.836 4.344 64.568 4.344 64.288C4.344 63.912 4.228 63.592 3.996 63.328C3.764 63.064 3.436 62.932 3.012 62.932C2.66 62.932 2.364 63.044 2.124 63.268C1.892 63.492 1.776 63.792 1.776 64.168C1.776 64.472 1.856 64.724 2.016 64.924C2.184 65.124 2.404 65.296 2.676 65.44C2.948 65.576 3.236 65.704 3.54 65.824ZM3.024 69.412C3.472 69.412 3.832 69.288 4.104 69.04C4.384 68.784 4.524 68.46 4.524 68.068C4.524 67.74 4.428 67.472 4.236 67.264C4.044 67.056 3.788 66.876 3.468 66.724C3.156 66.572 2.816 66.424 2.448 66.28C2.144 66.48 1.888 66.72 1.68 67C1.48 67.28 1.38 67.596 1.38 67.948C1.38 68.372 1.536 68.724 1.848 69.004C2.168 69.276 2.56 69.412 3.024 69.412ZM8.95284 70.144C8.18484 70.144 7.58084 69.8 7.14084 69.112C6.70884 68.416 6.49284 67.428 6.49284 66.148C6.49284 64.86 6.70884 63.88 7.14084 63.208C7.58084 62.536 8.18484 62.2 8.95284 62.2C9.71284 62.2 10.3088 62.536 10.7408 63.208C11.1808 63.88 11.4008 64.86 11.4008 66.148C11.4008 67.428 11.1808 68.416 10.7408 69.112C10.3088 69.8 9.71284 70.144 8.95284 70.144ZM8.95284 69.352C9.40084 69.352 9.76084 69.1 10.0328 68.596C10.3048 68.084 10.4408 67.268 10.4408 66.148C10.4408 65.028 10.3048 64.224 10.0328 63.736C9.76084 63.24 9.40084 62.992 8.95284 62.992C8.50484 62.992 8.14084 63.24 7.86084 63.736C7.58884 64.224 7.45284 65.028 7.45284 66.148C7.45284 67.268 7.58884 68.084 7.86084 68.596C8.14084 69.1 8.50484 69.352 8.95284 69.352Z" fill="#292C35"/>
<path d="M3.132 106.064C2.884 106.064 2.616 106.144 2.328 106.304C2.04 106.464 1.776 106.72 1.536 107.072C1.6 107.816 1.772 108.384 2.052 108.776C2.34 109.168 2.728 109.364 3.216 109.364C3.592 109.364 3.908 109.212 4.164 108.908C4.42 108.596 4.548 108.188 4.548 107.684C4.548 107.188 4.428 106.796 4.188 106.508C3.956 106.212 3.604 106.064 3.132 106.064ZM3.216 110.144C2.72 110.144 2.272 110.008 1.872 109.736C1.472 109.464 1.156 109.056 0.924 108.512C0.692 107.96 0.576 107.276 0.576 106.46C0.576 105.436 0.712 104.612 0.984 103.988C1.264 103.364 1.624 102.912 2.064 102.632C2.512 102.344 2.988 102.2 3.492 102.2C3.908 102.2 4.264 102.28 4.56 102.44C4.864 102.592 5.124 102.784 5.34 103.016L4.788 103.628C4.636 103.444 4.448 103.3 4.224 103.196C4 103.084 3.768 103.028 3.528 103.028C3.168 103.028 2.84 103.132 2.544 103.34C2.248 103.54 2.004 103.88 1.812 104.36C1.628 104.832 1.528 105.472 1.512 106.28C1.752 105.984 2.032 105.752 2.352 105.584C2.672 105.408 2.988 105.32 3.3 105.32C3.964 105.32 4.492 105.52 4.884 105.92C5.284 106.312 5.484 106.9 5.484 107.684C5.484 108.172 5.38 108.6 5.172 108.968C4.964 109.336 4.688 109.624 4.344 109.832C4.008 110.04 3.632 110.144 3.216 110.144ZM8.95284 110.144C8.18484 110.144 7.58084 109.8 7.14084 109.112C6.70884 108.416 6.49284 107.428 6.49284 106.148C6.49284 104.86 6.70884 103.88 7.14084 103.208C7.58084 102.536 8.18484 102.2 8.95284 102.2C9.71284 102.2 10.3088 102.536 10.7408 103.208C11.1808 103.88 11.4008 104.86 11.4008 106.148C11.4008 107.428 11.1808 108.416 10.7408 109.112C10.3088 109.8 9.71284 110.144 8.95284 110.144ZM8.95284 109.352C9.40084 109.352 9.76084 109.1 10.0328 108.596C10.3048 108.084 10.4408 107.268 10.4408 106.148C10.4408 105.028 10.3048 104.224 10.0328 103.736C9.76084 103.24 9.40084 102.992 8.95284 102.992C8.50484 102.992 8.14084 103.24 7.86084 103.736C7.58884 104.224 7.45284 105.028 7.45284 106.148C7.45284 107.268 7.58884 108.084 7.86084 108.596C8.14084 109.1 8.50484 109.352 8.95284 109.352Z" fill="#292C35"/>
<path d="M1.248 147.096H3.648V144.876C3.648 144.668 3.656 144.42 3.672 144.132C3.688 143.844 3.7 143.6 3.708 143.4H3.66C3.564 143.584 3.464 143.764 3.36 143.94C3.256 144.116 3.148 144.296 3.036 144.48L1.248 147.096ZM3.648 150V147.888H0.204V147.24L3.48 142.344H4.584V147.096H5.628V147.888H4.584V150H3.648ZM8.95284 150.144C8.18484 150.144 7.58084 149.8 7.14084 149.112C6.70884 148.416 6.49284 147.428 6.49284 146.148C6.49284 144.86 6.70884 143.88 7.14084 143.208C7.58084 142.536 8.18484 142.2 8.95284 142.2C9.71284 142.2 10.3088 142.536 10.7408 143.208C11.1808 143.88 11.4008 144.86 11.4008 146.148C11.4008 147.428 11.1808 148.416 10.7408 149.112C10.3088 149.8 9.71284 150.144 8.95284 150.144ZM8.95284 149.352C9.40084 149.352 9.76084 149.1 10.0328 148.596C10.3048 148.084 10.4408 147.268 10.4408 146.148C10.4408 145.028 10.3048 144.224 10.0328 143.736C9.76084 143.24 9.40084 142.992 8.95284 142.992C8.50484 142.992 8.14084 143.24 7.86084 143.736C7.58884 144.224 7.45284 145.028 7.45284 146.148C7.45284 147.268 7.58884 148.084 7.86084 148.596C8.14084 149.1 8.50484 149.352 8.95284 149.352Z" fill="#292C35"/>
<path d="M0.48 190V189.412C1.248 188.644 1.9 187.972 2.436 187.396C2.972 186.812 3.38 186.288 3.66 185.824C3.94 185.352 4.08 184.912 4.08 184.504C4.08 184.064 3.96 183.704 3.72 183.424C3.48 183.144 3.116 183.004 2.628 183.004C2.308 183.004 2.012 183.096 1.74 183.28C1.468 183.456 1.22 183.672 0.996 183.928L0.432 183.364C0.752 183.012 1.092 182.732 1.452 182.524C1.82 182.308 2.252 182.2 2.748 182.2C3.46 182.2 4.02 182.408 4.428 182.824C4.836 183.232 5.04 183.776 5.04 184.456C5.04 184.936 4.904 185.424 4.632 185.92C4.368 186.408 4 186.924 3.528 187.468C3.064 188.004 2.528 188.588 1.92 189.22C2.128 189.204 2.344 189.188 2.568 189.172C2.792 189.156 3.004 189.148 3.204 189.148H5.424V190H0.48ZM8.95284 190.144C8.18484 190.144 7.58084 189.8 7.14084 189.112C6.70884 188.416 6.49284 187.428 6.49284 186.148C6.49284 184.86 6.70884 183.88 7.14084 183.208C7.58084 182.536 8.18484 182.2 8.95284 182.2C9.71284 182.2 10.3088 182.536 10.7408 183.208C11.1808 183.88 11.4008 184.86 11.4008 186.148C11.4008 187.428 11.1808 188.416 10.7408 189.112C10.3088 189.8 9.71284 190.144 8.95284 190.144ZM8.95284 189.352C9.40084 189.352 9.76084 189.1 10.0328 188.596C10.3048 188.084 10.4408 187.268 10.4408 186.148C10.4408 185.028 10.3048 184.224 10.0328 183.736C9.76084 183.24 9.40084 182.992 8.95284 182.992C8.50484 182.992 8.14084 183.24 7.86084 183.736C7.58884 184.224 7.45284 185.028 7.45284 186.148C7.45284 187.268 7.58884 188.084 7.86084 188.596C8.14084 189.1 8.50484 189.352 8.95284 189.352Z" fill="#292C35"/>
<path d="M2.988 230.144C2.22 230.144 1.616 229.8 1.176 229.112C0.744 228.416 0.528 227.428 0.528 226.148C0.528 224.86 0.744 223.88 1.176 223.208C1.616 222.536 2.22 222.2 2.988 222.2C3.748 222.2 4.344 222.536 4.776 223.208C5.216 223.88 5.436 224.86 5.436 226.148C5.436 227.428 5.216 228.416 4.776 229.112C4.344 229.8 3.748 230.144 2.988 230.144ZM2.988 229.352C3.436 229.352 3.796 229.1 4.068 228.596C4.34 228.084 4.476 227.268 4.476 226.148C4.476 225.028 4.34 224.224 4.068 223.736C3.796 223.24 3.436 222.992 2.988 222.992C2.54 222.992 2.176 223.24 1.896 223.736C1.624 224.224 1.488 225.028 1.488 226.148C1.488 227.268 1.624 228.084 1.896 228.596C2.176 229.1 2.54 229.352 2.988 229.352Z" fill="#292C35"/>
<path d="M45.457 257.691V256.875H47.209V251.235H45.817V250.599C46.169 250.535 46.473 250.459 46.729 250.371C46.993 250.275 47.229 250.163 47.437 250.035H48.193V256.875H49.777V257.691H45.457ZM53.6059 253.755C53.3579 253.755 53.0899 253.835 52.8019 253.995C52.5139 254.155 52.2499 254.411 52.0099 254.763C52.0739 255.507 52.2459 256.075 52.5259 256.467C52.8139 256.859 53.2019 257.055 53.6899 257.055C54.0659 257.055 54.3819 256.903 54.6379 256.599C54.8939 256.287 55.0219 255.879 55.0219 255.375C55.0219 254.879 54.9019 254.487 54.6619 254.199C54.4299 253.903 54.0779 253.755 53.6059 253.755ZM53.6899 257.835C53.1939 257.835 52.7459 257.699 52.3459 257.427C51.9459 257.155 51.6299 256.747 51.3979 256.203C51.1659 255.651 51.0499 254.967 51.0499 254.151C51.0499 253.127 51.1859 252.303 51.4579 251.679C51.7379 251.055 52.0979 250.603 52.5379 250.323C52.9859 250.035 53.4619 249.891 53.9659 249.891C54.3819 249.891 54.7379 249.971 55.0339 250.131C55.3379 250.283 55.5979 250.475 55.8139 250.707L55.2619 251.319C55.1099 251.135 54.9219 250.991 54.6979 250.887C54.4739 250.775 54.2419 250.719 54.0019 250.719C53.6419 250.719 53.3139 250.823 53.0179 251.031C52.7219 251.231 52.4779 251.571 52.2859 252.051C52.1019 252.523 52.0019 253.163 51.9859 253.971C52.2259 253.675 52.5059 253.443 52.8259 253.275C53.1459 253.099 53.4619 253.011 53.7739 253.011C54.4379 253.011 54.9659 253.211 55.3579 253.611C55.7579 254.003 55.9579 254.591 55.9579 255.375C55.9579 255.863 55.8539 256.291 55.6459 256.659C55.4379 257.027 55.1619 257.315 54.8179 257.523C54.4819 257.731 54.1059 257.835 53.6899 257.835ZM62.8251 257.835C62.1691 257.835 61.5851 257.667 61.0731 257.331C60.5691 256.995 60.1731 256.519 59.8851 255.903C59.6051 255.287 59.4651 254.559 59.4651 253.719C59.4651 252.879 59.6051 252.159 59.8851 251.559C60.1731 250.951 60.5691 250.487 61.0731 250.167C61.5851 249.839 62.1691 249.675 62.8251 249.675C63.4891 249.675 64.0731 249.839 64.5771 250.167C65.0811 250.487 65.4771 250.951 65.7651 251.559C66.0531 252.159 66.1971 252.879 66.1971 253.719C66.1971 254.559 66.0531 255.287 65.7651 255.903C65.4771 256.519 65.0811 256.995 64.5771 257.331C64.0731 257.667 63.4891 257.835 62.8251 257.835ZM62.8251 256.959C63.2971 256.959 63.7051 256.827 64.0491 256.563C64.4011 256.291 64.6731 255.915 64.8651 255.435C65.0571 254.947 65.1531 254.375 65.1531 253.719C65.1531 252.743 64.9411 251.971 64.5171 251.403C64.0931 250.835 63.5291 250.551 62.8251 250.551C62.1211 250.551 61.5571 250.835 61.1331 251.403C60.7091 251.971 60.4971 252.743 60.4971 253.719C60.4971 254.375 60.5931 254.947 60.7851 255.435C60.9771 255.915 61.2491 256.291 61.6011 256.563C61.9531 256.827 62.3611 256.959 62.8251 256.959ZM70.0978 257.835C69.5858 257.835 69.1218 257.715 68.7058 257.475C68.2898 257.235 67.9618 256.887 67.7218 256.431C67.4818 255.975 67.3618 255.427 67.3618 254.787C67.3618 254.131 67.4898 253.575 67.7458 253.119C68.0098 252.663 68.3538 252.315 68.7778 252.075C69.2098 251.835 69.6738 251.715 70.1698 251.715C70.5538 251.715 70.8818 251.783 71.1538 251.919C71.4338 252.055 71.6738 252.215 71.8738 252.399L71.3698 253.047C71.2018 252.895 71.0218 252.771 70.8298 252.675C70.6458 252.579 70.4378 252.531 70.2058 252.531C69.8538 252.531 69.5378 252.627 69.2578 252.819C68.9858 253.003 68.7698 253.267 68.6098 253.611C68.4578 253.947 68.3818 254.339 68.3818 254.787C68.3818 255.451 68.5458 255.991 68.8738 256.407C69.2098 256.815 69.6458 257.019 70.1818 257.019C70.4538 257.019 70.7058 256.963 70.9378 256.851C71.1698 256.731 71.3738 256.591 71.5498 256.431L71.9818 257.091C71.7178 257.323 71.4258 257.507 71.1058 257.643C70.7858 257.771 70.4498 257.835 70.0978 257.835ZM74.9853 257.835C74.3613 257.835 73.9253 257.655 73.6773 257.295C73.4373 256.935 73.3173 256.467 73.3173 255.891V252.663H72.4533V251.919L73.3653 251.859L73.4853 250.227H74.3133V251.859H75.8853V252.663H74.3133V255.903C74.3133 256.263 74.3773 256.543 74.5053 256.743C74.6413 256.935 74.8773 257.031 75.2133 257.031C75.3173 257.031 75.4293 257.015 75.5493 256.983C75.6693 256.943 75.7773 256.907 75.8733 256.875L76.0653 257.619C75.9053 257.675 75.7293 257.723 75.5373 257.763C75.3533 257.811 75.1693 257.835 74.9853 257.835Z" fill="#292C35"/>
<path d="M153.869 257.691V256.875H155.621V251.235H154.229V250.599C154.581 250.535 154.885 250.459 155.141 250.371C155.405 250.275 155.641 250.163 155.849 250.035H156.605V256.875H158.189V257.691H153.869ZM161.01 257.691C161.058 256.731 161.158 255.871 161.31 255.111C161.47 254.343 161.702 253.623 162.006 252.951C162.318 252.271 162.726 251.583 163.23 250.887H159.414V250.035H164.346V250.647C163.89 251.223 163.518 251.779 163.23 252.315C162.942 252.843 162.718 253.379 162.558 253.923C162.398 254.459 162.278 255.035 162.198 255.651C162.118 256.267 162.062 256.947 162.03 257.691H161.01ZM171.237 257.835C170.581 257.835 169.997 257.667 169.485 257.331C168.981 256.995 168.585 256.519 168.297 255.903C168.017 255.287 167.877 254.559 167.877 253.719C167.877 252.879 168.017 252.159 168.297 251.559C168.585 250.951 168.981 250.487 169.485 250.167C169.997 249.839 170.581 249.675 171.237 249.675C171.901 249.675 172.485 249.839 172.989 250.167C173.493 250.487 173.889 250.951 174.177 251.559C174.465 252.159 174.609 252.879 174.609 253.719C174.609 254.559 174.465 255.287 174.177 255.903C173.889 256.519 173.493 256.995 172.989 257.331C172.485 257.667 171.901 257.835 171.237 257.835ZM171.237 256.959C171.709 256.959 172.117 256.827 172.461 256.563C172.813 256.291 173.085 255.915 173.277 255.435C173.469 254.947 173.565 254.375 173.565 253.719C173.565 252.743 173.353 251.971 172.929 251.403C172.505 250.835 171.941 250.551 171.237 250.551C170.533 250.551 169.969 250.835 169.545 251.403C169.121 251.971 168.909 252.743 168.909 253.719C168.909 254.375 169.005 254.947 169.197 255.435C169.389 255.915 169.661 256.291 170.013 256.563C170.365 256.827 170.773 256.959 171.237 256.959ZM178.51 257.835C177.998 257.835 177.534 257.715 177.118 257.475C176.702 257.235 176.374 256.887 176.134 256.431C175.894 255.975 175.774 255.427 175.774 254.787C175.774 254.131 175.902 253.575 176.158 253.119C176.422 252.663 176.766 252.315 177.19 252.075C177.622 251.835 178.086 251.715 178.582 251.715C178.966 251.715 179.294 251.783 179.566 251.919C179.846 252.055 180.086 252.215 180.286 252.399L179.782 253.047C179.614 252.895 179.434 252.771 179.242 252.675C179.058 252.579 178.85 252.531 178.618 252.531C178.266 252.531 177.95 252.627 177.67 252.819C177.398 253.003 177.182 253.267 177.022 253.611C176.87 253.947 176.794 254.339 176.794 254.787C176.794 255.451 176.958 255.991 177.286 256.407C177.622 256.815 178.058 257.019 178.594 257.019C178.866 257.019 179.118 256.963 179.35 256.851C179.582 256.731 179.786 256.591 179.962 256.431L180.394 257.091C180.13 257.323 179.838 257.507 179.518 257.643C179.198 257.771 178.862 257.835 178.51 257.835ZM183.397 257.835C182.773 257.835 182.337 257.655 182.089 257.295C181.849 256.935 181.729 256.467 181.729 255.891V252.663H180.865V251.919L181.777 251.859L181.897 250.227H182.725V251.859H184.297V252.663H182.725V255.903C182.725 256.263 182.789 256.543 182.917 256.743C183.053 256.935 183.289 257.031 183.625 257.031C183.729 257.031 183.841 257.015 183.961 256.983C184.081 256.943 184.189 256.907 184.285 256.875L184.477 257.619C184.317 257.675 184.141 257.723 183.949 257.763C183.765 257.811 183.581 257.835 183.397 257.835Z" fill="#292C35"/>
<path d="M262.281 257.691V256.875H264.033V251.235H262.641V250.599C262.993 250.535 263.297 250.459 263.553 250.371C263.817 250.275 264.053 250.163 264.261 250.035H265.017V256.875H266.601V257.691H262.281ZM270.298 257.835C269.818 257.835 269.39 257.747 269.014 257.571C268.638 257.387 268.338 257.135 268.114 256.815C267.898 256.495 267.79 256.135 267.79 255.735C267.79 255.399 267.858 255.103 267.994 254.847C268.138 254.583 268.318 254.355 268.534 254.163C268.758 253.963 268.99 253.799 269.23 253.671V253.623C268.95 253.423 268.702 253.179 268.486 252.891C268.27 252.603 268.162 252.259 268.162 251.859C268.162 251.467 268.258 251.123 268.45 250.827C268.642 250.531 268.902 250.303 269.23 250.143C269.558 249.975 269.926 249.891 270.334 249.891C270.998 249.891 271.522 250.083 271.906 250.467C272.298 250.851 272.494 251.339 272.494 251.931C272.494 252.195 272.438 252.447 272.326 252.687C272.214 252.919 272.078 253.131 271.918 253.323C271.758 253.507 271.598 253.659 271.438 253.779V253.827C271.67 253.955 271.886 254.107 272.086 254.283C272.286 254.459 272.45 254.671 272.578 254.919C272.706 255.159 272.77 255.451 272.77 255.795C272.77 256.171 272.666 256.515 272.458 256.827C272.258 257.139 271.97 257.387 271.594 257.571C271.226 257.747 270.794 257.835 270.298 257.835ZM270.838 253.515C271.094 253.283 271.29 253.039 271.426 252.783C271.57 252.527 271.642 252.259 271.642 251.979C271.642 251.603 271.526 251.283 271.294 251.019C271.062 250.755 270.734 250.623 270.31 250.623C269.958 250.623 269.662 250.735 269.422 250.959C269.19 251.183 269.074 251.483 269.074 251.859C269.074 252.163 269.154 252.415 269.314 252.615C269.482 252.815 269.702 252.987 269.974 253.131C270.246 253.267 270.534 253.395 270.838 253.515ZM270.322 257.103C270.77 257.103 271.13 256.979 271.402 256.731C271.682 256.475 271.822 256.151 271.822 255.759C271.822 255.431 271.726 255.163 271.534 254.955C271.342 254.747 271.086 254.567 270.766 254.415C270.454 254.263 270.114 254.115 269.746 253.971C269.442 254.171 269.186 254.411 268.978 254.691C268.778 254.971 268.678 255.287 268.678 255.639C268.678 256.063 268.834 256.415 269.146 256.695C269.466 256.967 269.858 257.103 270.322 257.103ZM279.649 257.835C278.993 257.835 278.409 257.667 277.897 257.331C277.393 256.995 276.997 256.519 276.709 255.903C276.429 255.287 276.289 254.559 276.289 253.719C276.289 252.879 276.429 252.159 276.709 251.559C276.997 250.951 277.393 250.487 277.897 250.167C278.409 249.839 278.993 249.675 279.649 249.675C280.313 249.675 280.897 249.839 281.401 250.167C281.905 250.487 282.301 250.951 282.589 251.559C282.877 252.159 283.021 252.879 283.021 253.719C283.021 254.559 282.877 255.287 282.589 255.903C282.301 256.519 281.905 256.995 281.401 257.331C280.897 257.667 280.313 257.835 279.649 257.835ZM279.649 256.959C280.121 256.959 280.529 256.827 280.873 256.563C281.225 256.291 281.497 255.915 281.689 255.435C281.881 254.947 281.977 254.375 281.977 253.719C281.977 252.743 281.765 251.971 281.341 251.403C280.917 250.835 280.353 250.551 279.649 250.551C278.945 250.551 278.381 250.835 277.957 251.403C277.533 251.971 277.321 252.743 277.321 253.719C277.321 254.375 277.417 254.947 277.609 255.435C277.801 255.915 278.073 256.291 278.425 256.563C278.777 256.827 279.185 256.959 279.649 256.959ZM286.922 257.835C286.41 257.835 285.946 257.715 285.53 257.475C285.114 257.235 284.786 256.887 284.546 256.431C284.306 255.975 284.186 255.427 284.186 254.787C284.186 254.131 284.314 253.575 284.57 253.119C284.834 252.663 285.178 252.315 285.602 252.075C286.034 251.835 286.498 251.715 286.994 251.715C287.378 251.715 287.706 251.783 287.978 251.919C288.258 252.055 288.498 252.215 288.698 252.399L288.194 253.047C288.026 252.895 287.846 252.771 287.654 252.675C287.47 252.579 287.262 252.531 287.03 252.531C286.678 252.531 286.362 252.627 286.082 252.819C285.81 253.003 285.594 253.267 285.434 253.611C285.282 253.947 285.206 254.339 285.206 254.787C285.206 255.451 285.37 255.991 285.698 256.407C286.034 256.815 286.47 257.019 287.006 257.019C287.278 257.019 287.53 256.963 287.762 256.851C287.994 256.731 288.198 256.591 288.374 256.431L288.806 257.091C288.542 257.323 288.25 257.507 287.93 257.643C287.61 257.771 287.274 257.835 286.922 257.835ZM291.81 257.835C291.186 257.835 290.75 257.655 290.502 257.295C290.262 256.935 290.142 256.467 290.142 255.891V252.663H289.278V251.919L290.19 251.859L290.31 250.227H291.138V251.859H292.71V252.663H291.138V255.903C291.138 256.263 291.202 256.543 291.33 256.743C291.466 256.935 291.702 257.031 292.038 257.031C292.142 257.031 292.254 257.015 292.374 256.983C292.494 256.943 292.602 256.907 292.698 256.875L292.89 257.619C292.73 257.675 292.554 257.723 292.362 257.763C292.178 257.811 291.994 257.835 291.81 257.835Z" fill="#292C35"/>
<path d="M370.693 257.691V256.875H372.445V251.235H371.053V250.599C371.405 250.535 371.709 250.459 371.965 250.371C372.229 250.275 372.465 250.163 372.673 250.035H373.429V256.875H375.013V257.691H370.693ZM377.114 252.351C377.114 252.847 377.23 253.243 377.462 253.539C377.702 253.827 378.058 253.971 378.53 253.971C378.786 253.971 379.054 253.891 379.334 253.731C379.622 253.571 379.89 253.311 380.138 252.951C380.074 252.207 379.898 251.643 379.61 251.259C379.322 250.867 378.934 250.671 378.446 250.671C378.078 250.671 377.762 250.827 377.498 251.139C377.242 251.443 377.114 251.847 377.114 252.351ZM378.17 257.835C377.762 257.835 377.402 257.759 377.09 257.607C376.786 257.447 376.53 257.255 376.322 257.031L376.874 256.407C377.034 256.591 377.222 256.739 377.438 256.851C377.662 256.963 377.894 257.019 378.134 257.019C378.494 257.019 378.826 256.915 379.13 256.707C379.434 256.499 379.678 256.155 379.862 255.675C380.054 255.195 380.154 254.547 380.162 253.731C379.922 254.035 379.642 254.275 379.322 254.451C379.002 254.627 378.682 254.715 378.362 254.715C377.706 254.715 377.178 254.519 376.778 254.127C376.386 253.727 376.19 253.135 376.19 252.351C376.19 251.863 376.294 251.435 376.502 251.067C376.71 250.699 376.982 250.411 377.318 250.203C377.662 249.995 378.038 249.891 378.446 249.891C378.95 249.891 379.402 250.027 379.802 250.299C380.202 250.571 380.514 250.979 380.738 251.523C380.97 252.067 381.086 252.751 381.086 253.575C381.086 254.599 380.946 255.423 380.666 256.047C380.394 256.671 380.038 257.127 379.598 257.415C379.158 257.695 378.682 257.835 378.17 257.835ZM388.061 257.835C387.405 257.835 386.821 257.667 386.309 257.331C385.805 256.995 385.409 256.519 385.121 255.903C384.841 255.287 384.701 254.559 384.701 253.719C384.701 252.879 384.841 252.159 385.121 251.559C385.409 250.951 385.805 250.487 386.309 250.167C386.821 249.839 387.405 249.675 388.061 249.675C388.725 249.675 389.309 249.839 389.813 250.167C390.317 250.487 390.713 250.951 391.001 251.559C391.289 252.159 391.433 252.879 391.433 253.719C391.433 254.559 391.289 255.287 391.001 255.903C390.713 256.519 390.317 256.995 389.813 257.331C389.309 257.667 388.725 257.835 388.061 257.835ZM388.061 256.959C388.533 256.959 388.941 256.827 389.285 256.563C389.637 256.291 389.909 255.915 390.101 255.435C390.293 254.947 390.389 254.375 390.389 253.719C390.389 252.743 390.177 251.971 389.753 251.403C389.329 250.835 388.765 250.551 388.061 250.551C387.357 250.551 386.793 250.835 386.369 251.403C385.945 251.971 385.733 252.743 385.733 253.719C385.733 254.375 385.829 254.947 386.021 255.435C386.213 255.915 386.485 256.291 386.837 256.563C387.189 256.827 387.597 256.959 388.061 256.959ZM395.334 257.835C394.822 257.835 394.358 257.715 393.942 257.475C393.526 257.235 393.198 256.887 392.958 256.431C392.718 255.975 392.598 255.427 392.598 254.787C392.598 254.131 392.726 253.575 392.982 253.119C393.246 252.663 393.59 252.315 394.014 252.075C394.446 251.835 394.91 251.715 395.406 251.715C395.79 251.715 396.118 251.783 396.39 251.919C396.67 252.055 396.91 252.215 397.11 252.399L396.606 253.047C396.438 252.895 396.258 252.771 396.066 252.675C395.882 252.579 395.674 252.531 395.442 252.531C395.09 252.531 394.774 252.627 394.494 252.819C394.222 253.003 394.006 253.267 393.846 253.611C393.694 253.947 393.618 254.339 393.618 254.787C393.618 255.451 393.782 255.991 394.11 256.407C394.446 256.815 394.882 257.019 395.418 257.019C395.69 257.019 395.942 256.963 396.174 256.851C396.406 256.731 396.61 256.591 396.786 256.431L397.218 257.091C396.954 257.323 396.662 257.507 396.342 257.643C396.022 257.771 395.686 257.835 395.334 257.835ZM400.222 257.835C399.598 257.835 399.162 257.655 398.914 257.295C398.674 256.935 398.554 256.467 398.554 255.891V252.663H397.69V251.919L398.602 251.859L398.722 250.227H399.55V251.859H401.122V252.663H399.55V255.903C399.55 256.263 399.614 256.543 399.742 256.743C399.878 256.935 400.114 257.031 400.45 257.031C400.554 257.031 400.666 257.015 400.786 256.983C400.906 256.943 401.014 256.907 401.11 256.875L401.302 257.619C401.142 257.675 400.966 257.723 400.774 257.763C400.59 257.811 400.406 257.835 400.222 257.835Z" fill="#292C35"/>
<path d="M478.637 257.691V257.103C479.405 256.335 480.057 255.663 480.593 255.087C481.129 254.503 481.537 253.979 481.817 253.515C482.097 253.043 482.237 252.603 482.237 252.195C482.237 251.755 482.117 251.395 481.877 251.115C481.637 250.835 481.273 250.695 480.785 250.695C480.465 250.695 480.169 250.787 479.897 250.971C479.625 251.147 479.377 251.363 479.153 251.619L478.589 251.055C478.909 250.703 479.249 250.423 479.609 250.215C479.977 249.999 480.409 249.891 480.905 249.891C481.617 249.891 482.177 250.099 482.585 250.515C482.993 250.923 483.197 251.467 483.197 252.147C483.197 252.627 483.061 253.115 482.789 253.611C482.525 254.099 482.157 254.615 481.685 255.159C481.221 255.695 480.685 256.279 480.077 256.911C480.285 256.895 480.501 256.879 480.725 256.863C480.949 256.847 481.161 256.839 481.361 256.839H483.581V257.691H478.637ZM487.11 257.835C486.342 257.835 485.738 257.491 485.298 256.803C484.866 256.107 484.65 255.119 484.65 253.839C484.65 252.551 484.866 251.571 485.298 250.899C485.738 250.227 486.342 249.891 487.11 249.891C487.87 249.891 488.466 250.227 488.898 250.899C489.338 251.571 489.558 252.551 489.558 253.839C489.558 255.119 489.338 256.107 488.898 256.803C488.466 257.491 487.87 257.835 487.11 257.835ZM487.11 257.043C487.558 257.043 487.918 256.791 488.19 256.287C488.462 255.775 488.598 254.959 488.598 253.839C488.598 252.719 488.462 251.915 488.19 251.427C487.918 250.931 487.558 250.683 487.11 250.683C486.662 250.683 486.298 250.931 486.018 251.427C485.746 251.915 485.61 252.719 485.61 253.839C485.61 254.959 485.746 255.775 486.018 256.287C486.298 256.791 486.662 257.043 487.11 257.043ZM496.474 257.835C495.818 257.835 495.234 257.667 494.722 257.331C494.218 256.995 493.822 256.519 493.534 255.903C493.254 255.287 493.114 254.559 493.114 253.719C493.114 252.879 493.254 252.159 493.534 251.559C493.822 250.951 494.218 250.487 494.722 250.167C495.234 249.839 495.818 249.675 496.474 249.675C497.138 249.675 497.722 249.839 498.226 250.167C498.73 250.487 499.126 250.951 499.414 251.559C499.702 252.159 499.846 252.879 499.846 253.719C499.846 254.559 499.702 255.287 499.414 255.903C499.126 256.519 498.73 256.995 498.226 257.331C497.722 257.667 497.138 257.835 496.474 257.835ZM496.474 256.959C496.946 256.959 497.354 256.827 497.698 256.563C498.05 256.291 498.322 255.915 498.514 255.435C498.706 254.947 498.802 254.375 498.802 253.719C498.802 252.743 498.59 251.971 498.166 251.403C497.742 250.835 497.178 250.551 496.474 250.551C495.77 250.551 495.206 250.835 494.782 251.403C494.358 251.971 494.146 252.743 494.146 253.719C494.146 254.375 494.242 254.947 494.434 255.435C494.626 255.915 494.898 256.291 495.25 256.563C495.602 256.827 496.01 256.959 496.474 256.959ZM503.746 257.835C503.234 257.835 502.77 257.715 502.354 257.475C501.938 257.235 501.61 256.887 501.37 256.431C501.13 255.975 501.01 255.427 501.01 254.787C501.01 254.131 501.138 253.575 501.394 253.119C501.658 252.663 502.002 252.315 502.426 252.075C502.858 251.835 503.322 251.715 503.818 251.715C504.202 251.715 504.53 251.783 504.802 251.919C505.082 252.055 505.322 252.215 505.522 252.399L505.018 253.047C504.85 252.895 504.67 252.771 504.478 252.675C504.294 252.579 504.086 252.531 503.854 252.531C503.502 252.531 503.186 252.627 502.906 252.819C502.634 253.003 502.418 253.267 502.258 253.611C502.106 253.947 502.03 254.339 502.03 254.787C502.03 255.451 502.194 255.991 502.522 256.407C502.858 256.815 503.294 257.019 503.83 257.019C504.102 257.019 504.354 256.963 504.586 256.851C504.818 256.731 505.022 256.591 505.198 256.431L505.63 257.091C505.366 257.323 505.074 257.507 504.754 257.643C504.434 257.771 504.098 257.835 503.746 257.835ZM508.634 257.835C508.01 257.835 507.574 257.655 507.326 257.295C507.086 256.935 506.966 256.467 506.966 255.891V252.663H506.102V251.919L507.014 251.859L507.134 250.227H507.962V251.859H509.534V252.663H507.962V255.903C507.962 256.263 508.026 256.543 508.154 256.743C508.29 256.935 508.526 257.031 508.862 257.031C508.966 257.031 509.078 257.015 509.198 256.983C509.318 256.943 509.426 256.907 509.522 256.875L509.714 257.619C509.554 257.675 509.378 257.723 509.186 257.763C509.002 257.811 508.818 257.835 508.634 257.835Z" fill="#292C35"/>
<path d="M587.05 257.691V257.103C587.818 256.335 588.47 255.663 589.006 255.087C589.542 254.503 589.95 253.979 590.23 253.515C590.51 253.043 590.65 252.603 590.65 252.195C590.65 251.755 590.53 251.395 590.29 251.115C590.05 250.835 589.686 250.695 589.198 250.695C588.878 250.695 588.582 250.787 588.31 250.971C588.038 251.147 587.79 251.363 587.566 251.619L587.002 251.055C587.322 250.703 587.662 250.423 588.022 250.215C588.39 249.999 588.822 249.891 589.318 249.891C590.03 249.891 590.59 250.099 590.998 250.515C591.406 250.923 591.61 251.467 591.61 252.147C591.61 252.627 591.474 253.115 591.202 253.611C590.938 254.099 590.57 254.615 590.098 255.159C589.634 255.695 589.098 256.279 588.49 256.911C588.698 256.895 588.914 256.879 589.138 256.863C589.362 256.847 589.574 256.839 589.774 256.839H591.994V257.691H587.05ZM593.482 257.691V256.875H595.234V251.235H593.842V250.599C594.194 250.535 594.498 250.459 594.754 250.371C595.018 250.275 595.254 250.163 595.462 250.035H596.218V256.875H597.802V257.691H593.482ZM604.886 257.835C604.23 257.835 603.646 257.667 603.134 257.331C602.63 256.995 602.234 256.519 601.946 255.903C601.666 255.287 601.526 254.559 601.526 253.719C601.526 252.879 601.666 252.159 601.946 251.559C602.234 250.951 602.63 250.487 603.134 250.167C603.646 249.839 604.23 249.675 604.886 249.675C605.55 249.675 606.134 249.839 606.638 250.167C607.142 250.487 607.538 250.951 607.826 251.559C608.114 252.159 608.258 252.879 608.258 253.719C608.258 254.559 608.114 255.287 607.826 255.903C607.538 256.519 607.142 256.995 606.638 257.331C606.134 257.667 605.55 257.835 604.886 257.835ZM604.886 256.959C605.358 256.959 605.766 256.827 606.11 256.563C606.462 256.291 606.734 255.915 606.926 255.435C607.118 254.947 607.214 254.375 607.214 253.719C607.214 252.743 607.002 251.971 606.578 251.403C606.154 250.835 605.59 250.551 604.886 250.551C604.182 250.551 603.618 250.835 603.194 251.403C602.77 251.971 602.558 252.743 602.558 253.719C602.558 254.375 602.654 254.947 602.846 255.435C603.038 255.915 603.31 256.291 603.662 256.563C604.014 256.827 604.422 256.959 604.886 256.959ZM612.158 257.835C611.646 257.835 611.182 257.715 610.766 257.475C610.35 257.235 610.022 256.887 609.782 256.431C609.542 255.975 609.422 255.427 609.422 254.787C609.422 254.131 609.55 253.575 609.806 253.119C610.07 252.663 610.414 252.315 610.838 252.075C611.27 251.835 611.734 251.715 612.23 251.715C612.614 251.715 612.942 251.783 613.214 251.919C613.494 252.055 613.734 252.215 613.934 252.399L613.43 253.047C613.262 252.895 613.082 252.771 612.89 252.675C612.706 252.579 612.498 252.531 612.266 252.531C611.914 252.531 611.598 252.627 611.318 252.819C611.046 253.003 610.83 253.267 610.67 253.611C610.518 253.947 610.442 254.339 610.442 254.787C610.442 255.451 610.606 255.991 610.934 256.407C611.27 256.815 611.706 257.019 612.242 257.019C612.514 257.019 612.766 256.963 612.998 256.851C613.23 256.731 613.434 256.591 613.61 256.431L614.042 257.091C613.778 257.323 613.486 257.507 613.166 257.643C612.846 257.771 612.51 257.835 612.158 257.835ZM617.046 257.835C616.422 257.835 615.986 257.655 615.738 257.295C615.498 256.935 615.378 256.467 615.378 255.891V252.663H614.514V251.919L615.426 251.859L615.546 250.227H616.374V251.859H617.946V252.663H616.374V255.903C616.374 256.263 616.438 256.543 616.566 256.743C616.702 256.935 616.938 257.031 617.274 257.031C617.378 257.031 617.49 257.015 617.61 256.983C617.73 256.943 617.838 256.907 617.934 256.875L618.126 257.619C617.966 257.675 617.79 257.723 617.598 257.763C617.414 257.811 617.23 257.835 617.046 257.835Z" fill="#292C35"/>
<path d="M695.462 257.691V257.103C696.23 256.335 696.882 255.663 697.418 255.087C697.954 254.503 698.362 253.979 698.642 253.515C698.922 253.043 699.062 252.603 699.062 252.195C699.062 251.755 698.942 251.395 698.702 251.115C698.462 250.835 698.098 250.695 697.61 250.695C697.29 250.695 696.994 250.787 696.722 250.971C696.45 251.147 696.202 251.363 695.978 251.619L695.414 251.055C695.734 250.703 696.074 250.423 696.434 250.215C696.802 249.999 697.234 249.891 697.73 249.891C698.442 249.891 699.002 250.099 699.41 250.515C699.818 250.923 700.022 251.467 700.022 252.147C700.022 252.627 699.886 253.115 699.614 253.611C699.35 254.099 698.982 254.615 698.51 255.159C698.046 255.695 697.51 256.279 696.902 256.911C697.11 256.895 697.326 256.879 697.55 256.863C697.774 256.847 697.986 256.839 698.186 256.839H700.406V257.691H695.462ZM701.427 257.691V257.103C702.195 256.335 702.847 255.663 703.383 255.087C703.919 254.503 704.327 253.979 704.607 253.515C704.887 253.043 705.027 252.603 705.027 252.195C705.027 251.755 704.907 251.395 704.667 251.115C704.427 250.835 704.063 250.695 703.575 250.695C703.255 250.695 702.959 250.787 702.687 250.971C702.415 251.147 702.167 251.363 701.943 251.619L701.379 251.055C701.699 250.703 702.039 250.423 702.399 250.215C702.767 249.999 703.199 249.891 703.695 249.891C704.407 249.891 704.967 250.099 705.375 250.515C705.783 250.923 705.987 251.467 705.987 252.147C705.987 252.627 705.851 253.115 705.579 253.611C705.315 254.099 704.947 254.615 704.475 255.159C704.011 255.695 703.475 256.279 702.867 256.911C703.075 256.895 703.291 256.879 703.515 256.863C703.739 256.847 703.951 256.839 704.151 256.839H706.371V257.691H701.427ZM713.298 257.835C712.642 257.835 712.058 257.667 711.546 257.331C711.042 256.995 710.646 256.519 710.358 255.903C710.078 255.287 709.938 254.559 709.938 253.719C709.938 252.879 710.078 252.159 710.358 251.559C710.646 250.951 711.042 250.487 711.546 250.167C712.058 249.839 712.642 249.675 713.298 249.675C713.962 249.675 714.546 249.839 715.05 250.167C715.554 250.487 715.95 250.951 716.238 251.559C716.526 252.159 716.67 252.879 716.67 253.719C716.67 254.559 716.526 255.287 716.238 255.903C715.95 256.519 715.554 256.995 715.05 257.331C714.546 257.667 713.962 257.835 713.298 257.835ZM713.298 256.959C713.77 256.959 714.178 256.827 714.522 256.563C714.874 256.291 715.146 255.915 715.338 255.435C715.53 254.947 715.626 254.375 715.626 253.719C715.626 252.743 715.414 251.971 714.99 251.403C714.566 250.835 714.002 250.551 713.298 250.551C712.594 250.551 712.03 250.835 711.606 251.403C711.182 251.971 710.97 252.743 710.97 253.719C710.97 254.375 711.066 254.947 711.258 255.435C711.45 255.915 711.722 256.291 712.074 256.563C712.426 256.827 712.834 256.959 713.298 256.959ZM720.57 257.835C720.058 257.835 719.594 257.715 719.178 257.475C718.762 257.235 718.434 256.887 718.194 256.431C717.954 255.975 717.834 255.427 717.834 254.787C717.834 254.131 717.962 253.575 718.218 253.119C718.482 252.663 718.826 252.315 719.25 252.075C719.682 251.835 720.146 251.715 720.642 251.715C721.026 251.715 721.354 251.783 721.626 251.919C721.906 252.055 722.146 252.215 722.346 252.399L721.842 253.047C721.674 252.895 721.494 252.771 721.302 252.675C721.118 252.579 720.91 252.531 720.678 252.531C720.326 252.531 720.01 252.627 719.73 252.819C719.458 253.003 719.242 253.267 719.082 253.611C718.93 253.947 718.854 254.339 718.854 254.787C718.854 255.451 719.018 255.991 719.346 256.407C719.682 256.815 720.118 257.019 720.654 257.019C720.926 257.019 721.178 256.963 721.41 256.851C721.642 256.731 721.846 256.591 722.022 256.431L722.454 257.091C722.19 257.323 721.898 257.507 721.578 257.643C721.258 257.771 720.922 257.835 720.57 257.835ZM725.458 257.835C724.834 257.835 724.398 257.655 724.15 257.295C723.91 256.935 723.79 256.467 723.79 255.891V252.663H722.926V251.919L723.838 251.859L723.958 250.227H724.786V251.859H726.358V252.663H724.786V255.903C724.786 256.263 724.85 256.543 724.978 256.743C725.114 256.935 725.35 257.031 725.686 257.031C725.79 257.031 725.902 257.015 726.022 256.983C726.142 256.943 726.25 256.907 726.346 256.875L726.538 257.619C726.378 257.675 726.202 257.723 726.01 257.763C725.826 257.811 725.642 257.835 725.458 257.835Z" fill="#292C35"/>
<line x1="44.509" y1="190.673" x2="733.164" y2="190.673" stroke="#D7DAE2" stroke-width="1.23636" stroke-dasharray="2.47 2.47"/>
<line x1="44.509" y1="151.109" x2="733.164" y2="151.109" stroke="#D7DAE2" stroke-width="1.23636" stroke-dasharray="2.47 2.47"/>
<line x1="44.509" y1="111.545" x2="733.164" y2="111.546" stroke="#D7DAE2" stroke-width="1.23636" stroke-dasharray="2.47 2.47"/>
<line x1="44.509" y1="31.9818" x2="733.164" y2="31.9818" stroke="#D7DAE2" stroke-width="1.23636" stroke-dasharray="2.47 2.47"/>
<line x1="44.509" y1="71.9818" x2="733.164" y2="71.9818" stroke="#D7DAE2" stroke-width="1.23636" stroke-dasharray="2.47 2.47"/>
<line x1="44.509" y1="230.236" x2="734.4" y2="230.236" stroke="#D7DAE2" stroke-width="1.23636"/>
<path d="M72.2335 125.861C64.4861 133.766 54.1637 144.197 47 153.675V231H734V112.046C712.055 104.914 690.271 96.1642 670.669 84.0737C656.062 75.0642 640.937 67.3039 624.775 61.2185C608.563 55.1145 594.079 55.6378 577.014 56.5565C542.501 58.4143 509.591 68.4422 475.895 75.4319C461.82 78.3514 447.647 82.2753 433.324 83.7894C415.656 85.6572 396.637 84.9358 379.091 82.7092C353.355 79.4434 328.423 74.1346 303.28 68.2683C271.418 60.8343 239.829 55.0886 207.293 60.6499C171.489 66.7699 137.467 81.0578 106.29 99.1968C93.8007 106.463 82.2743 115.617 72.2335 125.861Z" fill="url(#paint0_linear_3193_6069)"/>
<path d="M47 154C54.1637 144.49 64.4861 134.024 72.2335 126.093C82.2743 115.815 93.8007 106.631 106.29 99.3403C137.467 81.141 171.489 66.8057 207.293 60.6654C239.829 55.0856 271.418 60.8503 303.28 68.3091C328.423 74.1948 353.355 79.5213 379.091 82.798C396.637 85.0319 415.656 85.7558 433.324 83.8818C447.647 82.3626 461.82 78.4256 475.895 75.4965C509.591 68.4835 542.501 58.4223 577.014 56.5583C594.079 55.6366 608.563 55.1116 624.775 61.2358C640.937 67.3415 656.062 75.1276 670.669 84.167C690.271 96.2976 712.055 105.077 734 112.232" stroke="#25A8E0" stroke-width="3" stroke-linecap="round"/>
<defs>
<linearGradient id="paint0_linear_3193_6069" x1="301.5" y1="156.5" x2="300.461" y2="225.999" gradientUnits="userSpaceOnUse">
<stop stop-color="#E9F6FC"/>
<stop offset="1" stop-color="white" stop-opacity="0"/>
</linearGradient>
</defs>
</svg>
