<svg width="42" height="42" viewBox="0 0 42 42" fill="none" xmlns="http://www.w3.org/2000/svg">
<circle cx="21" cy="21" r="21" fill="#25A8E0" fill-opacity="0.1"/>
<path fill-rule="evenodd" clip-rule="evenodd" d="M18.024 10.5C18.2582 10.5051 18.4849 10.5831 18.6726 10.7232C18.8603 10.8633 18.9995 11.0585 19.071 11.2815L24.03 26.7765L26.235 20.265C26.3103 20.0422 26.4535 19.8485 26.6445 19.7113C26.8356 19.5741 27.0648 19.5002 27.3 19.5H31.5C31.7984 19.5 32.0845 19.6185 32.2955 19.8295C32.5065 20.0405 32.625 20.3266 32.625 20.625C32.625 20.9234 32.5065 21.2095 32.2955 21.4205C32.0845 21.6315 31.7984 21.75 31.5 21.75H28.107L25.065 30.735C24.989 30.959 24.8442 31.1533 24.6514 31.2903C24.4586 31.4273 24.2276 31.5001 23.991 31.4983C23.7545 31.4964 23.5246 31.4201 23.3339 31.2801C23.1433 31.1401 23.0016 30.9436 22.929 30.7185L17.928 15.09L15.756 21.012C15.6767 21.2283 15.533 21.4151 15.3441 21.5471C15.1552 21.6791 14.9304 21.7499 14.7 21.75H10.5C10.2016 21.75 9.91548 21.6315 9.7045 21.4205C9.49353 21.2095 9.375 20.9234 9.375 20.625C9.375 20.3266 9.49353 20.0405 9.7045 19.8295C9.91548 19.6185 10.2016 19.5 10.5 19.5H13.914L16.944 11.238C17.109 10.7865 17.544 10.4895 18.024 10.5Z" fill="#25A8E0"/>
</svg>
