<svg width="19" height="20" viewBox="0 0 19 20" fill="none" xmlns="http://www.w3.org/2000/svg">
<g clip-path="url(#clip0_918_10554)">
<path d="M14.1875 9.5645H10.75V6.5645H9.625C9.97323 6.09962 10.1603 5.53386 10.1579 4.95303C10.1579 4.08928 9.74922 3.27769 9.09128 2.83503L8.81216 2.64722L8.53306 2.83503C7.875 3.27775 7.46641 4.08931 7.46641 4.95303C7.46406 5.53387 7.65122 6.09962 7.9995 6.56447H6.75V9.56447H3.8125C3.33196 9.56501 2.87126 9.75615 2.53147 10.0959C2.19168 10.4357 2.00055 10.8964 2 11.377V16.9999C2.0003 17.265 2.10575 17.5192 2.29322 17.7067C2.48069 17.8942 2.73487 17.9996 3 17.9999H15C15.2651 17.9996 15.5193 17.8942 15.7068 17.7067C15.8942 17.5192 15.9997 17.265 16 16.9999V11.377C15.9995 10.8965 15.8083 10.4358 15.4685 10.096C15.1287 9.75618 14.668 9.56504 14.1875 9.5645ZM8.81216 3.92309C9.03059 4.19447 9.15794 4.56265 9.15794 4.95306C9.15794 5.34347 9.03059 5.71169 8.81216 5.98303C8.59375 5.71169 8.46641 5.34347 8.46641 4.95303C8.46641 4.56259 8.59375 4.19447 8.81216 3.92309ZM7.75 7.5645H9.75V9.5645H7.75V7.5645ZM3 11.377C3.00025 11.1616 3.08593 10.9551 3.23825 10.8027C3.39057 10.6504 3.59709 10.5647 3.8125 10.5645H14.1875C14.4029 10.5647 14.6094 10.6504 14.7618 10.8027C14.9141 10.9551 14.9998 11.1616 15 11.377V12.3638L14.325 12.6616C14.193 12.7197 14.0503 12.7497 13.9061 12.7497C13.7619 12.7497 13.6192 12.7197 13.4872 12.6616L12.3125 12.1433L11.1375 12.6616C11.0055 12.7197 10.8628 12.7497 10.7186 12.7497C10.5744 12.7497 10.4317 12.7197 10.2997 12.6616L9.125 12.1432L7.95 12.6616C7.81798 12.7197 7.67533 12.7497 7.53109 12.7497C7.38686 12.7497 7.2442 12.7197 7.11219 12.6616L5.9375 12.1433L4.76272 12.6616C4.6307 12.7197 4.48805 12.7497 4.34381 12.7497C4.19958 12.7497 4.05692 12.7197 3.92491 12.6616L3 12.2536V11.377ZM15 16.9999H3V13.3466L3.52119 13.5765C3.78042 13.6906 4.06054 13.7495 4.34375 13.7495C4.62696 13.7495 4.90708 13.6906 5.16631 13.5765L5.9375 13.2362L6.70872 13.5765C6.96794 13.6906 7.24806 13.7495 7.53127 13.7495C7.81448 13.7495 8.09459 13.6906 8.35381 13.5765L9.125 13.2362L9.89616 13.5765C10.1554 13.6906 10.4355 13.7495 10.7187 13.7495C11.0019 13.7495 11.282 13.6906 11.5412 13.5765L12.3125 13.2362L13.0837 13.5765C13.3429 13.6906 13.623 13.7495 13.9062 13.7495C14.1894 13.7495 14.4695 13.6906 14.7287 13.5765L15.0004 13.4567L15.0006 16.9999H15Z" fill="#25A8E0"/>
</g>
<defs>
<clipPath id="clip0_918_10554">
<rect width="16" height="16" fill="white" transform="translate(1 2.5)"/>
</clipPath>
</defs>
</svg>
