<svg width="20" height="24" viewBox="0 0 20 24" fill="none" xmlns="http://www.w3.org/2000/svg">
<path d="M10.1856 16.3377C10.7908 16.2361 11.1992 15.6631 11.0976 15.0578C10.9961 14.4525 10.4231 14.0441 9.81777 14.1457L10.1856 16.3377ZM12.2243 23.1129C12.838 23.1129 13.3356 22.6154 13.3356 22.0016C13.3356 21.3879 12.838 20.8903 12.2243 20.8903V23.1129ZM15.8804 17.882C15.4464 18.3159 15.4464 19.0196 15.8804 19.4535C16.3144 19.8875 17.0181 19.8875 17.452 19.4535L15.8804 17.882ZM13.4374 15.0568C13.2845 15.6513 13.6422 16.2571 14.2366 16.41C14.831 16.5631 15.4368 16.2052 15.5898 15.6109L13.4374 15.0568ZM16.6662 20.8903C16.0525 20.8903 15.5549 21.3879 15.5549 22.0016C15.5549 22.6154 16.0525 23.1129 16.6662 23.1129V20.8903ZM16.6773 23.1129C17.2911 23.1129 17.7886 22.6154 17.7886 22.0016C17.7886 21.3879 17.2911 20.8903 16.6773 20.8903V23.1129ZM12.2243 6.44352C12.2243 8.28477 10.7317 9.7774 8.8904 9.7774V12C11.9591 12 14.4469 9.51227 14.4469 6.44352H12.2243ZM8.8904 9.7774C7.04915 9.7774 5.55652 8.28477 5.55652 6.44352H3.33393C3.33393 9.51227 5.82165 12 8.8904 12V9.7774ZM5.55652 6.44352C5.55652 4.60228 7.04915 3.10964 8.8904 3.10964V0.887054C5.82165 0.887054 3.33393 3.37477 3.33393 6.44352H5.55652ZM8.8904 3.10964C10.7317 3.10964 12.2243 4.60228 12.2243 6.44352H14.4469C14.4469 3.37477 11.9591 0.887054 8.8904 0.887054V3.10964ZM8.8904 14.2226C8.07182 14.2226 7.29736 14.0462 6.60052 13.7306L5.68341 15.7552C6.66264 16.1988 7.74924 16.4452 8.8904 16.4452V14.2226ZM2.22264 20.2236V18.3167H5.02744e-05V20.2236H2.22264ZM2.88941 20.8903C2.55988 20.8903 2.37957 20.8894 2.25001 20.8789C2.13342 20.8693 2.15873 20.8578 2.22264 20.8903L1.21361 22.8707C1.51523 23.0244 1.81499 23.0734 2.06902 23.0941C2.31009 23.1138 2.59657 23.1129 2.88941 23.1129V20.8903ZM5.02744e-05 20.2236C5.02744e-05 20.5164 -0.000816654 20.8029 0.0188866 21.0439C0.0396344 21.298 0.0886092 21.5978 0.242301 21.8994L2.22264 20.8903C2.2552 20.9542 2.24361 20.9796 2.23408 20.863C2.2235 20.7334 2.22264 20.5531 2.22264 20.2236H5.02744e-05ZM2.22264 20.8903L0.242301 21.8994C0.45538 22.3176 0.795403 22.6576 1.21361 22.8707L2.22264 20.8903ZM2.22264 18.3167C2.22264 17.5618 2.22712 17.3322 2.25819 17.1605L0.071151 16.7645C-0.00442813 17.1821 5.02744e-05 17.6588 5.02744e-05 18.3167H2.22264ZM4.04489 13.1336C3.91285 13.1436 3.7838 13.1587 3.65336 13.1824L4.04929 15.3694C4.08981 15.3621 4.14124 15.3552 4.21379 15.3498L4.04489 13.1336ZM2.25819 17.1605C2.42331 16.2484 3.13718 15.5346 4.04929 15.3694L3.65336 13.1824C1.82913 13.5127 0.401405 14.9404 0.071151 16.7645L2.25819 17.1605ZM6.60052 13.7306C6.07723 13.4936 5.67719 13.3082 5.41144 13.2333L4.80806 15.3724C4.80149 15.3705 4.8139 15.3738 4.85604 15.3901C4.89637 15.4057 4.95147 15.4284 5.02769 15.4613C5.18197 15.528 5.38918 15.6218 5.68341 15.7552L6.60052 13.7306ZM4.21379 15.3498C4.47792 15.3296 4.51933 15.3285 4.58894 15.3338L4.75405 13.1173C4.48962 13.0976 4.28094 13.1156 4.04489 13.1336L4.21379 15.3498ZM5.41144 13.2333C5.17232 13.1658 5.0018 13.1357 4.75405 13.1173L4.58894 15.3338C4.65457 15.3386 4.68237 15.3426 4.6998 15.3456C4.71721 15.3488 4.74471 15.3545 4.80806 15.3724L5.41144 13.2333ZM9.81777 14.1457C9.51695 14.1961 9.20712 14.2226 8.8904 14.2226V16.4452C9.33092 16.4452 9.76365 16.4085 10.1856 16.3377L9.81777 14.1457ZM12.2243 20.8903H2.88941V23.1129H12.2243V20.8903ZM17.7774 15.8895C17.7774 16.082 17.727 16.2288 17.4225 16.5226C17.2517 16.6874 17.0505 16.8511 16.7716 17.083C16.5068 17.3034 16.1962 17.5661 15.8804 17.882L17.452 19.4535C17.6918 19.2137 17.9369 19.0048 18.1929 18.7918C18.435 18.5905 18.72 18.3591 18.9659 18.1218C19.495 17.6112 20 16.9246 20 15.8895H17.7774ZM16.6661 14.7782C17.2799 14.7782 17.7774 15.2757 17.7774 15.8895H20C20 14.0482 18.5074 12.5556 16.6661 12.5556V14.7782ZM15.5898 15.6109C15.7133 15.1313 16.1499 14.7782 16.6661 14.7782V12.5556C15.1112 12.5556 13.8074 13.6191 13.4374 15.0568L15.5898 15.6109ZM16.6662 23.1129H16.6773V20.8903H16.6662V23.1129Z" fill="#25A8E0"/>
</svg>
