<svg width="16" height="16" viewBox="0 0 16 16" fill="none" xmlns="http://www.w3.org/2000/svg">
<g clip-path="url(#clip0_454_2379)">
<path d="M8 1.33325C6.58551 1.33325 5.22896 1.89516 4.22876 2.89535C3.22857 3.89554 2.66667 5.2521 2.66667 6.66658V7.93325C2.46556 8.10848 2.3026 8.32318 2.18792 8.56401C2.07324 8.80484 2.00928 9.06667 2 9.33325C2.01518 9.71982 2.14679 10.0928 2.37758 10.4033C2.60836 10.7138 2.92755 10.9473 3.29333 11.0733C4.16 13.1466 5.9 14.6666 8 14.6666H10V13.3333H8C6.49333 13.3333 5.12667 12.1999 4.44 10.4066L4.3 10.0399L3.90667 9.99992C3.74648 9.97728 3.6 9.89716 3.49451 9.7745C3.38903 9.65185 3.33174 9.49502 3.33333 9.33325C3.33404 9.21691 3.36517 9.10278 3.42365 9.00219C3.48213 8.90161 3.56591 8.81809 3.66667 8.75992L4 8.56659V7.33325C4 7.15644 4.07024 6.98687 4.19526 6.86185C4.32029 6.73682 4.48986 6.66658 4.66667 6.66658H11.3333C11.5101 6.66658 11.6797 6.73682 11.8047 6.86185C11.9298 6.98687 12 7.15644 12 7.33325V10.6666H9.27333C9.21281 10.4969 9.10756 10.3467 8.96871 10.2318C8.82985 10.117 8.66255 10.0418 8.48449 10.0143C8.30643 9.98668 8.12423 10.0077 7.95714 10.0752C7.79005 10.1426 7.6443 10.2539 7.53527 10.3974C7.42624 10.5408 7.358 10.7111 7.33776 10.8901C7.31752 11.0692 7.34603 11.2504 7.42028 11.4145C7.49452 11.5787 7.61175 11.7198 7.75956 11.8228C7.90737 11.9259 8.08028 11.987 8.26 11.9999H13.3333C13.687 11.9999 14.0261 11.8594 14.2761 11.6094C14.5262 11.3593 14.6667 11.0202 14.6667 10.6666V9.33325C14.6667 8.97963 14.5262 8.64049 14.2761 8.39044C14.0261 8.14039 13.687 7.99992 13.3333 7.99992V6.66658C13.3333 5.2521 12.7714 3.89554 11.7712 2.89535C10.771 1.89516 9.41449 1.33325 8 1.33325Z" fill="#4E95FF"/>
</g>
<defs>
<clipPath id="clip0_454_2379">
<rect width="16" height="16" fill="white"/>
</clipPath>
</defs>
</svg>
