<svg width="16" height="16" viewBox="0 0 16 16" fill="none" xmlns="http://www.w3.org/2000/svg">
<g clip-path="url(#clip0_2500_1249)">
<path d="M14.5361 15.3031V13.7361C14.5361 12.9049 14.2059 12.1077 13.6182 11.52C13.0304 10.9322 12.2333 10.6021 11.4021 10.6021H5.13402C4.30283 10.6021 3.50568 10.9322 2.91793 11.52C2.33019 12.1077 2 12.9049 2 13.7361V15.3031" stroke="#25A8E0" stroke-width="1.95877" stroke-linecap="round" stroke-linejoin="round"/>
<path d="M8.26781 7.46806C9.99869 7.46806 11.4018 6.06491 11.4018 4.33404C11.4018 2.60316 9.99869 1.20001 8.26781 1.20001C6.53694 1.20001 5.13379 2.60316 5.13379 4.33404C5.13379 6.06491 6.53694 7.46806 8.26781 7.46806Z" stroke="#25A8E0" stroke-width="1.95877" stroke-linecap="round" stroke-linejoin="round"/>
<mask id="path-3-outside-1_2500_1249" maskUnits="userSpaceOnUse" x="-0.958008" y="6.24176" width="11" height="11" fill="black">
<rect fill="white" x="-0.958008" y="6.24176" width="11" height="11"/>
<path fill-rule="evenodd" clip-rule="evenodd" d="M1.54199 11.1258C1.54199 9.80912 2.60936 8.74176 3.92602 8.74176C5.24268 8.74176 6.31004 9.80912 6.31004 11.1258C6.31004 11.7603 6.06216 12.3369 5.65795 12.7641C5.64118 12.7782 5.62487 12.7931 5.60909 12.8089C5.59331 12.8246 5.57838 12.8409 5.56431 12.8577C5.13714 13.2619 4.56053 13.5098 3.92602 13.5098C2.60936 13.5098 1.54199 12.4424 1.54199 11.1258ZM6.09071 14.3511C5.47217 14.7671 4.72744 15.0098 3.92602 15.0098C1.78093 15.0098 0.0419922 13.2709 0.0419922 11.1258C0.0419922 8.9807 1.78093 7.24176 3.92602 7.24176C6.0711 7.24176 7.81004 8.9807 7.81004 11.1258C7.81004 11.9272 7.56731 12.6719 7.15137 13.2905L8.37388 14.513C8.66677 14.8059 8.66677 15.2808 8.37388 15.5736C8.08098 15.8665 7.60611 15.8665 7.31322 15.5736L6.09071 14.3511Z"/>
</mask>
<path fill-rule="evenodd" clip-rule="evenodd" d="M1.54199 11.1258C1.54199 9.80912 2.60936 8.74176 3.92602 8.74176C5.24268 8.74176 6.31004 9.80912 6.31004 11.1258C6.31004 11.7603 6.06216 12.3369 5.65795 12.7641C5.64118 12.7782 5.62487 12.7931 5.60909 12.8089C5.59331 12.8246 5.57838 12.8409 5.56431 12.8577C5.13714 13.2619 4.56053 13.5098 3.92602 13.5098C2.60936 13.5098 1.54199 12.4424 1.54199 11.1258ZM6.09071 14.3511C5.47217 14.7671 4.72744 15.0098 3.92602 15.0098C1.78093 15.0098 0.0419922 13.2709 0.0419922 11.1258C0.0419922 8.9807 1.78093 7.24176 3.92602 7.24176C6.0711 7.24176 7.81004 8.9807 7.81004 11.1258C7.81004 11.9272 7.56731 12.6719 7.15137 13.2905L8.37388 14.513C8.66677 14.8059 8.66677 15.2808 8.37388 15.5736C8.08098 15.8665 7.60611 15.8665 7.31322 15.5736L6.09071 14.3511Z" fill="#25A8E0"/>
<path d="M5.65795 12.7641L6.10791 13.3003C6.12845 13.2831 6.14798 13.2647 6.1664 13.2452L5.65795 12.7641ZM5.56431 12.8577L6.04543 13.3662C6.0649 13.3477 6.0833 13.3282 6.10054 13.3077L5.56431 12.8577ZM6.09071 14.3511L6.58568 13.8562C6.34899 13.6195 5.97785 13.5835 5.70008 13.7703L6.09071 14.3511ZM7.15137 13.2905L6.57049 12.8999C6.3837 13.1776 6.4197 13.5488 6.65639 13.7854L7.15137 13.2905ZM8.37388 14.513L8.86885 14.018L8.86885 14.018L8.37388 14.513ZM7.31322 15.5736L6.81824 16.0686L6.81824 16.0686L7.31322 15.5736ZM3.92602 8.04176C2.22276 8.04176 0.841992 9.42252 0.841992 11.1258H2.24199C2.24199 10.1957 2.99596 9.44176 3.92602 9.44176V8.04176ZM7.01004 11.1258C7.01004 9.42252 5.62928 8.04176 3.92602 8.04176V9.44176C4.85608 9.44176 5.61004 10.1957 5.61004 11.1258H7.01004ZM6.1664 13.2452C6.6887 12.6932 7.01004 11.9463 7.01004 11.1258H5.61004C5.61004 11.5743 5.43562 11.9806 5.1495 12.283L6.1664 13.2452ZM6.10407 13.3038C6.10543 13.3025 6.10671 13.3013 6.10791 13.3003L5.208 12.2278C5.17564 12.255 5.14431 12.2837 5.11412 12.3139L6.10407 13.3038ZM6.10054 13.3077C6.10154 13.3065 6.10271 13.3052 6.10407 13.3038L5.11412 12.3139C5.08392 12.3441 5.05523 12.3754 5.02808 12.4078L6.10054 13.3077ZM3.92602 14.2098C4.74651 14.2098 5.49346 13.8885 6.04543 13.3662L5.08318 12.3493C4.78082 12.6354 4.37454 12.8098 3.92602 12.8098V14.2098ZM0.841992 11.1258C0.841992 12.829 2.22276 14.2098 3.92602 14.2098V12.8098C2.99596 12.8098 2.24199 12.0558 2.24199 11.1258H0.841992ZM5.70008 13.7703C5.1934 14.111 4.58399 14.3098 3.92602 14.3098V15.7098C4.87089 15.7098 5.75094 15.4232 6.48133 14.932L5.70008 13.7703ZM3.92602 14.3098C2.16753 14.3098 0.741992 12.8843 0.741992 11.1258H-0.658008C-0.658008 13.6575 1.39433 15.7098 3.92602 15.7098V14.3098ZM0.741992 11.1258C0.741992 9.3673 2.16753 7.94176 3.92602 7.94176V6.54176C1.39433 6.54176 -0.658008 8.5941 -0.658008 11.1258H0.741992ZM3.92602 7.94176C5.68451 7.94176 7.11004 9.3673 7.11004 11.1258H8.51004C8.51004 8.5941 6.4577 6.54176 3.92602 6.54176V7.94176ZM7.11004 11.1258C7.11004 11.7838 6.91122 12.3932 6.57049 12.8999L7.73224 13.6811C8.22341 12.9507 8.51004 12.0707 8.51004 11.1258H7.11004ZM6.65639 13.7854L7.8789 15.008L8.86885 14.018L7.64634 12.7955L6.65639 13.7854ZM7.8789 15.008C7.89843 15.0275 7.89843 15.0591 7.8789 15.0787L8.86885 16.0686C9.43511 15.5024 9.43511 14.5843 8.86885 14.018L7.8789 15.008ZM7.8789 15.0787C7.85938 15.0982 7.82772 15.0982 7.80819 15.0787L6.81824 16.0686C7.3845 16.6349 8.30259 16.6349 8.86885 16.0686L7.8789 15.0787ZM7.80819 15.0787L6.58568 13.8562L5.59573 14.8461L6.81824 16.0686L7.80819 15.0787Z" fill="#E6ECF4" mask="url(#path-3-outside-1_2500_1249)"/>
</g>
<defs>
<clipPath id="clip0_2500_1249">
<rect width="16" height="16" fill="white"/>
</clipPath>
</defs>
</svg>
