<svg width="37" height="38" viewBox="0 0 37 38" fill="none" xmlns="http://www.w3.org/2000/svg">
<circle cx="18.488" cy="18.6313" r="18.3762" fill="#F5F6FA"/>
<g clip-path="url(#clip0_837_8233)">
<path fill-rule="evenodd" clip-rule="evenodd" d="M18.4881 9.44336V11.4852C22.4278 11.4852 25.6344 14.6908 25.6344 18.6315C25.6344 22.5721 22.4278 25.7778 18.4881 25.7778C14.5485 25.7778 11.3418 22.5721 11.3418 18.6315C11.3418 16.7459 12.0922 14.9705 13.3836 13.6474V16.0792H15.4254V10.4643H9.8105V12.5061H11.6389C10.1484 14.1722 9.30005 16.3436 9.30005 18.6315C9.30005 23.6972 13.4214 27.8196 18.4881 27.8196C23.5549 27.8196 27.6762 23.6972 27.6762 18.6315C27.6762 13.5658 23.5549 9.44336 18.4881 9.44336Z" fill="#8D93A7"/>
</g>
<defs>
<clipPath id="clip0_837_8233">
<rect width="18.3762" height="18.3762" fill="white" transform="translate(9.30005 9.44336)"/>
</clipPath>
</defs>
</svg>
