<svg width="24" height="25" viewBox="0 0 24 25" fill="none" xmlns="http://www.w3.org/2000/svg">
<path d="M19 8.46484L15 12.4648H18C18 15.7748 15.31 18.4648 12 18.4648C10.99 18.4648 10.03 18.2148 9.2 17.7648L7.74 19.2248C8.97 20.0048 10.43 20.4648 12 20.4648C16.42 20.4648 20 16.8848 20 12.4648H23L19 8.46484ZM6 12.4648C6 9.15484 8.69 6.46484 12 6.46484C13.01 6.46484 13.97 6.71484 14.8 7.16484L16.26 5.70484C15.03 4.92484 13.57 4.46484 12 4.46484C7.58 4.46484 4 8.04484 4 12.4648H1L5 16.4648L9 12.4648H6Z" fill="#abaaab"/>
</svg>
