<svg width="43" height="42" viewBox="0 0 43 42" fill="none" xmlns="http://www.w3.org/2000/svg">
<circle cx="21.5" cy="21" r="21" fill="#DC3835" fill-opacity="0.1"/>
<path fill-rule="evenodd" clip-rule="evenodd" d="M28.2519 12.4275C28.5853 12.237 29 12.4777 29 12.8616V29.1384C29 29.5223 28.5853 29.763 28.2519 29.5725L25.9961 28.2835C25.6887 28.1078 25.3113 28.1078 25.0039 28.2835L22.7938 29.5464C22.3019 29.8275 21.6981 29.8275 21.2062 29.5464L18.9961 28.2835C18.6887 28.1078 18.3113 28.1078 18.0039 28.2835L15.7481 29.5725C15.4147 29.763 15 29.5223 15 29.1384V12.8616C15 12.4777 15.4147 12.237 15.7481 12.4275L18.0039 13.7165C18.3113 13.8922 18.6887 13.8922 18.9961 13.7165L21.2062 12.4536C21.6981 12.1725 22.3019 12.1725 22.7938 12.4536L25.0039 13.7165C25.3113 13.8922 25.6887 13.8922 25.9961 13.7165L28.2519 12.4275ZM19.5 18C19.2239 18 19 18.2238 19 18.5C19 18.7761 19.2239 19 19.5 19H24.5C24.7761 19 25 18.7761 25 18.5C25 18.2238 24.7761 18 24.5 18H19.5ZM19.5 20.5C19.2239 20.5 19 20.7239 19 21C19 21.2761 19.2239 21.5 19.5 21.5H24.5C24.7761 21.5 25 21.2761 25 21C25 20.7239 24.7761 20.5 24.5 20.5H19.5ZM19.5 23C19.2239 23 19 23.2239 19 23.5C19 23.7761 19.2239 24 19.5 24H24.5C24.7761 24 25 23.7761 25 23.5C25 23.2239 24.7761 23 24.5 23H19.5Z" fill="#DC3835"/>
</svg>
