<svg width="42" height="42" viewBox="0 0 42 42" fill="none" xmlns="http://www.w3.org/2000/svg">
<circle cx="21" cy="21" r="21" fill="#00C680" fill-opacity="0.1"/>
<path fill-rule="evenodd" clip-rule="evenodd" d="M27.2519 12.4275C27.5853 12.237 28 12.4777 28 12.8616V29.1384C28 29.5223 27.5853 29.763 27.2519 29.5725L24.9961 28.2835C24.6887 28.1078 24.3113 28.1078 24.0039 28.2835L21.7938 29.5464C21.3019 29.8275 20.6981 29.8275 20.2062 29.5464L17.9961 28.2835C17.6887 28.1078 17.3113 28.1078 17.0039 28.2835L14.7481 29.5725C14.4147 29.763 14 29.5223 14 29.1384V12.8616C14 12.4777 14.4147 12.237 14.7481 12.4275L17.0039 13.7165C17.3113 13.8922 17.6887 13.8922 17.9961 13.7165L20.2062 12.4536C20.6981 12.1725 21.3019 12.1725 21.7938 12.4536L24.0039 13.7165C24.3113 13.8922 24.6887 13.8922 24.9961 13.7165L27.2519 12.4275ZM18.5 18C18.2239 18 18 18.2238 18 18.5C18 18.7761 18.2239 19 18.5 19H23.5C23.7761 19 24 18.7761 24 18.5C24 18.2238 23.7761 18 23.5 18H18.5ZM18.5 20.5C18.2239 20.5 18 20.7239 18 21C18 21.2761 18.2239 21.5 18.5 21.5H23.5C23.7761 21.5 24 21.2761 24 21C24 20.7239 23.7761 20.5 23.5 20.5H18.5ZM18.5 23C18.2239 23 18 23.2239 18 23.5C18 23.7761 18.2239 24 18.5 24H23.5C23.7761 24 24 23.7761 24 23.5C24 23.2239 23.7761 23 23.5 23H18.5Z" fill="#00C680"/>
</svg>
