<svg width="43" height="42" viewBox="0 0 43 42" fill="none" xmlns="http://www.w3.org/2000/svg">
<circle cx="21.5" cy="21" r="21" fill="#FEA501" fill-opacity="0.1"/>
<g clip-path="url(#clip0_590_6470)">
<path d="M22 11C19.8783 11 17.8434 11.8429 16.3431 13.3431C14.8429 14.8434 14 16.8783 14 19V20.9C13.6983 21.1628 13.4539 21.4849 13.2819 21.8461C13.1099 22.2074 13.0139 22.6001 13 23C13.0228 23.5798 13.2202 24.1393 13.5664 24.605C13.9125 25.0708 14.3913 25.421 14.94 25.61C16.24 28.72 18.85 31 22 31H25V29H22C19.74 29 17.69 27.3 16.66 24.61L16.45 24.06L15.86 24C15.6197 23.966 15.4 23.8459 15.2418 23.6619C15.0835 23.4779 14.9976 23.2427 15 23C15.0011 22.8255 15.0478 22.6543 15.1355 22.5034C15.2232 22.3525 15.3489 22.2273 15.5 22.14L16 21.85V20C16 19.7348 16.1054 19.4804 16.2929 19.2929C16.4804 19.1054 16.7348 19 17 19H27C27.2652 19 27.5196 19.1054 27.7071 19.2929C27.8946 19.4804 28 19.7348 28 20V25H23.91C23.8192 24.7454 23.6613 24.5201 23.4531 24.3479C23.2448 24.1756 22.9938 24.0629 22.7267 24.0215C22.4596 23.9801 22.1863 24.0117 21.9357 24.1129C21.6851 24.214 21.4664 24.381 21.3029 24.5962C21.1394 24.8114 21.037 25.0668 21.0066 25.3353C20.9763 25.6039 21.019 25.8757 21.1304 26.1219C21.2418 26.3682 21.4176 26.5798 21.6393 26.7343C21.8611 26.8889 22.1204 26.9807 22.39 27H30C30.5304 27 31.0391 26.7893 31.4142 26.4142C31.7893 26.0391 32 25.5304 32 25V23C32 22.4696 31.7893 21.9609 31.4142 21.5858C31.0391 21.2107 30.5304 21 30 21V19C30 16.8783 29.1571 14.8434 27.6569 13.3431C26.1566 11.8429 24.1217 11 22 11Z" fill="#FEA501"/>
</g>
<defs>
<clipPath id="clip0_590_6470">
<rect width="24" height="24" fill="white" transform="translate(10 9)"/>
</clipPath>
</defs>
</svg>
