<svg width="54" height="54" viewBox="0 0 54 54" fill="none" xmlns="http://www.w3.org/2000/svg">
<circle cx="27" cy="27" r="27" fill="#25A8E0" fill-opacity="0.1"/>
<path d="M26.24 25.7933C28.6185 25.7933 30.5467 23.8652 30.5467 21.4867C30.5467 19.1082 28.6185 17.18 26.24 17.18C23.8615 17.18 21.9333 19.1082 21.9333 21.4867C21.9333 23.8652 23.8615 25.7933 26.24 25.7933Z" fill="#25A8E0"/>
<path d="M33.6667 33.6667H29V34.6H33.6667V33.6667Z" fill="#25A8E0"/>
<path d="M25.0001 35V37C25.0001 37.1768 25.0703 37.3464 25.1954 37.4714C25.3204 37.5964 25.49 37.6667 25.6668 37.6667H37.0001C37.1769 37.6667 37.3465 37.5964 37.4715 37.4714C37.5965 37.3464 37.6668 37.1768 37.6668 37V30.3333C37.6668 30.1565 37.5965 29.987 37.4715 29.8619C37.3465 29.7369 37.1769 29.6667 37.0001 29.6667H32.3334V28.6867C32.3334 28.5099 32.2632 28.3403 32.1382 28.2153C32.0131 28.0902 31.8436 28.02 31.6668 28.02C31.49 28.02 31.3204 28.0902 31.1954 28.2153C31.0703 28.3403 31.0001 28.5099 31.0001 28.6867V29.6667H29.6668V27.28C28.5339 27.095 27.388 27.0013 26.2401 27C23.7086 26.9892 21.2055 27.5331 18.9068 28.5933C18.5284 28.7719 18.2092 29.0552 17.9871 29.4097C17.7649 29.7642 17.6491 30.175 17.6534 30.5933V35H25.0001ZM36.3334 36.3333H26.3334V31H31.0001V31.28C31.0001 31.4568 31.0703 31.6264 31.1954 31.7514C31.3204 31.8764 31.49 31.9467 31.6668 31.9467C31.8436 31.9467 32.0131 31.8764 32.1382 31.7514C32.2632 31.6264 32.3334 31.4568 32.3334 31.28V31H36.3334V36.3333Z" fill="#25A8E0"/>
</svg>
