<svg width="54" height="54" viewBox="0 0 54 54" fill="none" xmlns="http://www.w3.org/2000/svg">
<circle cx="27" cy="27" r="27" fill="#09418D" fill-opacity="0.1"/>
<g clip-path="url(#clip0_2469_1176)">
<path d="M35.6483 32.4645H18.3447V34.2859H35.6483V32.4645Z" fill="#09418D"/>
<path d="M36.1025 35.1967H17.8883C17.6467 35.1967 17.4151 35.2926 17.2443 35.4634C17.0735 35.6342 16.9775 35.8658 16.9775 36.1074V37.0181H37.0133V36.1074C37.0133 35.8658 36.9173 35.6342 36.7465 35.4634C36.5757 35.2926 36.3441 35.1967 36.1025 35.1967Z" fill="#09418D"/>
<path d="M22.4442 24.2679H20.6228V31.5536H22.4442V24.2679Z" fill="#09418D"/>
<path d="M27.9091 24.2679H26.0876V31.5536H27.9091V24.2679Z" fill="#09418D"/>
<path d="M33.372 24.2679H31.5505V31.5536H33.372V24.2679Z" fill="#09418D"/>
<path d="M36.5121 21.2627L26.9952 16.9823L17.4782 21.2627C17.3298 21.343 17.2053 21.4611 17.1174 21.6051C17.0294 21.749 16.9811 21.9137 16.9773 22.0823V22.4466C16.9773 22.6882 17.0732 22.9198 17.244 23.0906C17.4148 23.2614 17.6465 23.3573 17.888 23.3573H36.1023C36.3438 23.3573 36.5755 23.2614 36.7463 23.0906C36.9171 22.9198 37.013 22.6882 37.013 22.4466V22.0823C37.0092 21.9137 36.9609 21.749 36.8729 21.6051C36.785 21.4611 36.6605 21.343 36.5121 21.2627ZM21.3487 21.5359L26.9952 18.9859L32.6416 21.5359H21.3487Z" fill="#09418D"/>
</g>
<defs>
<clipPath id="clip0_2469_1176">
<rect width="21.8571" height="21.8571" fill="white" transform="translate(16.0723 16.0713)"/>
</clipPath>
</defs>
</svg>
