<svg width="43" height="42" viewBox="0 0 43 42" fill="none" xmlns="http://www.w3.org/2000/svg">
<circle cx="21.5" cy="21" r="21" fill="#8A17D7" fill-opacity="0.1"/>
<g clip-path="url(#clip0_4761_26177)">
<path d="M28 32H14C12.9 32 12 31.1 12 30V16H14V30H28V32ZM24.5 16V14H22.5V16H20.5V18H22.5V20H24.5V18H26.5V16H24.5ZM26.5 22H20.5V24H26.5V22ZM25 10H18C16.9 10 16.01 10.9 16.01 12L16 26C16 27.1 16.89 28 17.99 28H29C30.1 28 31 27.1 31 26V16L25 10ZM29 26H18V12H24.17L29 16.83V26Z" fill="#8A17D7"/>
</g>
<defs>
<clipPath id="clip0_4761_26177">
<rect width="24" height="24" fill="white" transform="translate(10 9)"/>
</clipPath>
</defs>
</svg>