<svg width="42" height="42" viewBox="0 0 42 42" fill="none" xmlns="http://www.w3.org/2000/svg">
<circle cx="21" cy="21" r="21" fill="#4E95FF" fill-opacity="0.1"/>
<g clip-path="url(#clip0_4761_26168)">
<path d="M23.17 14L28 18.83V28H14V14H23.17ZM23.17 12H14C12.9 12 12 12.9 12 14V28C12 29.1 12.9 30 14 30H28C29.1 30 30 29.1 30 28V18.83C30 18.3 29.79 17.79 29.41 17.42L24.58 12.59C24.21 12.21 23.7 12 23.17 12ZM16 24H26V26H16V24ZM16 20H26V22H16V20ZM16 16H23V18H16V16Z" fill="#4E95FF"/>
</g>
<defs>
<clipPath id="clip0_4761_26168">
<rect width="24" height="24" fill="white" transform="translate(9 9)"/>
</clipPath>
</defs>
</svg>
