<svg width="42" height="42" viewBox="0 0 42 42" fill="none" xmlns="http://www.w3.org/2000/svg">
<circle cx="21" cy="21" r="21" fill="#DC3835" fill-opacity="0.1"/>
<g clip-path="url(#clip0_4761_26186)">
<path d="M30.5 12L28.83 13.67L27.17 12L25.5 13.67L23.83 12L22.17 13.67L20.5 12L18.83 13.67L17.17 12L15.5 13.67L13.83 12L12.17 13.67L10.5 12V28C10.5 29.1 11.4 30 12.5 30H28.5C29.6 30 30.5 29.1 30.5 28V12ZM19.5 28H12.5V22H19.5V28ZM28.5 28H21.5V26H28.5V28ZM28.5 24H21.5V22H28.5V24ZM28.5 20H12.5V17H28.5V20Z" fill="#DC3835"/>
</g>
<defs>
<clipPath id="clip0_4761_26186">
<rect width="24" height="24" fill="white" transform="translate(9 9)"/>
</clipPath>
</defs>
</svg>

