<svg width="21" height="20" viewBox="0 0 21 20" fill="none" xmlns="http://www.w3.org/2000/svg">
<path d="M17.1667 5.83337H3.83332C2.91285 5.83337 2.16666 6.57957 2.16666 7.50004V15.8334C2.16666 16.7538 2.91285 17.5 3.83332 17.5H17.1667C18.0871 17.5 18.8333 16.7538 18.8333 15.8334V7.50004C18.8333 6.57957 18.0871 5.83337 17.1667 5.83337Z" stroke="#898989" stroke-width="1.66667" stroke-linecap="round" stroke-linejoin="round"/>
<path d="M13.8333 17.5V4.16667C13.8333 3.72464 13.6577 3.30072 13.3452 2.98816C13.0326 2.67559 12.6087 2.5 12.1667 2.5H8.83332C8.3913 2.5 7.96737 2.67559 7.65481 2.98816C7.34225 3.30072 7.16666 3.72464 7.16666 4.16667V17.5" stroke="#898989" stroke-width="1.66667" stroke-linecap="round" stroke-linejoin="round"/>
</svg>
