<svg width="81" height="81" viewBox="0 0 81 81" fill="none" xmlns="http://www.w3.org/2000/svg">
<path fill-rule="evenodd" clip-rule="evenodd" d="M80.808 40.404C80.808 62.7184 62.7183 80.8081 40.404 80.8081C18.0894 80.8081 -6.10352e-05 62.7184 -6.10352e-05 40.404C-6.10352e-05 18.0895 18.0894 0 40.404 0C62.7183 0 80.808 18.0895 80.808 40.404ZM58.8787 29.8384C59.9151 30.4747 60.5878 31.6202 60.5878 32.9293L60.606 51.1111C60.606 53.1111 58.9696 54.7475 56.9696 54.7475H27.8787C25.8787 54.7475 24.2424 53.1111 24.2424 51.1111V32.9293C24.2424 31.6202 24.9333 30.4747 25.9696 29.8384L42.4242 20.202L58.8787 29.8384ZM56.9515 32.9475V32.9293L42.4242 24.4202L27.8787 32.9293L42.4242 42.0202L56.9515 32.9475ZM27.8787 51.1111V37.1838L42.4242 46.3111L56.9515 37.2384L56.9696 51.1111H27.8787Z" fill="#4E95FF"/>
</svg>
