<svg width="28" height="28" viewBox="0 0 42 42" fill="none" xmlns="http://www.w3.org/2000/svg">
  <g clip-path="url(#clip0_271_29801)">
    <rect width="60" height="60" fill="white"/>
    <path d="M14.75 27.6666V19.3333H24.75V20.1666C25.3333 20.1666 25.8917 20.25 26.4167 20.4083V19.3333C26.4167 18.4166 25.6667 17.6666 24.75 17.6666H23.9167V16C23.9167 13.7 22.05 11.8333 19.75 11.8333C17.45 11.8333 15.5833 13.7 15.5833 16V17.6666H14.75C13.8333 17.6666 13.0833 18.4166 13.0833 19.3333V27.6666C13.0833 28.5833 13.8333 29.3333 14.75 29.3333H19.9667C19.6167 28.8333 19.3417 28.2666 19.1583 27.6666H14.75ZM17.25 16C17.25 14.6166 18.3667 13.5 19.75 13.5C21.1333 13.5 22.25 14.6166 22.25 16V17.6666H17.25V16Z" fill="#2E2E2E"/>
    <path d="M24.75 21.8333C22.45 21.8333 20.5833 23.7 20.5833 26C20.5833 28.3 22.45 30.1666 24.75 30.1666C27.05 30.1666 28.9167 28.3 28.9167 26C28.9167 23.7 27.05 21.8333 24.75 21.8333ZM24.75 23.5C25.4417 23.5 26 24.0583 26 24.75C26 25.4416 25.4417 26 24.75 26C24.0583 26 23.5 25.4416 23.5 24.75C23.5 24.0583 24.0583 23.5 24.75 23.5ZM24.75 28.5C23.8917 28.5 23.1333 28.0666 22.6833 27.4C23.2917 27.05 23.9917 26.8333 24.75 26.8333C25.5083 26.8333 26.2083 27.05 26.8167 27.4C26.3667 28.0666 25.6083 28.5 24.75 28.5Z" fill="#2E2E2E"/>
  </g>
  <rect x="0.5" y="0.5" width="41" height="41" rx="20.5" stroke="#E6ECF4"/>
  <defs>
    <clipPath id="clip0_271_29801">
      <rect width="42" height="42" rx="21" fill="white"/>
    </clipPath>
  </defs>
</svg> 