<svg width="32" height="20" viewBox="0 0 32 20" fill="none" xmlns="http://www.w3.org/2000/svg">
<path d="M10.5051 15.0304V13.9799C10.5051 13.4227 10.2837 12.8883 9.88968 12.4943C9.49567 12.1003 8.96127 11.8789 8.40404 11.8789H4.20202C3.6448 11.8789 3.1104 12.1003 2.71638 12.4943C2.32237 12.8883 2.10101 13.4227 2.10101 13.9799V15.0304" stroke="#4E79B9" stroke-width="1.05051" stroke-linecap="round" stroke-linejoin="round"/>
<path d="M6.30304 9.7777C7.46339 9.7777 8.40405 8.83705 8.40405 7.67669C8.40405 6.51634 7.46339 5.57568 6.30304 5.57568C5.14268 5.57568 4.20203 6.51634 4.20203 7.67669C4.20203 8.83705 5.14268 9.7777 6.30304 9.7777Z" stroke="#4E79B9" stroke-width="1.05051" stroke-linecap="round" stroke-linejoin="round"/>
<path d="M29.6111 15.0302V13.9797C29.6111 13.4224 29.3897 12.888 28.9957 12.494C28.6017 12.1 28.0673 11.8787 27.5101 11.8787H23.3081C22.7508 11.8787 22.2164 12.1 21.8224 12.494C21.4284 12.888 21.2071 13.4224 21.2071 13.9797V15.0302" stroke="#4E79B9" stroke-width="1.05051" stroke-linecap="round" stroke-linejoin="round"/>
<path d="M25.4091 9.7777C26.5694 9.7777 27.5101 8.83705 27.5101 7.67669C27.5101 6.51634 26.5694 5.57568 25.4091 5.57568C24.2487 5.57568 23.3081 6.51634 23.3081 7.67669C23.3081 8.83705 24.2487 9.7777 25.4091 9.7777Z" stroke="#4E79B9" stroke-width="1.05051" stroke-linecap="round" stroke-linejoin="round"/>
<path d="M15.856 8.07373V13.0321" stroke="#4E79B9" stroke-width="0.708333" stroke-linecap="round" stroke-linejoin="round"/>
<path d="M13.3769 10.553H18.3352" stroke="#4E79B9" stroke-width="0.708333" stroke-linecap="round" stroke-linejoin="round"/>
</svg>
