<svg width="80" height="81" viewBox="0 0 80 81" fill="none" xmlns="http://www.w3.org/2000/svg">
<rect y="0.5" width="80" height="80" rx="40" fill="#4E95FF"/>
<g clip-path="url(#clip0_3826_12966)">
<path d="M49.3241 25.1032C46.6598 23.4898 43.6225 22.5953 40.509 22.5072C37.3955 22.4191 34.3124 23.1405 31.5611 24.6008C28.8099 26.061 26.4847 28.2103 24.8128 30.8383C23.1409 33.4663 22.1796 36.4832 22.0228 39.594C21.866 42.7048 22.5192 45.803 23.9184 48.5858C25.3175 51.3686 27.4149 53.7407 30.0054 55.4702C32.5959 57.1997 35.5908 58.2274 38.6974 58.4528C41.804 58.6782 44.9159 58.0936 47.7289 56.7562C48.2536 56.4917 48.654 56.0324 48.8444 55.4765C49.0349 54.9207 49.0004 54.3123 48.7483 53.7816C48.4961 53.2509 48.0464 52.8398 47.4951 52.6363C46.9439 52.4328 46.3349 52.4531 45.7984 52.6927C43.3833 53.8415 40.6815 54.2471 38.0356 53.8581C35.3897 53.4691 32.919 52.303 30.9368 50.5077C28.9546 48.7124 27.5503 46.3688 26.902 43.7743C26.2537 41.1797 26.3906 38.451 27.2954 35.9344C28.2002 33.4177 29.8321 31.2265 31.984 29.6387C34.136 28.0509 36.7111 27.138 39.3826 27.0158C42.0542 26.8936 44.7018 27.5677 46.9897 28.9525C49.2776 30.3373 51.1027 32.3704 52.2334 34.794C52.4855 35.3352 52.9423 35.7541 53.5033 35.9586C54.0643 36.163 54.6835 36.1362 55.2248 35.8841C55.766 35.632 56.1849 35.1752 56.3894 34.6142C56.5938 34.0532 56.567 33.434 56.3149 32.8927C54.8076 29.6611 52.3745 26.95 49.3241 25.1032Z" fill="white"/>
<path d="M37.7497 33.75C37.7497 33.1533 37.9867 32.581 38.4087 32.159C38.8307 31.7371 39.403 31.5 39.9997 31.5C40.5964 31.5 41.1687 31.7371 41.5907 32.159C42.0126 32.581 42.2497 33.1533 42.2497 33.75V42.75C42.2495 43.1677 42.133 43.5772 41.9132 43.9324C41.6934 44.2877 41.3791 44.5748 41.0054 44.7615L36.5054 47.0115C36.2402 47.1545 35.949 47.2428 35.649 47.2711C35.349 47.2995 35.0464 47.2672 34.7591 47.1764C34.4718 47.0855 34.2056 46.9379 33.9765 46.7422C33.7473 46.5465 33.5598 46.3068 33.425 46.0373C33.2903 45.7678 33.211 45.474 33.192 45.1732C33.173 44.8725 33.2145 44.571 33.3142 44.2867C33.4139 44.0023 33.5697 43.7409 33.7724 43.5179C33.975 43.2949 34.2204 43.1149 34.4939 42.9885L37.7497 41.3595V33.75ZM57.9997 56.25C57.9997 56.8467 57.7626 57.419 57.3407 57.841C56.9187 58.2629 56.3464 58.5 55.7497 58.5C55.1529 58.5 54.5807 58.2629 54.1587 57.841C53.7367 57.419 53.4997 56.8467 53.4997 56.25C53.4997 55.6533 53.7367 55.081 54.1587 54.659C54.5807 54.2371 55.1529 54 55.7497 54C56.3464 54 56.9187 54.2371 57.3407 54.659C57.7626 55.081 57.9997 55.6533 57.9997 56.25ZM55.7497 40.5C55.1529 40.5 54.5807 40.7371 54.1587 41.159C53.7367 41.581 53.4997 42.1533 53.4997 42.75V49.5C53.4997 50.0967 53.7367 50.669 54.1587 51.091C54.5807 51.5129 55.1529 51.75 55.7497 51.75C56.3464 51.75 56.9187 51.5129 57.3407 51.091C57.7626 50.669 57.9997 50.0967 57.9997 49.5V42.75C57.9997 42.1533 57.7626 41.581 57.3407 41.159C56.9187 40.7371 56.3464 40.5 55.7497 40.5Z" fill="white"/>
</g>
<defs>
<clipPath id="clip0_3826_12966">
<rect width="36" height="36" fill="white" transform="translate(22 22.5)"/>
</clipPath>
</defs>
</svg>
