<svg width="71" height="26" viewBox="0 0 71 26" fill="none" xmlns="http://www.w3.org/2000/svg">
<path fill-rule="evenodd" clip-rule="evenodd" d="M9.41613 0.3002H34.3085H36.8029H61.6952V0.299805H70.5557L61.6954 12.8993V12.8998L70.5557 25.4994H61.6954V25.4998H36.8029H34.3085H9.41598V25.4994H0.555664L9.41598 12.8998V12.8994L0.555664 0.299805H9.41613V0.3002Z" fill="#4E95FF"/>
<path d="M20.9971 16.3496V8.72337H25.9718V10.4129H23.0151V11.8677H25.5494V13.5572H23.0151V16.3496H20.9971ZM27.2874 16.3496V8.72337H30.1736C30.7212 8.72337 31.2257 8.79768 31.6871 8.94629C32.1486 9.08709 32.5202 9.33738 32.8017 9.69718C33.0833 10.057 33.2241 10.5537 33.2241 11.1872C33.2241 11.7348 33.1107 12.1884 32.8839 12.5482C32.657 12.908 32.3598 13.1896 31.9922 13.393L33.6465 16.3496H31.3938L30.0798 13.7919H29.3054V16.3496H27.2874ZM29.3054 12.1962H30.0328C30.8463 12.1962 31.253 11.8599 31.253 11.1872C31.253 10.8587 31.1474 10.6319 30.9363 10.5067C30.7329 10.3816 30.4317 10.319 30.0328 10.319H29.3054V12.1962ZM34.6776 16.3496V8.72337H39.6053V10.4129H36.6956V11.6096H39.1829V13.2991H36.6956V14.6601H39.7227V16.3496H34.6776ZM41.197 16.3496V8.72337H46.1247V10.4129H43.215V11.6096H45.7024V13.2991H43.215V14.6601H46.2421V16.3496H41.197ZM48.3265 13.4868L48.045 10.2252L47.9746 8.48872H49.9926L49.9222 10.2252L49.6406 13.4868H48.3265ZM48.9836 16.4904C48.6472 16.4904 48.3657 16.3731 48.1388 16.1384C47.9198 15.8959 47.8103 15.6065 47.8103 15.2702C47.8103 14.926 47.9198 14.6366 48.1388 14.402C48.3657 14.1673 48.6472 14.05 48.9836 14.05C49.3277 14.05 49.6093 14.1673 49.8283 14.402C50.0473 14.6366 50.1568 14.926 50.1568 15.2702C50.1568 15.6065 50.0473 15.8959 49.8283 16.1384C49.6093 16.3731 49.3277 16.4904 48.9836 16.4904Z" fill="white"/>
</svg>
