<svg width="16" height="17" viewBox="0 0 16 17" fill="none" xmlns="http://www.w3.org/2000/svg">
<g clip-path="url(#clip0_252_4488)">
<path d="M8.41778 2.04135C7.58758 1.67467 6.68501 1.50111 5.77802 1.53372C4.87103 1.56634 3.98326 1.80429 3.18154 2.22965C2.37982 2.65502 1.68505 3.25672 1.14952 3.98946C0.61399 4.72219 0.251666 5.56687 0.0898227 6.4599C-0.0720205 7.35292 -0.0291654 8.27103 0.215162 9.1451C0.459489 10.0192 0.898921 10.8264 1.50038 11.5061C1.74438 11.7818 2.1657 11.8075 2.44143 11.5635C2.71716 11.3195 2.74288 10.8982 2.49888 10.6225C2.03108 10.0938 1.6893 9.46599 1.49927 8.78615C1.30924 8.10632 1.27591 7.39224 1.40178 6.69766C1.52766 6.00309 1.80947 5.34611 2.22599 4.77621C2.64251 4.2063 3.1829 3.73832 3.80646 3.40747C4.43001 3.07663 5.1205 2.89156 5.82594 2.86619C6.53137 2.84083 7.23337 2.97582 7.87909 3.26102C8.5248 3.54621 9.0974 3.97418 9.55378 4.51269C10.0102 5.0512 10.3384 5.68623 10.5139 6.36998C10.5895 6.6648 10.8553 6.87095 11.1596 6.87095H11.9996C12.5665 6.8705 13.1192 7.0507 13.5767 7.38538C14.0342 7.72006 14.3732 8.19182 14.5444 8.73219C14.7156 9.27256 14.7101 9.85342 14.5288 10.3905C14.3475 10.9276 13.9998 11.3929 13.5361 11.7189C13.235 11.9307 13.1625 12.3466 13.3743 12.6478C13.5861 12.9489 14.0019 13.0214 14.3031 12.8096C14.9986 12.3205 15.5202 11.6225 15.7921 10.8169C16.0641 10.0113 16.0722 9.14003 15.8154 8.32947C15.5586 7.51892 15.0502 6.81129 14.364 6.30926C13.6779 5.80734 12.8497 5.53706 11.9996 5.53761H11.6532C11.411 4.84932 11.0446 4.20955 10.571 3.65064C9.98419 2.95827 9.24799 2.40803 8.41778 2.04135Z" fill="#E9F6FC"/>
<path d="M7.99967 7.53762C8.36786 7.53762 8.66634 7.83609 8.66634 8.20428V12.5948L10.1949 11.0662C10.4553 10.8059 10.8774 10.8059 11.1377 11.0662C11.3981 11.3266 11.3981 11.7487 11.1377 12.009L8.47108 14.6757C8.21073 14.936 7.78862 14.936 7.52827 14.6757L4.8616 12.009C4.60125 11.7487 4.60125 11.3266 4.8616 11.0662C5.12195 10.8059 5.54406 10.8059 5.80441 11.0662L7.33301 12.5948V8.20428C7.33301 7.83609 7.63148 7.53762 7.99967 7.53762Z" fill="#E9F6FC"/>
</g>
<defs>
<clipPath id="clip0_252_4488">
<rect width="16" height="16" fill="white" transform="translate(0 0.204254)"/>
</clipPath>
</defs>
</svg>
