<svg width="21" height="20" viewBox="0 0 21 20" fill="none" xmlns="http://www.w3.org/2000/svg">
<path d="M9.66797 3.7417H3.83464C3.39261 3.7417 2.96868 3.91729 2.65612 4.22985C2.34356 4.54242 2.16797 4.96634 2.16797 5.40837V17.075C2.16797 17.5171 2.34356 17.941 2.65612 18.2535C2.96868 18.5661 3.39261 18.7417 3.83464 18.7417H15.5013C15.9433 18.7417 16.3673 18.5661 16.6798 18.2535C16.9924 17.941 17.168 17.5171 17.168 17.075V11.2417" stroke="#25A8E0" stroke-width="1.66667" stroke-linecap="round" stroke-linejoin="round"/>
<path d="M15.918 2.49189C16.2495 2.16037 16.6991 1.97412 17.168 1.97412C17.6368 1.97412 18.0864 2.16037 18.418 2.49189C18.7495 2.82341 18.9357 3.27305 18.9357 3.74189C18.9357 4.21073 18.7495 4.66037 18.418 4.99189L10.5013 12.9086L7.16797 13.7419L8.0013 10.4086L15.918 2.49189Z" stroke="#25A8E0" stroke-width="1.66667" stroke-linecap="round" stroke-linejoin="round"/>
</svg>
