<svg width="42" height="42" viewBox="0 0 42 42" fill="none" xmlns="http://www.w3.org/2000/svg">
<circle cx="21" cy="21" r="21" fill="#4E95FF" fill-opacity="0.1"/>
<g clip-path="url(#clip0_3023_12240)">
<path d="M16.9993 19.76C16.8082 19.76 16.6149 19.76 16.4193 19.76C15.6278 19.7314 14.8389 19.8658 14.1015 20.1548C13.3641 20.4438 12.6939 20.8812 12.1327 21.44L11.9727 21.6267V27.1467H14.6927V24.0133L15.0593 23.6L15.226 23.4067C16.0939 22.515 17.1745 21.8589 18.366 21.5C17.7695 21.0461 17.299 20.4471 16.9993 19.76Z" fill="#4E95FF"/>
<path d="M29.8935 21.42C29.3323 20.8612 28.6621 20.4237 27.9247 20.1347C27.1873 19.8457 26.3984 19.7114 25.6069 19.74C25.3641 19.7407 25.1216 19.754 24.8802 19.78C24.5749 20.4246 24.1173 20.9852 23.5469 21.4133C24.8189 21.7652 25.9711 22.4566 26.8802 23.4133L27.0469 23.6L27.4069 24.0133V27.1533H30.0335V21.6066L29.8935 21.42Z" fill="#4E95FF"/>
<path d="M16.3999 18.46C16.4732 18.46 16.5332 18.46 16.6066 18.46C16.5106 17.6355 16.6552 16.8008 17.0231 16.0567C17.391 15.3126 17.9665 14.6909 18.6799 14.2667C18.4213 13.8716 18.0645 13.5504 17.6445 13.3346C17.2244 13.1188 16.7555 13.0159 16.2837 13.0357C15.8119 13.0556 15.3534 13.1977 14.953 13.448C14.5526 13.6984 14.2241 14.0484 13.9996 14.4639C13.7752 14.8793 13.6624 15.346 13.6725 15.8181C13.6826 16.2902 13.8151 16.7516 14.057 17.1571C14.299 17.5626 14.6421 17.8984 15.0528 18.1314C15.4635 18.3645 15.9277 18.4869 16.3999 18.4867V18.46Z" fill="#4E95FF"/>
<path d="M25.2858 17.96C25.2939 18.1133 25.2939 18.2668 25.2858 18.42C25.4138 18.4403 25.543 18.4515 25.6725 18.4534H25.7992C26.2693 18.4283 26.725 18.2819 27.1217 18.0285C27.5185 17.7751 27.8429 17.4232 28.0633 17.0072C28.2838 16.5912 28.3927 16.1252 28.3796 15.6545C28.3665 15.1839 28.2317 14.7247 27.9884 14.3216C27.7451 13.9185 27.4016 13.5853 26.9913 13.3544C26.581 13.1235 26.1179 13.0027 25.6471 13.0039C25.1763 13.0051 24.7138 13.1282 24.3047 13.3611C23.8956 13.5941 23.5538 13.9291 23.3125 14.3334C23.9159 14.7273 24.412 15.2649 24.7565 15.8979C25.1009 16.5309 25.2828 17.2394 25.2858 17.96Z" fill="#4E95FF"/>
<path d="M20.9136 20.9467C22.5594 20.9467 23.8936 19.6125 23.8936 17.9667C23.8936 16.3209 22.5594 14.9867 20.9136 14.9867C19.2678 14.9867 17.9336 16.3209 17.9336 17.9667C17.9336 19.6125 19.2678 20.9467 20.9136 20.9467Z" fill="#4E95FF"/>
<path d="M21.0727 22.5333C20.202 22.4982 19.3333 22.6395 18.5187 22.9489C17.7041 23.2582 16.9605 23.7291 16.3327 24.3333L16.166 24.52V28.74C16.1686 28.8774 16.1983 29.013 16.2533 29.139C16.3083 29.265 16.3876 29.379 16.4867 29.4743C16.5857 29.5696 16.7026 29.6445 16.8306 29.6947C16.9586 29.7449 17.0952 29.7693 17.2327 29.7667H24.8927C25.0301 29.7693 25.1668 29.7449 25.2948 29.6947C25.4228 29.6445 25.5396 29.5696 25.6387 29.4743C25.7378 29.379 25.8171 29.265 25.8721 29.139C25.9271 29.013 25.9567 28.8774 25.9593 28.74V24.5333L25.7993 24.3333C25.1756 23.7273 24.4346 23.255 23.6218 22.9455C22.809 22.636 21.9416 22.4957 21.0727 22.5333Z" fill="#4E95FF"/>
</g>
<defs>
<clipPath id="clip0_3023_12240">
<rect width="24" height="24" fill="white" transform="translate(9 9)"/>
</clipPath>
</defs>
</svg>
