<svg width="42" height="42" viewBox="0 0 42 42" fill="none" xmlns="http://www.w3.org/2000/svg">
<circle cx="21" cy="21" r="21" fill="#00C680" fill-opacity="0.1"/>
<path d="M27.5 22C26.56 22 25.69 22.33 25 22.88C24.08 23.61 23.5 24.74 23.5 26C23.5 26.75 23.71 27.46 24.08 28.06C24.77 29.22 26.04 30 27.5 30C28.51 30 29.43 29.63 30.13 29C30.44 28.74 30.71 28.42 30.92 28.06C31.29 27.46 31.5 26.75 31.5 26C31.5 23.79 29.71 22 27.5 22ZM29.57 25.57L27.44 27.54C27.3 27.67 27.11 27.74 26.93 27.74C26.74 27.74 26.55 27.67 26.4 27.52L25.41 26.53C25.12 26.24 25.12 25.76 25.41 25.47C25.7 25.18 26.18 25.18 26.47 25.47L26.95 25.95L28.55 24.47C28.85 24.19 29.33 24.21 29.61 24.51C29.89 24.81 29.87 25.28 29.57 25.57Z" fill="#00C680"/>
<path opacity="0.4" d="M30.5901 30.5C30.5901 30.78 30.3701 31 30.0901 31H12.9102C12.6302 31 12.4102 30.78 12.4102 30.5C12.4102 26.36 16.4901 23 21.5002 23C22.5302 23 23.5302 23.14 24.4502 23.41C23.8602 24.11 23.5002 25.02 23.5002 26C23.5002 26.75 23.7101 27.46 24.0801 28.06C24.2801 28.4 24.5401 28.71 24.8401 28.97C25.5401 29.61 26.4702 30 27.5002 30C28.6202 30 29.6302 29.54 30.3502 28.8C30.5102 29.34 30.5901 29.91 30.5901 30.5Z" fill="#00C680"/>
<path d="M21.5 21C24.2614 21 26.5 18.7614 26.5 16C26.5 13.2386 24.2614 11 21.5 11C18.7386 11 16.5 13.2386 16.5 16C16.5 18.7614 18.7386 21 21.5 21Z" fill="#00C680"/>
</svg>
