<svg width="42" height="42" viewBox="0 0 42 42" fill="none" xmlns="http://www.w3.org/2000/svg">
<circle cx="21" cy="21" r="21" fill="#4E95FF" fill-opacity="0.1"/>
<g clip-path="url(#clip0_151_10120)">
<path d="M16.9998 19.76C16.8087 19.76 16.6154 19.76 16.4198 19.76C15.6283 19.7314 14.8394 19.8658 14.102 20.1548C13.3646 20.4438 12.6944 20.8812 12.1331 21.44L11.9731 21.6267V27.1467H14.6931V24.0133L15.0598 23.6L15.2265 23.4067C16.0944 22.515 17.175 21.8589 18.3665 21.5C17.7699 21.0461 17.2995 20.4471 16.9998 19.76Z" fill="#4E95FF"/>
<path d="M29.8935 21.42C29.3323 20.8612 28.6621 20.4238 27.9247 20.1348C27.1873 19.8458 26.3984 19.7114 25.6069 19.74C25.3641 19.7407 25.1216 19.754 24.8802 19.78C24.5749 20.4246 24.1173 20.9852 23.5469 21.4133C24.8189 21.7652 25.9711 22.4566 26.8802 23.4133L27.0469 23.6L27.4069 24.0133V27.1533H30.0335V21.6067L29.8935 21.42Z" fill="#4E95FF"/>
<path d="M16.3999 18.46C16.4732 18.46 16.5332 18.46 16.6066 18.46C16.5106 17.6355 16.6552 16.8008 17.0231 16.0567C17.391 15.3126 17.9665 14.6909 18.6799 14.2667C18.4213 13.8716 18.0645 13.5504 17.6445 13.3346C17.2244 13.1189 16.7555 13.0159 16.2837 13.0358C15.8119 13.0556 15.3534 13.1977 14.953 13.4481C14.5526 13.6984 14.2241 14.0484 13.9996 14.4639C13.7752 14.8794 13.6624 15.346 13.6725 15.8181C13.6826 16.2902 13.8151 16.7516 14.057 17.1571C14.299 17.5627 14.6421 17.8984 15.0528 18.1314C15.4635 18.3645 15.9277 18.4869 16.3999 18.4867V18.46Z" fill="#4E95FF"/>
<path d="M25.2868 17.96C25.2949 18.1132 25.2949 18.2668 25.2868 18.42C25.4147 18.4403 25.544 18.4514 25.6735 18.4533H25.8001C26.2703 18.4283 26.7259 18.2819 27.1227 18.0285C27.5195 17.775 27.8439 17.4232 28.0643 17.0071C28.2847 16.5911 28.3937 16.1251 28.3806 15.6545C28.3674 15.1839 28.2327 14.7247 27.9894 14.3216C27.7461 13.9185 27.4026 13.5853 26.9923 13.3544C26.582 13.1234 26.1189 13.0027 25.6481 13.0039C25.1773 13.0051 24.7148 13.1281 24.3057 13.3611C23.8966 13.5941 23.5547 13.929 23.3135 14.3333C23.9169 14.7273 24.413 15.2649 24.7574 15.8978C25.1018 16.5308 25.2837 17.2394 25.2868 17.96Z" fill="#4E95FF"/>
<path d="M20.9131 20.9467C22.5589 20.9467 23.8931 19.6125 23.8931 17.9667C23.8931 16.3209 22.5589 14.9867 20.9131 14.9867C19.2673 14.9867 17.9331 16.3209 17.9331 17.9667C17.9331 19.6125 19.2673 20.9467 20.9131 20.9467Z" fill="#4E95FF"/>
<path d="M21.0732 22.5333C20.2025 22.4982 19.3338 22.6395 18.5192 22.9489C17.7046 23.2582 16.961 23.7291 16.3332 24.3333L16.1665 24.52V28.74C16.1691 28.8775 16.1988 29.0131 16.2538 29.139C16.3088 29.265 16.3881 29.379 16.4872 29.4743C16.5862 29.5696 16.7031 29.6445 16.8311 29.6947C16.9591 29.7449 17.0957 29.7693 17.2332 29.7667H24.8932C25.0306 29.7693 25.1673 29.7449 25.2953 29.6947C25.4233 29.6445 25.5401 29.5696 25.6392 29.4743C25.7382 29.379 25.8175 29.265 25.8726 29.139C25.9276 29.0131 25.9572 28.8775 25.9598 28.74V24.5333L25.7998 24.3333C25.1761 23.7273 24.4351 23.255 23.6223 22.9455C22.8095 22.636 21.9421 22.4957 21.0732 22.5333Z" fill="#4E95FF"/>
</g>
<defs>
<clipPath id="clip0_151_10120">
<rect width="24" height="24" fill="white" transform="translate(9 9)"/>
</clipPath>
</defs>
</svg>
