<svg width="20" height="21" viewBox="0 0 20 21" fill="none" xmlns="http://www.w3.org/2000/svg">
<path d="M16.6667 6.3335H3.33341C2.41294 6.3335 1.66675 7.07969 1.66675 8.00016V16.3335C1.66675 17.254 2.41294 18.0002 3.33341 18.0002H16.6667C17.5872 18.0002 18.3334 17.254 18.3334 16.3335V8.00016C18.3334 7.07969 17.5872 6.3335 16.6667 6.3335Z" stroke="#09418D" stroke-width="1.66667" stroke-linecap="round" stroke-linejoin="round"/>
<path d="M13.3334 18V4.66667C13.3334 4.22464 13.1578 3.80072 12.8453 3.48816C12.5327 3.17559 12.1088 3 11.6667 3H8.33341C7.89139 3 7.46746 3.17559 7.1549 3.48816C6.84234 3.80072 6.66675 4.22464 6.66675 4.66667V18" stroke="#09418D" stroke-width="1.66667" stroke-linecap="round" stroke-linejoin="round"/>
</svg>
