<svg width="20" height="21" viewBox="0 0 20 21" fill="none" xmlns="http://www.w3.org/2000/svg">
<path d="M17.6749 13.7417C17.1448 14.9955 16.3156 16.1002 15.2598 16.9595C14.2041 17.8187 12.9539 18.4063 11.6186 18.6707C10.2833 18.9352 8.90361 18.8685 7.60005 18.4766C6.29649 18.0846 5.10878 17.3793 4.14078 16.4223C3.17277 15.4653 2.45394 14.2857 2.04712 12.9867C1.64031 11.6877 1.5579 10.3088 1.80709 8.97059C2.05629 7.63238 2.62951 6.37559 3.47663 5.31009C4.32376 4.24459 5.419 3.40283 6.6666 2.8584" stroke="#09418D" stroke-width="1.66667" stroke-linecap="round" stroke-linejoin="round"/>
<path d="M18.3333 10.4998C18.3333 9.40549 18.1178 8.32185 17.699 7.31081C17.2802 6.29976 16.6664 5.3811 15.8926 4.60728C15.1187 3.83346 14.2001 3.21963 13.189 2.80084C12.178 2.38205 11.0943 2.1665 10 2.1665V10.4998H18.3333Z" stroke="#09418D" stroke-width="1.66667" stroke-linecap="round" stroke-linejoin="round"/>
</svg>
