<svg width="20" height="21" viewBox="0 0 20 21" fill="none" xmlns="http://www.w3.org/2000/svg">
<path d="M4.16667 10.5002C4.16667 9.41167 3.47099 8.48561 2.5 8.14242V6.83333C2.5 6.36662 2.5 6.13327 2.59082 5.95501C2.67072 5.79821 2.79821 5.67073 2.95501 5.59083C3.13327 5.5 3.36662 5.5 3.83333 5.5H16.1667C16.6334 5.5 16.8668 5.5 17.045 5.59083C17.2018 5.67073 17.3293 5.79821 17.4092 5.95501C17.5 6.13327 17.5 6.36662 17.5 6.83333V8.14226C16.529 8.48545 15.8333 9.41167 15.8333 10.5002C15.8333 11.5887 16.529 12.5146 17.5 12.8577V14.1667C17.5 14.6334 17.5 14.8668 17.4092 15.045C17.3293 15.2018 17.2018 15.3293 17.045 15.4092C16.8668 15.5 16.6334 15.5 16.1667 15.5H3.83333C3.36662 15.5 3.13327 15.5 2.95501 15.4092C2.79821 15.3293 2.67072 15.2018 2.59082 15.045C2.5 14.8668 2.5 14.6334 2.5 14.1667V12.8579C3.47099 12.5148 4.16667 11.5887 4.16667 10.5002Z" stroke="#09418D" stroke-width="1.66667" stroke-linecap="round" stroke-linejoin="round"/>
</svg>
