<svg width="20" height="21" viewBox="0 0 20 21" fill="none" xmlns="http://www.w3.org/2000/svg">
<path d="M14.1673 18.3169V16.6502C14.1673 15.7662 13.8161 14.9183 13.191 14.2932C12.5659 13.6681 11.718 13.3169 10.834 13.3169H4.16732C3.28326 13.3169 2.43542 13.6681 1.8103 14.2932C1.18517 14.9183 0.833984 15.7662 0.833984 16.6502V18.3169" stroke="#09418D" stroke-width="1.66667" stroke-linecap="round" stroke-linejoin="round"/>
<path d="M7.49935 9.98356C9.3403 9.98356 10.8327 8.49118 10.8327 6.65023C10.8327 4.80928 9.3403 3.31689 7.49935 3.31689C5.6584 3.31689 4.16602 4.80928 4.16602 6.65023C4.16602 8.49118 5.6584 9.98356 7.49935 9.98356Z" stroke="#09418D" stroke-width="1.66667" stroke-linecap="round" stroke-linejoin="round"/>
<path d="M19.166 18.317V16.6503C19.1655 15.9117 18.9196 15.1943 18.4672 14.6106C18.0147 14.0268 17.3811 13.6099 16.666 13.4253" stroke="#09418D" stroke-width="1.66667" stroke-linecap="round" stroke-linejoin="round"/>
<path d="M13.334 3.42529C14.051 3.60888 14.6865 4.02588 15.1403 4.61055C15.5942 5.19523 15.8405 5.91432 15.8405 6.65446C15.8405 7.3946 15.5942 8.11369 15.1403 8.69837C14.6865 9.28304 14.051 9.70004 13.334 9.88363" stroke="#09418D" stroke-width="1.66667" stroke-linecap="round" stroke-linejoin="round"/>
</svg>
