<svg width="42" height="42" viewBox="0 0 42 42" fill="none" xmlns="http://www.w3.org/2000/svg">
<circle cx="21" cy="21" r="21" fill="#4E95FF" fill-opacity="0.1"/>
<path d="M26.0005 26V29C26.0005 29.2652 25.8951 29.5196 25.7076 29.7071C25.5201 29.8946 25.2657 30 25.0005 30H14.0005C13.7353 30 13.4809 29.8946 13.2934 29.7071C13.1058 29.5196 13.0005 29.2652 13.0005 29V13C13.0005 12.7348 13.1058 12.4804 13.2934 12.2929C13.4809 12.1054 13.7353 12 14.0005 12H25.0005C25.2657 12 25.5201 12.1054 25.7076 12.2929C25.8951 12.4804 26.0005 12.7348 26.0005 13V16" stroke="#898989" stroke-width="2" stroke-linecap="round" stroke-linejoin="round"/>
<path d="M26.0005 16C25.0116 16 24.0449 16.2932 23.2226 16.8427C22.4004 17.3921 21.7595 18.173 21.3811 19.0866C21.0027 20.0002 20.9036 21.0055 21.0966 21.9755C21.2895 22.9454 21.7657 23.8363 22.465 24.5355C23.1642 25.2348 24.0551 25.711 25.025 25.9039C25.9949 26.0969 27.0003 25.9978 27.9139 25.6194C28.8275 25.241 29.6084 24.6001 30.1578 23.7779C30.7072 22.9556 31.0005 21.9889 31.0005 21M26.0005 16C27.3266 16 28.5983 16.5268 29.536 17.4645C30.4737 18.4021 31.0005 19.6739 31.0005 21M26.0005 16V21M31.0005 21C31.0023 21.9902 30.71 22.9586 30.1607 23.7825C29.6114 24.6064 28.8299 25.2487 27.9151 25.6278C27.0004 26.007 25.9937 26.106 25.0226 25.9124C24.0515 25.7187 23.1598 25.2411 22.4605 24.54L26.0005 21M31.0005 21H26.0005" stroke="#25A8E0" stroke-width="2" stroke-linecap="round" stroke-linejoin="round"/>
</svg>
