<svg width="48" height="48" viewBox="0 0 48 48" fill="none" xmlns="http://www.w3.org/2000/svg">
<circle cx="24" cy="24" r="24" fill="white"/>
<path d="M30.4844 22.8307H26.1875V19.0807H24.7812C25.2165 18.4996 25.4504 17.7924 25.4474 17.0663C25.4474 15.9867 24.9365 14.9722 24.1141 14.4188L23.7652 14.1841L23.4163 14.4188C22.5938 14.9722 22.083 15.9867 22.083 17.0663C22.0801 17.7924 22.314 18.4996 22.7494 19.0806H21.1875V22.8306H17.5156C16.915 22.8313 16.3391 23.0702 15.9143 23.495C15.4896 23.9197 15.2507 24.4956 15.25 25.0963V32.1249C15.2504 32.4564 15.3822 32.7741 15.6165 33.0084C15.8509 33.2428 16.1686 33.3746 16.5 33.3749H31.5C31.8314 33.3746 32.1491 33.2428 32.3835 33.0084C32.6178 32.7741 32.7496 32.4564 32.75 32.1249V25.0963C32.7493 24.4956 32.5104 23.9198 32.0857 23.495C31.6609 23.0703 31.085 22.8314 30.4844 22.8307ZM23.7652 15.7789C24.0382 16.1181 24.1974 16.5784 24.1974 17.0664C24.1974 17.5544 24.0382 18.0147 23.7652 18.3538C23.4922 18.0147 23.333 17.5544 23.333 17.0663C23.333 16.5783 23.4922 16.1181 23.7652 15.7789ZM22.4375 20.3307H24.9375V22.8307H22.4375V20.3307ZM16.5 25.0963C16.5003 24.827 16.6074 24.5689 16.7978 24.3785C16.9882 24.1881 17.2464 24.081 17.5156 24.0807H30.4844C30.7536 24.081 31.0118 24.1881 31.2022 24.3785C31.3926 24.5689 31.4997 24.827 31.5 25.0963V26.3298L30.6562 26.7021C30.4912 26.7747 30.3129 26.8122 30.1326 26.8122C29.9524 26.8122 29.774 26.7747 29.609 26.7021L28.1406 26.0542L26.6719 26.7021C26.5069 26.7747 26.3285 26.8122 26.1482 26.8122C25.968 26.8122 25.7896 26.7747 25.6246 26.7021L24.1562 26.0541L22.6875 26.702C22.5225 26.7746 22.3442 26.8121 22.1639 26.8121C21.9836 26.8121 21.8053 26.7746 21.6402 26.702L20.1719 26.0542L18.7034 26.702C18.5384 26.7746 18.3601 26.8121 18.1798 26.8121C17.9995 26.8121 17.8212 26.7746 17.6561 26.702L16.5 26.192V25.0963ZM31.5 32.1249H16.5V27.5583L17.1515 27.8457C17.4755 27.9883 17.8257 28.0619 18.1797 28.0619C18.5337 28.0619 18.8839 27.9883 19.2079 27.8457L20.1719 27.4204L21.1359 27.8457C21.4599 27.9883 21.8101 28.0619 22.1641 28.0619C22.5181 28.0619 22.8682 27.9883 23.1923 27.8457L24.1562 27.4204L25.1202 27.8457C25.4442 27.9883 25.7944 28.0619 26.1484 28.0619C26.5024 28.0619 26.8525 27.9883 27.1765 27.8457L28.1406 27.4204L29.1046 27.8457C29.4286 27.9883 29.7788 28.0619 30.1328 28.0619C30.4868 28.0619 30.8369 27.9883 31.1609 27.8457L31.5005 27.6959L31.5008 32.1249H31.5Z" fill="#09418D"/>
</svg>
