<svg width="248" height="190" viewBox="0 0 248 190" fill="none" xmlns="http://www.w3.org/2000/svg">
<g clip-path="url(#clip0_102_833)">
<path d="M166.026 53.4988C171.325 39.2522 183.844 26.9421 198.973 25.4778C189.877 39.2798 185.956 55.8543 187.905 72.2688C188.679 78.5965 190.199 85.5538 186.788 90.9393C184.665 94.2904 180.925 96.3534 177.069 97.2844C173.213 98.2153 169.196 98.1432 165.23 98.0657L164.342 98.5042C161.553 83.5621 160.727 67.7455 166.026 53.4988Z" fill="#F0F0F0"/>
<path d="M199.046 25.7881C188.733 32.9935 180.951 43.2655 176.808 55.145C175.936 57.6955 175.273 60.3586 175.235 63.0669C175.218 65.7071 175.908 68.3036 177.234 70.5868C178.427 72.7404 179.898 74.8051 180.547 77.2114C181.231 79.7477 180.673 82.3135 179.276 84.5048C177.565 87.186 174.994 89.0927 172.414 90.8698C169.55 92.8431 166.543 94.8473 164.791 97.9471C164.578 98.3227 164.008 97.9712 164.22 97.5962C167.269 92.203 173.668 90.244 177.583 85.663C179.41 83.5254 180.603 80.8243 180.039 77.9779C179.545 75.4889 178.03 73.3584 176.803 71.1883C175.514 68.9096 174.673 66.5448 174.574 63.9083C174.474 61.2114 175.034 58.5168 175.837 55.9552C177.702 50.1601 180.466 44.6942 184.028 39.7578C188.063 34.1014 193.036 29.1768 198.731 25.1971C199.083 24.9509 199.397 25.5436 199.046 25.7881Z" fill="white"/>
<path d="M177.917 51.2414C176.018 50.2756 174.524 48.6664 173.703 46.701C172.881 44.7357 172.785 42.5422 173.431 40.5123C173.563 40.102 174.207 40.2881 174.074 40.6989C173.469 42.588 173.559 44.6313 174.328 46.4598C175.097 48.2884 176.494 49.7819 178.268 50.6707C178.653 50.8643 178.3 51.4339 177.917 51.2414Z" fill="white"/>
<path d="M176.485 69.5745C180.637 68.263 184.143 65.4346 186.303 61.6532C186.516 61.2784 187.087 61.6297 186.873 62.0041C184.618 65.9349 180.964 68.8709 176.64 70.2261C176.228 70.355 176.075 69.7027 176.485 69.5745Z" fill="white"/>
<path d="M188.522 34.8622C189.178 35.389 189.956 35.7444 190.784 35.8964C191.612 36.0485 192.465 35.9926 193.266 35.7336C193.676 35.5995 193.829 36.252 193.421 36.3852C192.535 36.6672 191.593 36.7279 190.678 36.5619C189.762 36.3959 188.902 36.0083 188.171 35.4329C188.097 35.3844 188.045 35.3098 188.025 35.2243C188.004 35.1387 188.017 35.0485 188.061 34.9721C188.108 34.8968 188.182 34.843 188.269 34.8224C188.355 34.8018 188.446 34.8161 188.522 34.8622Z" fill="white"/>
<path d="M235.44 61.7927C235.186 61.8837 234.932 61.9747 234.677 62.0711C231.27 63.3122 227.969 64.8279 224.808 66.6035C224.561 66.7369 224.313 66.8758 224.071 67.016C216.5 71.3749 209.804 77.1015 204.323 83.9048C202.145 86.614 200.176 89.4849 198.433 92.4929C196.027 96.6471 193.748 101.343 190.213 104.37C189.848 104.69 189.464 104.987 189.062 105.26L164.946 99.5533C164.898 99.5128 164.848 99.4778 164.799 99.4372L163.826 99.2534C163.905 99.092 163.99 98.9263 164.069 98.7649C164.115 98.6711 164.166 98.5785 164.211 98.4847C164.243 98.4225 164.276 98.3604 164.301 98.3025C164.311 98.2818 164.322 98.2611 164.332 98.2459C164.357 98.188 164.387 98.1369 164.411 98.0845C164.886 97.1569 165.368 96.231 165.858 95.3069C165.859 95.3014 165.859 95.3014 165.866 95.2971C169.616 88.2652 173.986 81.4845 179.246 75.5827C179.404 75.4052 179.564 75.2221 179.733 75.0472C182.119 72.4001 184.717 69.9524 187.502 67.7286C189.03 66.5159 190.62 65.3812 192.263 64.3291C196.514 61.6188 201.166 59.5941 206.047 58.3293C215.777 55.8092 226.204 56.4291 234.788 61.406C235.007 61.5335 235.222 61.6597 235.44 61.7927Z" fill="#F0F0F0"/>
<path d="M235.313 62.086C222.74 61.6295 210.343 65.1462 199.882 72.1367C197.65 73.648 195.518 75.3752 193.857 77.5147C192.253 79.6125 191.241 82.1013 190.925 84.7225C190.582 87.1606 190.512 89.6944 189.582 92.0065C188.601 94.4436 186.611 96.1565 184.176 97.0645C181.196 98.1755 177.995 98.1495 174.865 98.0154C171.39 97.8664 167.783 97.6566 164.517 99.0765C164.122 99.2485 163.878 98.6245 164.273 98.4527C169.955 95.9824 176.244 98.271 182.127 96.9703C184.873 96.3633 187.452 94.9253 188.715 92.3125C189.819 90.0279 189.893 87.4151 190.219 84.9434C190.562 82.3481 191.314 79.9531 192.823 77.7889C194.366 75.5751 196.436 73.7608 198.619 72.1991C203.597 68.6947 209.095 65.9947 214.911 64.1981C221.538 62.1109 228.473 61.1727 235.417 61.424C235.847 61.4398 235.74 62.1016 235.313 62.086Z" fill="white"/>
<path d="M203.118 69.6875C202.183 67.7732 201.96 65.589 202.487 63.525C203.014 61.461 204.258 59.6516 205.996 58.4199C206.348 58.1719 206.75 58.7081 206.397 58.9564C204.777 60.1004 203.618 61.786 203.131 63.709C202.644 65.632 202.861 67.6657 203.742 69.4431C203.933 69.8295 203.308 70.0717 203.118 69.6875Z" fill="white"/>
<path d="M190.937 83.4633C195.042 84.9162 199.544 84.7685 203.545 83.0495C203.941 82.8789 204.185 83.5029 203.789 83.6733C199.623 85.4543 194.937 85.5985 190.669 84.0772C190.262 83.9319 190.532 83.3188 190.937 83.4633Z" fill="white"/>
<path d="M221.447 62.9945C221.654 63.8105 222.061 64.5623 222.63 65.1823C223.2 65.8023 223.915 66.2711 224.71 66.5466C225.119 66.6867 224.848 67.2997 224.442 67.1605C223.564 66.852 222.776 66.3333 222.145 65.6497C221.514 64.9661 221.06 64.1384 220.823 63.2389C220.794 63.156 220.797 63.065 220.832 62.9843C220.867 62.9037 220.932 62.8395 221.013 62.8048C221.095 62.7729 221.187 62.7749 221.269 62.8104C221.35 62.8459 221.414 62.9121 221.447 62.9945Z" fill="white"/>
<path d="M26.2973 184.087C12.4916 177.727 1.16208 164.314 0.844482 149.117C13.9201 159.23 30.1512 164.391 46.6658 163.688C53.0338 163.394 60.086 162.403 65.1985 166.211C68.3797 168.581 70.1543 172.466 70.7915 176.381C71.4286 180.296 71.0533 184.297 70.6766 188.246L71.0467 189.164C55.9368 190.817 40.1031 190.446 26.2973 184.087Z" fill="#F0F0F0"/>
<path d="M1.15958 149.068C7.5655 159.896 17.2205 168.431 28.7531 173.46C31.2304 174.522 33.8359 175.384 36.5335 175.627C39.1648 175.843 41.8061 175.351 44.1828 174.201C46.4204 173.174 48.5902 171.863 51.0386 171.398C53.6193 170.907 56.1357 171.657 58.2152 173.216C60.7595 175.124 62.4665 177.833 64.0438 180.539C65.7951 183.544 67.5665 186.693 70.5251 188.675C70.8836 188.915 70.4901 189.457 70.1321 189.218C64.9847 185.77 63.5145 179.241 59.2422 174.991C57.2487 173.008 54.6455 171.614 51.7646 171.963C49.2454 172.267 47.0067 173.616 44.75 174.676C42.3805 175.789 39.9589 176.45 37.3226 176.349C34.6259 176.245 31.9812 175.483 29.4876 174.489C23.8499 172.192 18.6085 169.023 13.9552 165.098C8.6196 160.648 4.0846 155.317 0.546393 149.338C0.32754 148.968 0.942174 148.7 1.15958 149.068Z" fill="white"/>
<path d="M24.9443 172.059C23.8379 173.879 22.1204 175.247 20.0987 175.918C18.0769 176.589 15.8824 176.52 13.9071 175.722C13.508 175.559 13.7422 174.932 14.1418 175.095C15.9798 175.841 18.024 175.905 19.9054 175.277C21.7868 174.648 23.3815 173.367 24.4017 171.666C24.6238 171.297 25.1651 171.692 24.9443 172.059Z" fill="white"/>
<path d="M43.1169 174.871C42.1227 170.632 39.5671 166.923 35.9596 164.484C35.602 164.242 35.9954 163.7 36.3526 163.941C40.1019 166.486 42.7536 170.352 43.7784 174.766C43.8758 175.186 43.2138 175.29 43.1169 174.871Z" fill="white"/>
<path d="M9.41263 160.248C9.98748 159.633 10.4005 158.884 10.6147 158.07C10.8289 157.256 10.8375 156.401 10.6397 155.583C10.5371 155.163 11.1993 155.06 11.3013 155.477C11.5156 156.382 11.5049 157.326 11.2703 158.226C11.0356 159.126 10.5841 159.955 9.95518 160.641C9.90131 160.71 9.82297 160.757 9.73609 160.771C9.6492 160.784 9.5603 160.765 9.48742 160.715C9.41585 160.663 9.36784 160.585 9.35383 160.497C9.33983 160.409 9.36096 160.32 9.41263 160.248Z" fill="white"/>
<path d="M39.8094 115.497C39.881 115.757 39.9525 116.017 40.0294 116.279C41.0096 119.77 42.2718 123.175 43.8035 126.462C43.9179 126.718 44.0377 126.976 44.1592 127.228C47.9339 135.107 53.1385 142.216 59.5084 148.195C62.0454 150.571 64.7594 152.752 67.6272 154.717C71.5878 157.43 76.098 160.057 78.8499 163.81C79.1414 164.198 79.4085 164.604 79.6498 165.026L72.1385 188.642C72.0945 188.687 72.0558 188.734 72.0117 188.779L71.7549 189.736C71.6 189.645 71.4412 189.547 71.2862 189.456C71.1961 189.404 71.1076 189.346 71.0175 189.293C70.958 189.257 70.8985 189.22 70.8426 189.19C70.8228 189.178 70.803 189.166 70.7885 189.155C70.7327 189.126 70.6839 189.092 70.6335 189.064C69.7444 188.521 68.8577 187.97 67.9732 187.411C67.9678 187.41 67.9678 187.41 67.964 187.403C61.2354 183.132 54.8042 178.263 49.3165 172.572C49.1514 172.401 48.9809 172.228 48.8193 172.046C46.3599 169.467 44.1155 166.691 42.1083 163.747C41.0144 162.131 40.003 160.461 39.0781 158.742C36.6966 154.298 35.0289 149.507 34.1363 144.545C32.3582 134.652 33.7637 124.301 39.3746 116.118C39.5183 115.909 39.6603 115.704 39.8094 115.497Z" fill="#F0F0F0"/>
<path d="M40.0922 115.645C38.6875 128.148 41.258 140.776 47.4385 151.734C48.7769 154.074 50.3383 156.331 52.3461 158.149C54.3168 159.906 56.7221 161.103 59.312 161.616C61.7172 162.143 64.2384 162.403 66.4737 163.505C68.8298 164.667 70.3874 166.781 71.1089 169.278C71.9917 172.333 71.7241 175.524 71.354 178.634C70.943 182.088 70.4614 185.669 71.6306 189.033C71.7723 189.44 71.1317 189.636 70.9902 189.229C68.956 183.377 71.713 177.279 70.8603 171.314C70.4624 168.53 69.2232 165.85 66.7134 164.393C64.5186 163.12 61.9189 162.849 59.4789 162.337C56.917 161.799 54.5855 160.868 52.5415 159.2C50.4506 157.494 48.7978 155.293 47.4054 152.998C44.2869 147.77 42.0099 142.084 40.6577 136.148C39.0768 129.383 38.665 122.396 39.44 115.492C39.4881 115.064 40.14 115.221 40.0922 115.645Z" fill="white"/>
<path d="M45.2406 148.323C43.2612 149.11 41.0664 149.168 39.0481 148.487C37.0298 147.805 35.3195 146.429 34.2226 144.602C34.0019 144.232 34.5669 143.872 34.7879 144.243C35.8062 145.945 37.3995 147.227 39.2802 147.858C41.1609 148.489 43.2051 148.426 45.044 147.682C45.4438 147.521 45.6381 148.162 45.2406 148.323Z" fill="white"/>
<path d="M58.0573 161.509C59.816 157.526 60.0087 153.026 58.5968 148.906C58.4566 148.498 59.0972 148.302 59.2372 148.709C60.6985 152.999 60.4885 157.682 58.6492 161.823C58.4736 162.218 57.8827 161.902 58.0573 161.509Z" fill="white"/>
<path d="M39.9508 129.541C40.7802 129.396 41.5605 129.047 42.2218 128.526C42.883 128.005 43.4045 127.327 43.7393 126.555C43.9098 126.158 44.5005 126.475 44.3311 126.869C43.9573 127.721 43.3805 128.468 42.6512 129.045C41.9219 129.623 41.0623 130.013 40.1474 130.181C40.0625 130.204 39.972 130.194 39.8943 130.153C39.8166 130.112 39.7574 130.043 39.7289 129.959C39.7033 129.874 39.7123 129.783 39.7538 129.704C39.7954 129.626 39.8662 129.567 39.9508 129.541Z" fill="white"/>
<path d="M58.0853 100.106C45.8861 88.0966 40.7337 75.5678 43.5769 64.8279C47.2256 51.0455 63.435 41.5161 88.0489 38.6832L88.1398 39.4738C63.8686 42.2671 47.9065 51.5826 44.3461 65.0315C41.5791 75.4835 46.6567 87.7386 58.6436 99.5391L58.0853 100.106Z" fill="#F0F0F0"/>
<path d="M175.787 142.735C160.562 142.735 144.017 140.473 127.583 136.122C107.26 130.742 88.6261 122.621 73.6958 112.637L74.1379 111.976C88.9964 121.911 107.548 129.995 127.786 135.353C146.076 140.195 164.502 142.439 181.067 141.847L181.096 142.641C179.346 142.704 177.577 142.736 175.787 142.735Z" fill="#F0F0F0"/>
<path d="M210.716 137.732L210.461 136.978C224.078 132.374 232.595 124.958 235.091 115.53C238.264 103.545 231.371 89.6365 215.682 76.3675C199.912 63.031 177.173 51.9652 151.651 45.2087L151.854 44.4395C177.488 51.2257 200.338 62.3489 216.195 75.7601C232.132 89.2385 239.116 103.435 235.86 115.733C233.293 125.432 224.598 133.039 210.716 137.732Z" fill="#F0F0F0"/>
<path d="M85.6799 143.068C55.763 129.799 32.7097 112.585 20.7671 94.5956L21.4299 94.1554C33.2899 112.02 56.2222 129.133 86.0024 142.341L85.6799 143.068Z" fill="#F0F0F0"/>
<path d="M190.866 166.055C187.78 166.055 184.641 165.986 181.45 165.848L181.484 165.053C205.299 166.084 226.312 163.234 242.254 156.81L242.551 157.548C228.645 163.152 210.919 166.055 190.866 166.055Z" fill="#F0F0F0"/>
<path d="M173.507 39.3968C168.563 37.7869 163.477 36.2879 158.39 34.9414C129.122 27.1928 100.35 24.4417 75.1852 26.987L75.1052 26.1952C100.364 23.6416 129.234 26.3993 158.594 34.1722C163.694 35.5226 168.795 37.0258 173.754 38.6404L173.507 39.3968Z" fill="#F0F0F0"/>
<path d="M39.3878 101.299C27.1886 89.2901 22.0362 76.7613 24.8794 66.0214C28.5281 52.239 44.7375 42.7096 69.3514 39.8767L69.4423 40.6673C45.1711 43.4606 29.209 52.7761 25.6486 66.225C22.8816 76.677 27.9592 88.9321 39.9461 100.733L39.3878 101.299Z" fill="#F0F0F0"/>
<path d="M157.09 143.929C141.864 143.929 125.319 141.666 108.885 137.316C88.5624 131.935 69.9286 123.814 54.9983 113.831L55.4404 113.169C70.2989 123.105 88.8501 131.189 109.089 136.546C127.378 141.389 145.805 143.632 162.37 143.04L162.398 143.835C160.649 143.898 158.879 143.929 157.09 143.929Z" fill="#F0F0F0"/>
<path d="M192.019 138.925L191.764 138.172C205.381 133.568 213.898 126.151 216.394 116.723C219.567 104.738 212.674 90.8299 196.984 77.5608C181.215 64.2244 158.476 53.1585 132.954 46.402L133.157 45.6328C158.791 52.419 181.641 63.5422 197.498 76.9534C213.435 90.4318 220.419 104.628 217.163 116.927C214.596 126.625 205.901 134.232 192.019 138.925Z" fill="#F0F0F0"/>
<path d="M66.9827 144.261C37.0657 130.993 14.0124 113.778 2.06982 95.789L2.73259 95.3489C14.5927 113.214 37.5249 130.326 67.3051 143.534L66.9827 144.261Z" fill="#F0F0F0"/>
<path d="M172.168 167.248C169.082 167.248 165.944 167.179 162.753 167.042L162.787 166.247C186.602 167.278 207.614 164.428 223.556 158.003L223.854 158.741C209.947 164.345 192.222 167.248 172.168 167.248Z" fill="#F0F0F0"/>
<path d="M154.81 40.5902C149.865 38.9803 144.779 37.4813 139.693 36.1347C110.424 28.3862 81.6529 25.6351 56.488 28.1803L56.408 27.3886C81.6667 24.835 110.537 27.5927 139.897 35.3655C144.997 36.7159 150.098 38.2192 155.056 39.8338L154.81 40.5902Z" fill="#F0F0F0"/>
<path d="M75.7693 99.6681C74.1345 99.6699 72.5672 100.32 71.4112 101.476C70.2552 102.632 69.605 104.199 69.6032 105.834C67.2588 123.096 66.4759 140.533 67.2639 157.935C67.3107 159.046 67.3626 160.063 67.4228 161.043C67.5102 162.662 67.6213 164.372 67.7528 166.125C67.8284 167.159 67.908 168.196 67.9952 169.23C68.1413 170.914 68.3018 172.625 68.4725 174.315C68.5797 175.348 68.691 176.385 68.8101 177.419C69.0387 179.449 69.2975 181.529 69.6015 183.78C69.5984 185.419 70.2465 186.992 71.4031 188.153C72.5597 189.315 74.1303 189.969 75.7693 189.973H179.201C180.836 189.971 182.403 189.321 183.559 188.165C184.715 187.009 185.366 185.441 185.367 183.807L185.372 183.764C185.833 181.665 186.262 179.526 186.648 177.406C186.854 176.288 187.032 175.273 187.192 174.302C187.482 172.536 187.741 170.825 187.959 169.22C188.108 168.142 188.243 167.098 188.36 166.116C188.553 164.509 188.727 162.847 188.893 161.037C188.984 160.053 189.067 159.037 189.147 157.93V157.93C190.412 140.488 189.14 122.954 185.372 105.877L185.367 105.834C185.366 104.199 184.715 102.632 183.559 101.476C182.403 100.32 180.836 99.6699 179.201 99.6681L75.7693 99.6681Z" fill="#09418D"/>
<path d="M131.501 126.066C109.09 126.066 85.3419 124.029 54.2614 119.955H54.2581C52.6468 119.953 51.0931 119.356 49.8947 118.279C48.6964 117.202 47.9378 115.72 47.7643 114.119C47.736 113.878 47.7223 113.635 47.7233 113.393V94.6954C47.7226 94.6554 47.7244 94.6154 47.7287 94.5757C47.7637 92.8578 48.4695 91.2217 49.6951 90.0174C50.9208 88.8131 52.569 88.1362 54.2873 88.1314C108.361 80.7791 141.208 80.7799 200.708 88.1329H200.71C202.428 88.1442 204.073 88.8267 205.293 90.0346C206.514 91.2425 207.214 92.88 207.243 94.5971C207.247 94.6297 207.248 94.6626 207.247 94.6954V113.393C207.248 113.636 207.234 113.879 207.206 114.12C207.03 115.727 206.267 117.211 205.063 118.288C203.859 119.365 202.299 119.96 200.683 119.957C174.977 124.029 153.907 126.066 131.501 126.066Z" fill="#25A8E0"/>
<path d="M135.096 139.052H121.498C119.767 139.05 118.108 138.362 116.884 137.138C115.661 135.914 114.972 134.255 114.97 132.524V83.1225C114.972 81.3918 115.661 79.7325 116.884 78.5088C118.108 77.285 119.767 76.5966 121.498 76.5946H135.096C136.827 76.5965 138.486 77.2849 139.71 78.5087C140.933 79.7325 141.622 81.3918 141.624 83.1225V132.524C141.622 134.255 140.933 135.914 139.71 137.138C138.486 138.362 136.827 139.05 135.096 139.052Z" fill="#09418D"/>
<path d="M165.968 67.1415C165.869 66.2154 165.696 65.2987 165.449 64.4006C165.183 63.5007 164.846 62.6233 164.441 61.7767C162.991 58.6639 160.544 56.1234 157.488 54.5568C153.695 52.6896 149.356 52.5368 145.278 53.4364C141.85 54.2043 138.631 55.7114 135.846 57.8525C134.402 58.9404 133.083 60.1848 131.912 61.5627C130.704 63.0125 128.456 66.9958 128.294 67.3646C127.023 64.4793 125.2 61.8708 122.927 59.6863C120.284 57.1782 117.13 55.272 113.681 54.0987C111.847 53.4809 109.944 53.094 108.014 52.9469C105.973 52.7772 103.917 52.9565 101.936 53.4772C98.3768 54.474 95.2983 56.7243 93.2685 59.8131C91.3343 62.6838 90.3843 66.1048 90.5615 69.5618C90.6594 71.3072 91.0358 73.0257 91.6764 74.6522C92.0197 75.5327 92.4269 76.3869 92.8948 77.2081C93.3788 78.0191 93.9201 78.7947 94.5144 79.5288C96.8466 82.3907 99.9879 84.4825 103.528 85.5308C107.307 86.6988 111.316 86.737 115.202 86.1886C119.193 85.6255 123.034 84.3336 126.793 82.9188C127.294 82.73 127.794 82.5358 128.294 82.3435C131.635 83.6289 135.005 84.8687 138.503 85.6556C142.438 86.606 146.522 86.7697 150.52 86.1376C154.247 85.5258 157.712 83.8331 160.486 81.2696C163.052 78.8546 164.848 75.7357 165.649 72.3041C166.044 70.6133 166.152 68.8681 165.968 67.1415ZM114.164 82.3454C112.007 82.6217 109.825 82.6345 107.665 82.3834C106.117 82.159 104.6 81.7553 103.145 81.1804C99.716 79.7524 96.9825 77.0383 95.5299 73.6196C95.0958 72.5418 94.7866 71.4178 94.6083 70.2696C94.4941 69.248 94.4938 68.217 94.6074 67.1954C94.7766 66.1206 95.0665 65.0683 95.4716 64.0585C95.9098 63.0764 96.4538 62.145 97.0941 61.2809C97.715 60.5077 98.4166 59.803 99.187 59.1787C99.9173 58.6385 100.703 58.178 101.531 57.8049C102.52 57.4188 103.548 57.1437 104.598 56.9847C106.019 56.8274 107.454 56.8386 108.872 57.0181C110.56 57.2788 112.213 57.7342 113.796 58.3753C115.48 59.1062 117.071 60.0341 118.537 61.1395C119.893 62.2139 121.122 63.4394 122.201 64.7922C123.269 66.2125 124.164 67.7545 124.868 69.3859C125.553 71.088 126.034 72.865 126.301 74.68L126.304 74.7065C126.2 75.6184 126.147 76.5356 126.148 77.4534C126.148 77.807 126.164 78.1601 126.182 78.5131C126.014 78.6749 125.874 78.8634 125.767 79.0709C122.996 80.1581 120.156 81.0589 117.265 81.7674C116.24 82.004 115.206 82.1966 114.164 82.3454ZM161.988 70.2695C161.809 71.4178 161.5 72.542 161.066 73.6199C159.62 77.0433 156.885 79.7596 153.451 81.1804C151.996 81.7553 150.479 82.159 148.931 82.3834C146.767 82.635 144.581 82.6217 142.42 82.344C138.582 81.7952 134.88 80.5837 131.258 79.2317C131.109 79.176 130.961 79.1173 130.812 79.0612C130.711 78.8567 130.577 78.6703 130.415 78.5095C130.479 77.2285 130.44 75.9446 130.297 74.67C130.564 72.8585 131.044 71.0849 131.728 69.3859C132.432 67.7546 133.327 66.2126 134.395 64.7924C135.474 63.4395 136.703 62.2139 138.059 61.1395C139.525 60.0341 141.116 59.1062 142.8 58.3753C144.383 57.7342 146.036 57.2788 147.724 57.0181C149.142 56.8386 150.577 56.8274 151.998 56.9847C153.048 57.1437 154.076 57.4188 155.065 57.8049C155.893 58.178 156.679 58.6386 157.409 59.1788C158.18 59.8031 158.881 60.5078 159.502 61.281C160.142 62.1451 160.686 63.0764 161.124 64.0585C161.529 65.0683 161.819 66.1206 161.989 67.1954C162.102 68.2169 162.102 69.248 161.988 70.2695Z" fill="#09418D"/>
<path d="M86.9081 141.24C88.2264 141.24 89.295 140.171 89.295 138.853C89.295 137.535 88.2264 136.466 86.9081 136.466C85.5899 136.466 84.5212 137.535 84.5212 138.853C84.5212 140.171 85.5899 141.24 86.9081 141.24Z" fill="#25A8E0"/>
<path d="M104.014 135.273C105.332 135.273 106.401 134.204 106.401 132.886C106.401 131.568 105.332 130.499 104.014 130.499C102.696 130.499 101.627 131.568 101.627 132.886C101.627 134.204 102.696 135.273 104.014 135.273Z" fill="#25A8E0"/>
<path d="M96.4557 153.97C97.774 153.97 98.8426 152.902 98.8426 151.583C98.8426 150.265 97.774 149.196 96.4557 149.196C95.1375 149.196 94.0688 150.265 94.0688 151.583C94.0688 152.902 95.1375 153.97 96.4557 153.97Z" fill="#25A8E0"/>
<path d="M167.267 141.24C168.585 141.24 169.654 140.171 169.654 138.853C169.654 137.535 168.585 136.466 167.267 136.466C165.949 136.466 164.88 137.535 164.88 138.853C164.88 140.171 165.949 141.24 167.267 141.24Z" fill="#25A8E0"/>
<path d="M150.161 135.273C151.479 135.273 152.548 134.204 152.548 132.886C152.548 131.568 151.479 130.499 150.161 130.499C148.843 130.499 147.774 131.568 147.774 132.886C147.774 134.204 148.843 135.273 150.161 135.273Z" fill="#25A8E0"/>
<path d="M157.719 153.97C159.038 153.97 160.106 152.902 160.106 151.583C160.106 150.265 159.038 149.196 157.719 149.196C156.401 149.196 155.333 150.265 155.333 151.583C155.333 152.902 156.401 153.97 157.719 153.97Z" fill="#25A8E0"/>
<path d="M169.256 183.011C170.574 183.011 171.643 181.942 171.643 180.624C171.643 179.306 170.574 178.237 169.256 178.237C167.938 178.237 166.869 179.306 166.869 180.624C166.869 181.942 167.938 183.011 169.256 183.011Z" fill="#25A8E0"/>
<path d="M175.223 165.905C176.541 165.905 177.61 164.836 177.61 163.518C177.61 162.2 176.541 161.131 175.223 161.131C173.905 161.131 172.836 162.2 172.836 163.518C172.836 164.836 173.905 165.905 175.223 165.905Z" fill="#25A8E0"/>
<path d="M156.526 173.463C157.844 173.463 158.913 172.395 158.913 171.076C158.913 169.758 157.844 168.69 156.526 168.69C155.208 168.69 154.139 169.758 154.139 171.076C154.139 172.395 155.208 173.463 156.526 173.463Z" fill="#25A8E0"/>
<path d="M100.832 183.011C102.15 183.011 103.219 181.942 103.219 180.624C103.219 179.306 102.15 178.237 100.832 178.237C99.5135 178.237 98.4448 179.306 98.4448 180.624C98.4448 181.942 99.5135 183.011 100.832 183.011Z" fill="#25A8E0"/>
<path d="M106.799 165.905C108.117 165.905 109.186 164.836 109.186 163.518C109.186 162.2 108.117 161.131 106.799 161.131C105.481 161.131 104.412 162.2 104.412 163.518C104.412 164.836 105.481 165.905 106.799 165.905Z" fill="#25A8E0"/>
<path d="M88.1015 173.463C89.4197 173.463 90.4884 172.395 90.4884 171.076C90.4884 169.758 89.4197 168.69 88.1015 168.69C86.7832 168.69 85.7146 169.758 85.7146 171.076C85.7146 172.395 86.7832 173.463 88.1015 173.463Z" fill="#25A8E0"/>
<path d="M156.682 14.4315C157.586 14.8088 158.572 14.9469 159.545 14.8327C160.517 14.7184 161.444 14.3555 162.236 13.779C164.255 12.2735 165.011 9.6455 165.645 7.20882L167.518 0L164.355 1.91997C162.081 3.30045 159.755 4.72666 158.113 6.82245C156.471 8.91823 155.641 11.8551 156.723 14.2872" fill="#F2F2F2"/>
<path d="M72.1041 76.0091C72.7145 75.2431 73.1174 74.3329 73.2739 73.3661C73.4304 72.3992 73.3353 71.4084 72.9977 70.4889C72.1026 68.1352 69.7823 66.6876 67.6125 65.4107L61.1921 61.6355L62.1726 65.2028C62.8774 67.7682 63.6118 70.3963 65.1779 72.5492C66.7439 74.702 69.341 76.3051 71.9763 75.9307" fill="#F2F2F2"/>
<path d="M222.876 187C223.486 186.234 223.889 185.324 224.046 184.357C224.202 183.39 224.107 182.4 223.77 181.48C222.875 179.126 220.554 177.679 218.384 176.402L211.964 172.627L212.945 176.194C213.649 178.759 214.384 181.388 215.95 183.54C217.516 185.693 220.113 187.296 222.748 186.922" fill="#F2F2F2"/>
<path d="M101.627 46.1616C103.385 46.1616 104.81 44.7367 104.81 42.9791C104.81 41.2214 103.385 39.7965 101.627 39.7965C99.8697 39.7965 98.4448 41.2214 98.4448 42.9791C98.4448 44.7367 99.8697 46.1616 101.627 46.1616Z" fill="#25A8E0"/>
<path d="M16.8927 140.047C18.6504 140.047 20.0753 138.622 20.0753 136.864C20.0753 135.106 18.6504 133.682 16.8927 133.682C15.1351 133.682 13.7102 135.106 13.7102 136.864C13.7102 138.622 15.1351 140.047 16.8927 140.047Z" fill="#25A8E0"/>
<path d="M235.691 114.188C237.449 114.188 238.874 112.764 238.874 111.006C238.874 109.248 237.449 107.823 235.691 107.823C233.933 107.823 232.509 109.248 232.509 111.006C232.509 112.764 233.933 114.188 235.691 114.188Z" fill="#25A8E0"/>
<path d="M13.7101 60.0852C15.4678 60.0852 16.8926 58.6603 16.8926 56.9026C16.8926 55.145 15.4678 53.7201 13.7101 53.7201C11.9525 53.7201 10.5276 55.145 10.5276 56.9026C10.5276 58.6603 11.9525 60.0852 13.7101 60.0852Z" fill="#E6E6E6"/>
<path d="M210.629 150.788C212.386 150.788 213.811 149.363 213.811 147.605C213.811 145.847 212.386 144.423 210.629 144.423C208.871 144.423 207.446 145.847 207.446 147.605C207.446 149.363 208.871 150.788 210.629 150.788Z" fill="#E6E6E6"/>
<path d="M216.994 54.1179C218.751 54.1179 220.176 52.693 220.176 50.9354C220.176 49.1777 218.751 47.7528 216.994 47.7528C215.236 47.7528 213.811 49.1777 213.811 50.9354C213.811 52.693 215.236 54.1179 216.994 54.1179Z" fill="#E6E6E6"/>
<path d="M77.4508 104.735C77.1757 105.17 76.5087 105.107 76.1341 104.835C75.6142 104.457 75.7825 103.73 76.1406 103.3C77.2786 101.934 79.1607 103.376 79.4146 104.733C79.509 105.394 79.4071 106.069 79.1216 106.673C78.8361 107.277 78.3796 107.784 77.8086 108.131C76.5102 108.901 74.8237 108.515 73.7073 107.594C71.3787 105.673 72.0127 101.827 74.5993 100.437C76.25 99.5502 78.3369 99.9395 79.9631 100.682C81.7936 101.519 83.3676 102.801 85.0604 103.869C88.7747 106.194 92.9762 107.629 97.3368 108.061C98.1002 108.139 98.0947 106.945 97.3368 106.868C94.9204 106.618 92.5481 106.047 90.2828 105.169C88.0415 104.261 85.9142 103.093 83.9443 101.69C81.9512 100.324 79.8688 98.9967 77.4022 98.771C76.4068 98.6547 75.3984 98.8041 74.4795 99.204C73.5605 99.6038 72.7639 100.24 72.1704 101.047C71.6426 101.77 71.2893 102.605 71.1382 103.487C70.987 104.369 71.0422 105.274 71.2994 106.132C71.6094 107.028 72.1513 107.826 72.87 108.445C73.5887 109.064 74.4586 109.481 75.391 109.654C76.2886 109.824 77.2167 109.709 78.046 109.326C78.8752 108.943 79.5642 108.31 80.0169 107.517C80.9248 105.947 80.8953 103.838 79.524 102.536C79.1309 102.136 78.6388 101.848 78.098 101.701C77.5572 101.554 76.987 101.553 76.4457 101.699C75.947 101.867 75.5082 102.177 75.1829 102.591C74.8577 103.005 74.6602 103.505 74.6145 104.029C74.4822 106.067 77.3754 107.087 78.4813 105.337C78.8929 104.686 77.8606 104.087 77.4508 104.735Z" fill="#09418D"/>
<path d="M179.509 104.735C179.784 105.17 180.451 105.107 180.825 104.835C181.345 104.457 181.177 103.73 180.819 103.3C179.681 101.934 177.799 103.376 177.545 104.733C177.451 105.394 177.552 106.069 177.838 106.673C178.123 107.277 178.58 107.784 179.151 108.131C180.449 108.901 182.136 108.515 183.252 107.594C185.581 105.673 184.947 101.827 182.36 100.437C180.71 99.5502 178.623 99.9395 176.996 100.682C175.166 101.519 173.592 102.801 171.899 103.869C168.185 106.194 163.983 107.629 159.623 108.061C158.859 108.139 158.865 106.945 159.623 106.868C162.039 106.618 164.411 106.047 166.677 105.169C168.918 104.261 171.045 103.093 173.015 101.69C175.008 100.324 177.091 98.9967 179.557 98.771C180.553 98.6547 181.561 98.8041 182.48 99.204C183.399 99.6038 184.196 100.24 184.789 101.047C185.317 101.77 185.67 102.605 185.821 103.487C185.973 104.369 185.917 105.274 185.66 106.132C185.35 107.028 184.808 107.826 184.09 108.445C183.371 109.064 182.501 109.481 181.569 109.654C180.671 109.824 179.743 109.709 178.914 109.326C178.084 108.943 177.395 108.31 176.943 107.517C176.035 105.947 176.064 103.838 177.436 102.536C177.829 102.136 178.321 101.848 178.862 101.701C179.402 101.554 179.973 101.553 180.514 101.699C181.013 101.867 181.451 102.177 181.777 102.591C182.102 103.005 182.299 103.505 182.345 104.029C182.477 106.067 179.584 107.087 178.478 105.337C178.067 104.686 179.099 104.087 179.509 104.735Z" fill="#09418D"/>
<path d="M35.9194 14.4658L34.3429 16.4435L28.7678 13.1456L30.3439 11.1678L35.9194 14.4658Z" fill="#E4E4E4"/>
<path d="M41.7365 22.9633L43.1287 25.0411L37.2718 27.9543L35.8796 25.8768L41.7365 22.9633Z" fill="#E4E4E4"/>
<path d="M47.7993 13.9302L50.5815 14.0288L50.3045 19.8503L47.522 19.7521L47.7993 13.9302Z" fill="#E4E4E4"/>
<path d="M232.838 136.198L231.261 138.176L225.686 134.878L227.263 132.9L232.838 136.198Z" fill="#E4E4E4"/>
<path d="M238.655 144.696L240.047 146.773L234.19 149.687L232.798 147.609L238.655 144.696Z" fill="#E4E4E4"/>
<path d="M244.718 135.663L247.5 135.761L247.223 141.583L244.44 141.485L244.718 135.663Z" fill="#E4E4E4"/>
</g>
<defs>
<clipPath id="clip0_102_833">
<rect width="247" height="190" fill="white" transform="translate(0.5)"/>
</clipPath>
</defs>
</svg>
