<svg width="44" height="45" viewBox="0 0 44 45" fill="none" xmlns="http://www.w3.org/2000/svg">
<rect y="0.25" width="44" height="44" rx="5" fill="#2279DF" fill-opacity="0.1"/>
<path d="M26.1248 29.327H15.1248V18.1253H21.5415V16.292H15.1248C14.1165 16.292 13.2915 17.117 13.2915 18.1253V29.1253C13.2915 30.1337 14.1165 30.9587 15.1248 30.9587H26.1248C27.1332 30.9587 27.9582 30.1337 27.9582 29.1253V22.7087H26.1248V29.327Z" fill="#2279DF"/>
<path d="M27.9582 13.542H26.1248V16.292H23.3748C23.384 16.3012 23.3748 18.1253 23.3748 18.1253H26.1248V20.8662C26.134 20.8753 27.9582 20.8662 27.9582 20.8662V18.1253H30.7082V16.292H27.9582V13.542Z" fill="#2279DF"/>
<path d="M24.2915 19.9587H16.9582V21.792H24.2915V19.9587Z" fill="#2279DF"/>
<path d="M16.9582 22.7087V24.542H24.2915V22.7087H16.9582Z" fill="#2279DF"/>
<path d="M24.2915 25.4587H16.9582V27.292H24.2915V25.4587Z" fill="#2279DF"/>
</svg>
