<svg width="20" height="21" viewBox="0 0 20 21" fill="none" xmlns="http://www.w3.org/2000/svg">
<g clip-path="url(#clip0_437_415)">
<path d="M8.41355 13.7416L9.59689 12.5583C7.32189 10.5333 5.83022 9.16662 5.83022 7.86662C5.83022 6.99162 6.49689 6.32495 7.37189 6.32495C8.29689 6.32495 8.65522 6.86662 9.60522 7.99162H10.3802C11.3136 6.89995 11.6552 6.32495 12.6136 6.32495C13.3386 6.32495 13.9052 6.77495 14.0886 7.42495C14.3802 7.39162 14.6552 7.37495 14.9219 7.37495C15.2219 7.37495 15.5052 7.39995 15.7802 7.44162C15.5802 5.84995 14.2719 4.65828 12.6219 4.65828C12.5219 4.65828 12.4302 4.68328 12.3302 4.69162C12.4302 4.41662 12.4969 4.13328 12.4969 3.82495C12.4969 2.44162 11.3802 1.32495 9.99689 1.32495C8.61355 1.32495 7.49689 2.44162 7.49689 3.82495C7.49689 4.13328 7.56355 4.41662 7.66355 4.69162C7.56355 4.68328 7.47189 4.65828 7.37189 4.65828C5.57189 4.65828 4.16355 6.06662 4.16355 7.86662C4.16355 9.88328 5.86355 11.4583 8.41355 13.7416Z" fill="#09418D"/>
<path d="M18.7469 14.025C18.4802 13.8749 18.1969 13.7833 17.9136 13.7333C17.9719 13.65 18.0386 13.5833 18.0886 13.5C18.9886 11.9416 18.4719 10.0166 16.9136 9.11662C15.1719 8.10828 12.9469 8.79162 9.70522 9.86662L10.1386 11.4833C13.0302 10.5333 14.9636 9.91662 16.0886 10.5666C16.8469 11.0083 17.0886 11.9083 16.6552 12.675C16.1886 13.475 15.5469 13.5083 14.0969 13.775L13.7052 14.45C14.1886 15.7999 14.5136 16.3916 14.0302 17.2166C13.5886 17.9749 12.6886 18.2166 11.9219 17.7833C11.8719 17.7583 11.8302 17.7083 11.7802 17.6749C11.5302 18.2333 11.2469 18.7083 10.9219 19.1166C10.9802 19.15 11.0302 19.1916 11.0886 19.2333C12.6469 20.1333 14.5719 19.6166 15.4719 18.0583C15.5219 17.9749 15.5469 17.8833 15.5886 17.7916C15.7719 18.0166 15.9886 18.2166 16.2552 18.3666C17.4469 19.0583 18.9802 18.65 19.6719 17.4499C20.3636 16.25 19.9386 14.7083 18.7469 14.025Z" fill="#09418D"/>
<path d="M10.2636 12.1666C9.64689 15.15 9.20522 17.1249 8.08022 17.775C7.32189 18.2166 6.41355 17.9749 5.97189 17.2083C5.50522 16.4083 5.80522 15.8249 6.29689 14.4416L5.91355 13.7666C4.49689 13.5083 3.83022 13.4916 3.35522 12.6666C2.91355 11.9083 3.15522 11 3.92189 10.5583C3.99689 10.5166 4.08022 10.4916 4.16355 10.4666C3.87189 9.99995 3.63022 9.49162 3.48022 8.92495C3.34689 8.98328 3.21355 9.04162 3.08022 9.11662C1.52189 10.0166 1.00522 11.9416 1.90522 13.4999C1.95522 13.5833 2.02189 13.65 2.08022 13.7333C1.79689 13.7833 1.51355 13.8749 1.24689 14.025C0.0552208 14.7166 -0.361446 16.2416 0.330221 17.4416C1.02189 18.6416 2.54689 19.0499 3.74689 18.3583C4.01355 18.2083 4.23022 18.0083 4.41355 17.7833C4.45522 17.875 4.48022 17.9666 4.53022 18.0499C5.43022 19.6083 7.35522 20.1249 8.91355 19.2249C10.6552 18.2166 11.1719 15.95 11.8719 12.6083L10.2636 12.1666Z" fill="#09418D"/>
</g>
<defs>
<clipPath id="clip0_437_415">
<rect width="20" height="20" fill="white" transform="translate(0 0.5)"/>
</clipPath>
</defs>
</svg>
