<svg width="20" height="21" viewBox="0 0 20 21" fill="none" xmlns="http://www.w3.org/2000/svg">
<g clip-path="url(#clip0_1436_662)">
<path d="M18.1701 19.6287V17.67C18.1701 16.631 17.7574 15.6345 17.0227 14.8999C16.288 14.1652 15.2916 13.7524 14.2526 13.7524H6.41753C5.37854 13.7524 4.3821 14.1652 3.64742 14.8999C2.91274 15.6345 2.5 16.631 2.5 17.67V19.6287" stroke="white" stroke-width="1.95877" stroke-linecap="round" stroke-linejoin="round"/>
<path d="M10.3351 9.83506C12.4987 9.83506 14.2526 8.08112 14.2526 5.91753C14.2526 3.75394 12.4987 2 10.3351 2C8.17148 2 6.41754 3.75394 6.41754 5.91753C6.41754 8.08112 8.17148 9.83506 10.3351 9.83506Z" stroke="white" stroke-width="1.95877" stroke-linecap="round" stroke-linejoin="round"/>
<mask id="path-3-outside-1_1436_662" maskUnits="userSpaceOnUse" x="-0.760254" y="8.73975" width="13" height="13" fill="black">
<rect fill="white" x="-0.760254" y="8.73975" width="13" height="13"/>
<path fill-rule="evenodd" clip-rule="evenodd" d="M1.73975 14.4073C1.73975 12.6579 3.1579 11.2397 4.90728 11.2397C6.65666 11.2397 8.07481 12.6579 8.07481 14.4073C8.07481 15.2545 7.74217 16.0241 7.20037 16.5925C7.18083 16.6084 7.16192 16.6255 7.1437 16.6437C7.12549 16.6619 7.10841 16.6808 7.09246 16.7004C6.52408 17.2422 5.75452 17.5748 4.90728 17.5748C3.1579 17.5748 1.73975 16.1567 1.73975 14.4073ZM7.63475 18.1954C6.86754 18.7488 5.92548 19.0748 4.90728 19.0748C2.32947 19.0748 0.239746 16.9851 0.239746 14.4073C0.239746 11.8295 2.32947 9.73975 4.90728 9.73975C7.48508 9.73975 9.57481 11.8295 9.57481 14.4073C9.57481 15.4255 9.24878 16.3675 8.69541 17.1348L10.3345 18.7739C10.6274 19.0668 10.6274 19.5416 10.3345 19.8345C10.0416 20.1274 9.56675 20.1274 9.27386 19.8345L7.63475 18.1954Z"/>
</mask>
<path fill-rule="evenodd" clip-rule="evenodd" d="M1.73975 14.4073C1.73975 12.6579 3.1579 11.2397 4.90728 11.2397C6.65666 11.2397 8.07481 12.6579 8.07481 14.4073C8.07481 15.2545 7.74217 16.0241 7.20037 16.5925C7.18083 16.6084 7.16192 16.6255 7.1437 16.6437C7.12549 16.6619 7.10841 16.6808 7.09246 16.7004C6.52408 17.2422 5.75452 17.5748 4.90728 17.5748C3.1579 17.5748 1.73975 16.1567 1.73975 14.4073ZM7.63475 18.1954C6.86754 18.7488 5.92548 19.0748 4.90728 19.0748C2.32947 19.0748 0.239746 16.9851 0.239746 14.4073C0.239746 11.8295 2.32947 9.73975 4.90728 9.73975C7.48508 9.73975 9.57481 11.8295 9.57481 14.4073C9.57481 15.4255 9.24878 16.3675 8.69541 17.1348L10.3345 18.7739C10.6274 19.0668 10.6274 19.5416 10.3345 19.8345C10.0416 20.1274 9.56675 20.1274 9.27386 19.8345L7.63475 18.1954Z" fill="white"/>
<path d="M7.20037 16.5925L7.64307 17.1347C7.66561 17.1163 7.68697 17.0965 7.70705 17.0754L7.20037 16.5925ZM7.09246 16.7004L7.57545 17.207C7.5965 17.187 7.61629 17.1656 7.63469 17.1431L7.09246 16.7004ZM7.63475 18.1954L8.12973 17.7004C7.8869 17.4576 7.50378 17.4268 7.22526 17.6277L7.63475 18.1954ZM8.69541 17.1348L8.12768 16.7253C7.92679 17.0038 7.95761 17.3869 8.20044 17.6297L8.69541 17.1348ZM10.3345 18.7739L9.83955 19.2688L9.83955 19.2688L10.3345 18.7739ZM10.3345 19.8345L9.83955 19.3395L9.83955 19.3395L10.3345 19.8345ZM9.27386 19.8345L9.76884 19.3395L9.76884 19.3395L9.27386 19.8345ZM4.90728 10.5397C2.7713 10.5397 1.03975 12.2713 1.03975 14.4073H2.43975C2.43975 13.0445 3.5445 11.9397 4.90728 11.9397V10.5397ZM8.77481 14.4073C8.77481 12.2713 7.04326 10.5397 4.90728 10.5397V11.9397C6.27006 11.9397 7.37481 13.0445 7.37481 14.4073H8.77481ZM7.70705 17.0754C8.36797 16.3821 8.77481 15.4415 8.77481 14.4073H7.37481C7.37481 15.0676 7.11637 15.6661 6.69368 16.1095L7.70705 17.0754ZM7.63868 17.1387C7.64024 17.1371 7.64171 17.1358 7.64307 17.1347L6.75766 16.0502C6.71995 16.081 6.68359 16.1139 6.64873 16.1487L7.63868 17.1387ZM7.63469 17.1431C7.6358 17.1417 7.63711 17.1402 7.63868 17.1387L6.64873 16.1487C6.61387 16.1836 6.58102 16.22 6.55024 16.2577L7.63469 17.1431ZM4.90728 18.2748C5.94145 18.2748 6.88209 17.868 7.57545 17.207L6.60948 16.1937C6.16606 16.6164 5.56759 16.8748 4.90728 16.8748V18.2748ZM1.03975 14.4073C1.03975 16.5433 2.7713 18.2748 4.90728 18.2748V16.8748C3.5445 16.8748 2.43975 15.7701 2.43975 14.4073H1.03975ZM7.22526 17.6277C6.5733 18.0979 5.77366 18.3748 4.90728 18.3748V19.7748C6.07731 19.7748 7.16179 19.3996 8.04424 18.7631L7.22526 17.6277ZM4.90728 18.3748C2.71607 18.3748 0.939746 16.5985 0.939746 14.4073H-0.460254C-0.460254 17.3717 1.94287 19.7748 4.90728 19.7748V18.3748ZM0.939746 14.4073C0.939746 12.2161 2.71607 10.4397 4.90728 10.4397V9.03975C1.94287 9.03975 -0.460254 11.4429 -0.460254 14.4073H0.939746ZM4.90728 10.4397C7.09848 10.4397 8.87481 12.2161 8.87481 14.4073H10.2748C10.2748 11.4429 7.87168 9.03975 4.90728 9.03975V10.4397ZM8.87481 14.4073C8.87481 15.2737 8.59792 16.0733 8.12768 16.7253L9.26314 17.5442C9.89963 16.6618 10.2748 15.5773 10.2748 14.4073H8.87481ZM8.20044 17.6297L9.83955 19.2688L10.8295 18.2789L9.19039 16.6398L8.20044 17.6297ZM9.83955 19.2688C9.85907 19.2884 9.85907 19.32 9.83955 19.3395L10.8295 20.3295C11.3958 19.7632 11.3958 18.8451 10.8295 18.2789L9.83955 19.2688ZM9.83955 19.3395C9.82002 19.3591 9.78836 19.3591 9.76884 19.3395L8.77889 20.3295C9.34515 20.8958 10.2632 20.8958 10.8295 20.3295L9.83955 19.3395ZM9.76884 19.3395L8.12973 17.7004L7.13978 18.6904L8.77889 20.3295L9.76884 19.3395Z" fill="#09418D" mask="url(#path-3-outside-1_1436_662)"/>
</g>
<defs>
<clipPath id="clip0_1436_662">
<rect width="20" height="20" fill="white" transform="translate(0 0.5)"/>
</clipPath>
</defs>
</svg>
