<svg width="20" height="21" viewBox="0 0 20 21" fill="none" xmlns="http://www.w3.org/2000/svg">
<g clip-path="url(#clip0_1436_3457)">
<path d="M10 13C11.3807 13 12.5 11.8807 12.5 10.5C12.5 9.11929 11.3807 8 10 8C8.61929 8 7.5 9.11929 7.5 10.5C7.5 11.8807 8.61929 13 10 13Z" stroke="#F8FAFB" stroke-width="1.66667" stroke-linecap="round" stroke-linejoin="round"/>
<path d="M16.1667 13.0002C16.0558 13.2515 16.0227 13.5303 16.0717 13.8007C16.1207 14.071 16.2496 14.3204 16.4417 14.5168L16.4917 14.5668C16.6467 14.7216 16.7696 14.9054 16.8535 15.1078C16.9373 15.3101 16.9805 15.527 16.9805 15.746C16.9805 15.965 16.9373 16.1819 16.8535 16.3842C16.7696 16.5866 16.6467 16.7704 16.4917 16.9252C16.3369 17.0801 16.1531 17.2031 15.9508 17.2869C15.7484 17.3708 15.5316 17.414 15.3125 17.414C15.0935 17.414 14.8766 17.3708 14.6743 17.2869C14.472 17.2031 14.2882 17.0801 14.1334 16.9252L14.0834 16.8752C13.887 16.683 13.6375 16.5542 13.3672 16.5052C13.0969 16.4561 12.8181 16.4892 12.5667 16.6002C12.3202 16.7058 12.11 16.8812 11.962 17.1048C11.8139 17.3284 11.7344 17.5903 11.7334 17.8585V18.0002C11.7334 18.4422 11.5578 18.8661 11.2452 19.1787C10.9327 19.4912 10.5087 19.6668 10.0667 19.6668C9.62468 19.6668 9.20076 19.4912 8.8882 19.1787C8.57564 18.8661 8.40004 18.4422 8.40004 18.0002V17.9252C8.39359 17.6493 8.30431 17.3818 8.1438 17.1574C7.98329 16.933 7.75899 16.7621 7.50004 16.6668C7.24869 16.5559 6.96988 16.5228 6.69955 16.5718C6.42922 16.6208 6.17977 16.7497 5.98337 16.9418L5.93337 16.9918C5.77859 17.1468 5.59477 17.2697 5.39244 17.3536C5.19011 17.4375 4.97323 17.4806 4.75421 17.4806C4.53518 17.4806 4.3183 17.4375 4.11597 17.3536C3.91364 17.2697 3.72983 17.1468 3.57504 16.9918C3.42008 16.837 3.29715 16.6532 3.21327 16.4509C3.1294 16.2486 3.08623 16.0317 3.08623 15.8127C3.08623 15.5936 3.1294 15.3768 3.21327 15.1744C3.29715 14.9721 3.42008 14.7883 3.57504 14.6335L3.62504 14.5835C3.81715 14.3871 3.94603 14.1376 3.99504 13.8673C4.04406 13.597 4.01097 13.3182 3.90004 13.0668C3.7944 12.8204 3.619 12.6101 3.39543 12.4621C3.17185 12.314 2.90986 12.2346 2.64171 12.2335H2.50004C2.05801 12.2335 1.63409 12.0579 1.32153 11.7453C1.00897 11.4328 0.833374 11.0089 0.833374 10.5668C0.833374 10.1248 1.00897 9.70088 1.32153 9.38832C1.63409 9.07576 2.05801 8.90016 2.50004 8.90016H2.57504C2.85087 8.89371 3.11838 8.80443 3.34279 8.64392C3.5672 8.48342 3.73814 8.25911 3.83337 8.00016C3.9443 7.74882 3.97739 7.47 3.92838 7.19967C3.87936 6.92934 3.75049 6.6799 3.55837 6.4835L3.50837 6.4335C3.35341 6.27871 3.23048 6.09489 3.14661 5.89256C3.06273 5.69023 3.01956 5.47336 3.01956 5.25433C3.01956 5.0353 3.06273 4.81843 3.14661 4.6161C3.23048 4.41377 3.35341 4.22995 3.50837 4.07516C3.66316 3.9202 3.84698 3.79727 4.04931 3.7134C4.25164 3.62952 4.46852 3.58635 4.68754 3.58635C4.90657 3.58635 5.12344 3.62952 5.32577 3.7134C5.5281 3.79727 5.71192 3.9202 5.86671 4.07516L5.91671 4.12516C6.11311 4.31728 6.36255 4.44615 6.63288 4.49517C6.90321 4.54418 7.18203 4.51109 7.43337 4.40016H7.50004C7.74652 4.29453 7.95672 4.11913 8.10478 3.89555C8.25285 3.67198 8.3323 3.40999 8.33337 3.14183V3.00016C8.33337 2.55814 8.50897 2.13421 8.82153 1.82165C9.13409 1.50909 9.55801 1.3335 10 1.3335C10.4421 1.3335 10.866 1.50909 11.1786 1.82165C11.4911 2.13421 11.6667 2.55814 11.6667 3.00016V3.07516C11.6678 3.34332 11.7472 3.60531 11.8953 3.82888C12.0434 4.05246 12.2536 4.22786 12.5 4.3335C12.7514 4.44443 13.0302 4.47752 13.3005 4.4285C13.5709 4.37948 13.8203 4.25061 14.0167 4.0585L14.0667 4.0085C14.2215 3.85354 14.4053 3.7306 14.6076 3.64673C14.81 3.56286 15.0268 3.51969 15.2459 3.51969C15.4649 3.51969 15.6818 3.56286 15.8841 3.64673C16.0864 3.7306 16.2703 3.85354 16.425 4.0085C16.58 4.16328 16.7029 4.3471 16.7868 4.54943C16.8707 4.75176 16.9139 4.96864 16.9139 5.18766C16.9139 5.40669 16.8707 5.62357 16.7868 5.8259C16.7029 6.02823 16.58 6.21204 16.425 6.36683L16.375 6.41683C16.1829 6.61323 16.0541 6.86268 16.005 7.13301C15.956 7.40333 15.9891 7.68215 16.1 7.9335V8.00016C16.2057 8.24664 16.3811 8.45684 16.6047 8.60491C16.8282 8.75297 17.0902 8.83243 17.3584 8.8335H17.5C17.9421 8.8335 18.366 9.00909 18.6786 9.32165C18.9911 9.63421 19.1667 10.0581 19.1667 10.5002C19.1667 10.9422 18.9911 11.3661 18.6786 11.6787C18.366 11.9912 17.9421 12.1668 17.5 12.1668H17.425C17.1569 12.1679 16.8949 12.2474 16.6713 12.3954C16.4477 12.5435 16.2723 12.7537 16.1667 13.0002Z" stroke="#F8FAFB" stroke-width="1.66667" stroke-linecap="round" stroke-linejoin="round"/>
</g>
<defs>
<clipPath id="clip0_1436_3457">
<rect width="20" height="20" fill="white" transform="translate(0 0.5)"/>
</clipPath>
</defs>
</svg>
