<svg width="20" height="21" viewBox="0 0 20 21" fill="none" xmlns="http://www.w3.org/2000/svg">
<g clip-path="url(#clip0_1436_337)">
<path d="M10 13C11.3807 13 12.5 11.8807 12.5 10.5C12.5 9.11929 11.3807 8 10 8C8.61929 8 7.5 9.11929 7.5 10.5C7.5 11.8807 8.61929 13 10 13Z" stroke="#09418D" stroke-width="1.66667" stroke-linecap="round" stroke-linejoin="round"/>
<path d="M16.1666 13.0002C16.0557 13.2515 16.0226 13.5303 16.0716 13.8007C16.1206 14.071 16.2495 14.3204 16.4416 14.5168L16.4916 14.5668C16.6465 14.7216 16.7695 14.9054 16.8534 15.1078C16.9372 15.3101 16.9804 15.527 16.9804 15.746C16.9804 15.965 16.9372 16.1819 16.8534 16.3842C16.7695 16.5866 16.6465 16.7704 16.4916 16.9252C16.3368 17.0801 16.153 17.2031 15.9507 17.2869C15.7483 17.3708 15.5314 17.414 15.3124 17.414C15.0934 17.414 14.8765 17.3708 14.6742 17.2869C14.4719 17.2031 14.288 17.0801 14.1333 16.9252L14.0833 16.8752C13.8869 16.683 13.6374 16.5542 13.3671 16.5052C13.0967 16.4561 12.8179 16.4892 12.5666 16.6002C12.3201 16.7058 12.1099 16.8812 11.9618 17.1048C11.8138 17.3284 11.7343 17.5903 11.7333 17.8585V18.0002C11.7333 18.4422 11.5577 18.8661 11.2451 19.1787C10.9325 19.4912 10.5086 19.6668 10.0666 19.6668C9.62456 19.6668 9.20064 19.4912 8.88807 19.1787C8.57551 18.8661 8.39992 18.4422 8.39992 18.0002V17.9252C8.39347 17.6493 8.30418 17.3818 8.14368 17.1574C7.98317 16.933 7.75886 16.7621 7.49992 16.6668C7.24857 16.5559 6.96976 16.5228 6.69943 16.5718C6.4291 16.6208 6.17965 16.7497 5.98325 16.9418L5.93325 16.9918C5.77846 17.1468 5.59465 17.2697 5.39232 17.3536C5.18999 17.4375 4.97311 17.4806 4.75409 17.4806C4.53506 17.4806 4.31818 17.4375 4.11585 17.3536C3.91352 17.2697 3.72971 17.1468 3.57492 16.9918C3.41996 16.837 3.29703 16.6532 3.21315 16.4509C3.12928 16.2486 3.08611 16.0317 3.08611 15.8127C3.08611 15.5936 3.12928 15.3768 3.21315 15.1744C3.29703 14.9721 3.41996 14.7883 3.57492 14.6335L3.62492 14.5835C3.81703 14.3871 3.94591 14.1376 3.99492 13.8673C4.04394 13.597 4.01085 13.3182 3.89992 13.0668C3.79428 12.8204 3.61888 12.6101 3.39531 12.4621C3.17173 12.314 2.90974 12.2346 2.64159 12.2335H2.49992C2.05789 12.2335 1.63397 12.0579 1.32141 11.7453C1.00885 11.4328 0.833252 11.0089 0.833252 10.5668C0.833252 10.1248 1.00885 9.70088 1.32141 9.38832C1.63397 9.07576 2.05789 8.90016 2.49992 8.90016H2.57492C2.85075 8.89371 3.11826 8.80443 3.34267 8.64392C3.56708 8.48342 3.73802 8.25911 3.83325 8.00016C3.94418 7.74882 3.97727 7.47 3.92826 7.19967C3.87924 6.92934 3.75037 6.6799 3.55825 6.4835L3.50825 6.4335C3.35329 6.27871 3.23036 6.09489 3.14649 5.89256C3.06261 5.69023 3.01944 5.47336 3.01944 5.25433C3.01944 5.0353 3.06261 4.81843 3.14649 4.6161C3.23036 4.41377 3.35329 4.22995 3.50825 4.07516C3.66304 3.9202 3.84685 3.79727 4.04918 3.7134C4.25152 3.62952 4.46839 3.58635 4.68742 3.58635C4.90644 3.58635 5.12332 3.62952 5.32565 3.7134C5.52798 3.79727 5.7118 3.9202 5.86659 4.07516L5.91659 4.12516C6.11298 4.31728 6.36243 4.44615 6.63276 4.49517C6.90309 4.54418 7.18191 4.51109 7.43325 4.40016H7.49992C7.74639 4.29453 7.9566 4.11913 8.10466 3.89555C8.25273 3.67198 8.33218 3.40999 8.33325 3.14183V3.00016C8.33325 2.55814 8.50885 2.13421 8.82141 1.82165C9.13397 1.50909 9.55789 1.3335 9.99992 1.3335C10.4419 1.3335 10.8659 1.50909 11.1784 1.82165C11.491 2.13421 11.6666 2.55814 11.6666 3.00016V3.07516C11.6677 3.34332 11.7471 3.60531 11.8952 3.82888C12.0432 4.05246 12.2534 4.22786 12.4999 4.3335C12.7513 4.44443 13.0301 4.47752 13.3004 4.4285C13.5707 4.37948 13.8202 4.25061 14.0166 4.0585L14.0666 4.0085C14.2214 3.85354 14.4052 3.7306 14.6075 3.64673C14.8098 3.56286 15.0267 3.51969 15.2458 3.51969C15.4648 3.51969 15.6817 3.56286 15.884 3.64673C16.0863 3.7306 16.2701 3.85354 16.4249 4.0085C16.5799 4.16328 16.7028 4.3471 16.7867 4.54943C16.8706 4.75176 16.9137 4.96864 16.9137 5.18766C16.9137 5.40669 16.8706 5.62357 16.7867 5.8259C16.7028 6.02823 16.5799 6.21204 16.4249 6.36683L16.3749 6.41683C16.1828 6.61323 16.0539 6.86268 16.0049 7.13301C15.9559 7.40333 15.989 7.68215 16.0999 7.9335V8.00016C16.2056 8.24664 16.381 8.45684 16.6045 8.60491C16.8281 8.75297 17.0901 8.83243 17.3583 8.8335H17.4999C17.9419 8.8335 18.3659 9.00909 18.6784 9.32165C18.991 9.63421 19.1666 10.0581 19.1666 10.5002C19.1666 10.9422 18.991 11.3661 18.6784 11.6787C18.3659 11.9912 17.9419 12.1668 17.4999 12.1668H17.4249C17.1568 12.1679 16.8948 12.2474 16.6712 12.3954C16.4476 12.5435 16.2722 12.7537 16.1666 13.0002Z" stroke="#09418D" stroke-width="1.66667" stroke-linecap="round" stroke-linejoin="round"/>
</g>
<defs>
<clipPath id="clip0_1436_337">
<rect width="20" height="20" fill="white" transform="translate(0 0.5)"/>
</clipPath>
</defs>
</svg>
