<svg width="20" height="21" viewBox="0 0 20 21" fill="none" xmlns="http://www.w3.org/2000/svg">
<path d="M14.1666 18V16.3333C14.1666 15.4493 13.8154 14.6014 13.1903 13.9763C12.5652 13.3512 11.7173 13 10.8333 13H4.16659C3.28253 13 2.43468 13.3512 1.80956 13.9763C1.18444 14.6014 0.833252 15.4493 0.833252 16.3333V18" stroke="#09418D" stroke-width="1.66667" stroke-linecap="round" stroke-linejoin="round"/>
<path d="M7.50008 9.66667C9.34103 9.66667 10.8334 8.17428 10.8334 6.33333C10.8334 4.49238 9.34103 3 7.50008 3C5.65913 3 4.16675 4.49238 4.16675 6.33333C4.16675 8.17428 5.65913 9.66667 7.50008 9.66667Z" stroke="#09418D" stroke-width="1.66667" stroke-linecap="round" stroke-linejoin="round"/>
<path d="M19.1667 18.0001V16.3334C19.1662 15.5948 18.9204 14.8774 18.4679 14.2937C18.0154 13.7099 17.3819 13.293 16.6667 13.1084" stroke="#09418D" stroke-width="1.66667" stroke-linecap="round" stroke-linejoin="round"/>
<path d="M13.3333 3.1084C14.0503 3.29198 14.6858 3.70898 15.1396 4.29366C15.5935 4.87833 15.8398 5.59742 15.8398 6.33757C15.8398 7.07771 15.5935 7.7968 15.1396 8.38147C14.6858 8.96615 14.0503 9.38315 13.3333 9.56673" stroke="#09418D" stroke-width="1.66667" stroke-linecap="round" stroke-linejoin="round"/>
</svg>
