<svg width="12" height="14" viewBox="0 0 12 14" fill="none" xmlns="http://www.w3.org/2000/svg">
<path d="M10.6667 1.57454H10V0.241211H8.66667V1.57454H3.33333V0.241211H2V1.57454H1.33333C0.593333 1.57454 0.00666666 2.17454 0.00666666 2.90788L0 12.2412C0 12.9745 0.593333 13.5745 1.33333 13.5745H10.6667C11.4 13.5745 12 12.9745 12 12.2412V2.90788C12 2.17454 11.4 1.57454 10.6667 1.57454ZM10.6667 12.2412H1.33333V5.57454H10.6667V12.2412ZM10.6667 4.24121H1.33333V2.90788H10.6667V4.24121ZM4 8.24121H2.66667V6.90788H4V8.24121ZM6.66667 8.24121H5.33333V6.90788H6.66667V8.24121ZM9.33333 8.24121H8V6.90788H9.33333V8.24121ZM4 10.9079H2.66667V9.57454H4V10.9079ZM6.66667 10.9079H5.33333V9.57454H6.66667V10.9079ZM9.33333 10.9079H8V9.57454H9.33333V10.9079Z" fill="#25A8E0"/>
</svg>
