<svg width="20" height="20" viewBox="0 0 20 20" fill="none" xmlns="http://www.w3.org/2000/svg">
<path d="M16.6667 7.49998V4.99998H15V7.49998H12.5V9.16665H15V11.6666H16.6667V9.16665H19.1667V7.49998H16.6667ZM7.50004 9.99998C9.34171 9.99998 10.8334 8.50831 10.8334 6.66665C10.8334 4.82498 9.34171 3.33331 7.50004 3.33331C5.65837 3.33331 4.16671 4.82498 4.16671 6.66665C4.16671 8.50831 5.65837 9.99998 7.50004 9.99998ZM7.50004 4.99998C8.41671 4.99998 9.16671 5.74998 9.16671 6.66665C9.16671 7.58331 8.41671 8.33331 7.50004 8.33331C6.58337 8.33331 5.83337 7.58331 5.83337 6.66665C5.83337 5.74998 6.58337 4.99998 7.50004 4.99998ZM12.825 12.1333C11.425 11.4166 9.60837 10.8333 7.50004 10.8333C5.39171 10.8333 3.57504 11.4166 2.17504 12.1333C1.34171 12.5583 0.833374 13.4166 0.833374 14.35V16.6666H14.1667V14.35C14.1667 13.4166 13.6584 12.5583 12.825 12.1333ZM12.5 15H2.50004V14.35C2.50004 14.0333 2.66671 13.75 2.93337 13.6166C3.92504 13.1083 5.52504 12.5 7.50004 12.5C9.47504 12.5 11.075 13.1083 12.0667 13.6166C12.3334 13.75 12.5 14.0333 12.5 14.35V15Z" fill="#00C680"/>
</svg>
