<svg width="15" height="18" viewBox="0 0 15 18" fill="none" xmlns="http://www.w3.org/2000/svg">
              <path fill-rule="evenodd" clip-rule="evenodd" d="M13.5019 0.427824C13.8353 0.237354 14.25 0.478034 14.25 0.861954V17.1388C14.25 17.5227 13.8353 17.7634 13.5019 17.5729L11.2461 16.2839C10.9387 16.1082 10.5613 16.1082 10.2539 16.2839L8.0438 17.5468C7.5519 17.8279 6.9481 17.8279 6.4562 17.5468L4.24614 16.2839C3.93871 16.1082 3.56129 16.1082 3.25386 16.2839L0.99807 17.5729C0.66474 17.7634 0.25 17.5227 0.25 17.1388V0.861954C0.25 0.478034 0.66474 0.237354 0.99807 0.427824L3.25386 1.71685C3.56129 1.89252 3.93871 1.89252 4.24614 1.71685L6.4562 0.453974C6.9481 0.172894 7.5519 0.172894 8.0438 0.453974L10.2539 1.71685C10.5613 1.89252 10.9387 1.89252 11.2461 1.71685L13.5019 0.427824ZM4.75 6.00036C4.47386 6.00036 4.25 6.22421 4.25 6.50036C4.25 6.7765 4.47386 7.00036 4.75 7.00036H9.75C10.0261 7.00036 10.25 6.7765 10.25 6.50036C10.25 6.22421 10.0261 6.00036 9.75 6.00036H4.75ZM4.75 8.50036C4.47386 8.50036 4.25 8.72426 4.25 9.00036C4.25 9.27646 4.47386 9.50036 4.75 9.50036H9.75C10.0261 9.50036 10.25 9.27646 10.25 9.00036C10.25 8.72426 10.0261 8.50036 9.75 8.50036H4.75ZM4.75 11.0004C4.47386 11.0004 4.25 11.2243 4.25 11.5004C4.25 11.7765 4.47386 12.0004 4.75 12.0004H9.75C10.0261 12.0004 10.25 11.7765 10.25 11.5004C10.25 11.2243 10.0261 11.0004 9.75 11.0004H4.75Z" fill="#DC3835" />
            </svg>