<svg width="42" height="42" viewBox="0 0 42 42" fill="none" xmlns="http://www.w3.org/2000/svg">
<circle cx="21" cy="21" r="21" fill="white" fill-opacity="0.1"/>
<path d="M27.6663 28.5V26.8333C27.6663 25.9493 27.3152 25.1014 26.69 24.4763C26.0649 23.8512 25.2171 23.5 24.333 23.5H17.6663C16.7823 23.5 15.9344 23.8512 15.3093 24.4763C14.6842 25.1014 14.333 25.9493 14.333 26.8333V28.5" stroke="white" stroke-width="1.66667" stroke-linecap="round" stroke-linejoin="round"/>
<path d="M21.0003 20.1667C22.8413 20.1667 24.3337 18.6743 24.3337 16.8333C24.3337 14.9924 22.8413 13.5 21.0003 13.5C19.1594 13.5 17.667 14.9924 17.667 16.8333C17.667 18.6743 19.1594 20.1667 21.0003 20.1667Z" stroke="white" stroke-width="1.66667" stroke-linecap="round" stroke-linejoin="round"/>
</svg>
