<svg width="14" height="18" viewBox="0 0 14 18" fill="none" xmlns="http://www.w3.org/2000/svg">
              <path fillRule="evenodd" clipRule="evenodd" d="M13.2519 0.427824C13.5853 0.237354 14 0.478034 14 0.861954V17.1388C14 17.5227 13.5853 17.7634 13.2519 17.5729L10.9961 16.2839C10.6887 16.1082 10.3113 16.1082 10.0039 16.2839L7.7938 17.5468C7.3019 17.8279 6.6981 17.8279 6.2062 17.5468L3.99614 16.2839C3.68871 16.1082 3.31129 16.1082 3.00386 16.2839L0.74807 17.5729C0.41474 17.7634 0 17.5227 0 17.1388V0.861954C0 0.478034 0.41474 0.237354 0.74807 0.427824L3.00386 1.71685C3.31129 1.89252 3.68871 1.89252 3.99614 1.71685L6.2062 0.453974C6.6981 0.172894 7.3019 0.172894 7.7938 0.453974L10.0039 1.71685C10.3113 1.89252 10.6887 1.89252 10.9961 1.71685L13.2519 0.427824ZM4.5 6.00036C4.22386 6.00036 4 6.22421 4 6.50036C4 6.7765 4.22386 7.00036 4.5 7.00036H9.5C9.7761 7.00036 10 6.7765 10 6.50036C10 6.22421 9.7761 6.00036 9.5 6.00036H4.5ZM4.5 8.50036C4.22386 8.50036 4 8.72426 4 9.00036C4 9.27646 4.22386 9.50036 4.5 9.50036H9.5C9.7761 9.50036 10 9.27646 10 9.00036C10 8.72426 9.7761 8.50036 9.5 8.50036H4.5ZM4.5 11.0004C4.22386 11.0004 4 11.2243 4 11.5004C4 11.7765 4.22386 12.0004 4.5 12.0004H9.5C9.7761 12.0004 10 11.7765 10 11.5004C10 11.2243 9.7761 11.0004 9.5 11.0004H4.5Z" fill="#00C680" />
            </svg>