<svg width="42" height="42" viewBox="0 0 42 42" fill="none" xmlns="http://www.w3.org/2000/svg">
<circle cx="21" cy="21" r="21" fill="white" fill-opacity="0.1"/>
<g clip-path="url(#clip0_430_3748)">
<path d="M21 11C18.8783 11 16.8434 11.8429 15.3431 13.3431C13.8429 14.8434 13 16.8783 13 19V20.9C12.6983 21.1628 12.4539 21.4849 12.2819 21.8461C12.1099 22.2074 12.0139 22.6001 12 23C12.0228 23.5798 12.2202 24.1393 12.5664 24.605C12.9125 25.0708 13.3913 25.421 13.94 25.61C15.24 28.72 17.85 31 21 31H24V29H21C18.74 29 16.69 27.3 15.66 24.61L15.45 24.06L14.86 24C14.6197 23.966 14.4 23.8459 14.2418 23.6619C14.0835 23.4779 13.9976 23.2427 14 23C14.0011 22.8255 14.0478 22.6543 14.1355 22.5034C14.2232 22.3525 14.3489 22.2273 14.5 22.14L15 21.85V20C15 19.7348 15.1054 19.4804 15.2929 19.2929C15.4804 19.1054 15.7348 19 16 19H26C26.2652 19 26.5196 19.1054 26.7071 19.2929C26.8946 19.4804 27 19.7348 27 20V25H22.91C22.8192 24.7454 22.6613 24.5201 22.4531 24.3479C22.2448 24.1756 21.9938 24.0629 21.7267 24.0215C21.4596 23.9801 21.1863 24.0117 20.9357 24.1129C20.6851 24.214 20.4664 24.381 20.3029 24.5962C20.1394 24.8114 20.037 25.0668 20.0066 25.3353C19.9763 25.6039 20.019 25.8757 20.1304 26.1219C20.2418 26.3682 20.4176 26.5798 20.6393 26.7343C20.8611 26.8889 21.1204 26.9807 21.39 27H29C29.5304 27 30.0391 26.7893 30.4142 26.4142C30.7893 26.0391 31 25.5304 31 25V23C31 22.4696 30.7893 21.9609 30.4142 21.5858C30.0391 21.2107 29.5304 21 29 21V19C29 16.8783 28.1571 14.8434 26.6569 13.3431C25.1566 11.8429 23.1217 11 21 11Z" fill="white"/>
</g>
<defs>
<clipPath id="clip0_430_3748">
<rect width="24" height="24" fill="white" transform="translate(9 9)"/>
</clipPath>
</defs>
</svg>
