<svg width="14" height="14" viewBox="0 0 14 14" fill="none" xmlns="http://www.w3.org/2000/svg">
<path d="M0.0690918 0.42511V6.40219H2.46002V13.5748H5.38212L5.52252 13.1752C5.69118 12.6954 6.14178 12.3732 6.64403 12.3732C7.14594 12.3732 7.5967 12.6954 7.76537 13.1752L7.90576 13.5748H10.828V6.40235H13.219V0.42511H0.0690918ZM9.63265 12.3794H8.71004C8.28951 11.6466 7.50501 11.1778 6.64403 11.1778C5.78304 11.1778 4.99821 11.6466 4.57768 12.3794H3.6554V4.01142H9.63248V12.3794H9.63265ZM12.0234 5.20697H10.828V4.01159H11.4257V2.81604H1.86233V4.01142H2.46002V5.20681H1.26464V1.62066H12.0236V5.20697H12.0234Z" fill="#09418D"/>
</svg>
