<svg width="25" height="24" viewBox="0 0 25 24" fill="none" xmlns="http://www.w3.org/2000/svg">
              <path opacity="0.5" d="M2.5 11.25C2.5 8.35051 4.51472 6 7 6C9.48528 6 11.5 8.35051 11.5 11.25V20H4.73256C3.49955 20 2.5 18.8339 2.5 17.3953V11.25Z" fill="#25A8E0" />
              <path opacity="0.8" d="M11.5 11.25V20H14.5H15.5H20.2931C21.5119 20 22.5 18.8473 22.5 17.4253V11.25C22.5 8.35051 20.4853 6 18 6H7C9.48528 6 11.5 8.35051 11.5 11.25Z" fill="#25A8E0" />
              <path d="M10 20V22C10 22.4142 10.3358 22.75 10.75 22.75C11.1642 22.75 11.5 22.4142 11.5 22V20H10Z" fill="#25A8E0" />
              <path d="M15.5 20H14V22C14 22.4142 14.3358 22.75 14.75 22.75C15.1642 22.75 15.5 22.4142 15.5 22V20Z" fill="#25A8E0" />
              <path fill-rule="evenodd" clip-rule="evenodd" d="M4.75 16C4.75 15.5858 5.08579 15.25 5.5 15.25H8.5C8.91421 15.25 9.25 15.5858 9.25 16C9.25 16.4142 8.91421 16.75 8.5 16.75H5.5C5.08579 16.75 4.75 16.4142 4.75 16Z" fill="#25A8E0" />
              <path fill-rule="evenodd" clip-rule="evenodd" d="M17.8846 6.58471L18.1407 6.53344C18.5564 6.45022 18.9863 6.48995 19.3814 6.64813C20.0717 6.92453 20.8266 6.97616 21.5458 6.79618L21.6073 6.7808C22.1309 6.64975 22.5 6.16299 22.5 5.60336V3.47284C22.5 2.73503 21.8358 2.19145 21.1454 2.36421C20.749 2.46342 20.3329 2.43496 19.9523 2.28261L19.8793 2.25335C19.2422 1.99828 18.5491 1.93421 17.8787 2.06841L17.43 2.15824C16.8901 2.26632 16.5 2.75722 16.5 3.32846V10.2807C16.5 10.678 16.81 11 17.1923 11C17.5747 11 17.8846 10.678 17.8846 10.2807V6.58471Z" fill="#25A8E0" />
            </svg>