<svg width="20" height="20" viewBox="0 0 20 20" fill="none" xmlns="http://www.w3.org/2000/svg">
              <path d="M9.75 0C7.62827 0 5.59344 0.842855 4.09315 2.34315C2.59285 3.84344 1.75 5.87827 1.75 8V9.9C1.44833 10.1628 1.2039 10.4849 1.03188 10.8461C0.859859 11.2074 0.763914 11.6001 0.75 12C0.772777 12.5798 0.970188 13.1393 1.31636 13.605C1.66254 14.0708 2.14133 14.421 2.69 14.61C3.99 17.72 6.6 20 9.75 20H12.75V18H9.75C7.49 18 5.44 16.3 4.41 13.61L4.2 13.06L3.61 13C3.36972 12.966 3.14999 12.8459 2.99177 12.6619C2.83354 12.4779 2.74761 12.2427 2.75 12C2.75105 11.8255 2.79776 11.6543 2.88547 11.5034C2.97319 11.3525 3.09886 11.2273 3.25 11.14L3.75 10.85V9C3.75 8.73478 3.85536 8.48043 4.04289 8.29289C4.23043 8.10536 4.48478 8 4.75 8H14.75C15.0152 8 15.2696 8.10536 15.4571 8.29289C15.6446 8.48043 15.75 8.73478 15.75 9V14H11.66C11.5692 13.7454 11.4113 13.5201 11.2031 13.3479C10.9948 13.1756 10.7438 13.0629 10.4767 13.0215C10.2096 12.9801 9.93634 13.0117 9.68571 13.1129C9.43508 13.214 9.21644 13.381 9.0529 13.5962C8.88937 13.8114 8.787 14.0668 8.75664 14.3353C8.72628 14.6039 8.76904 14.8757 8.88041 15.1219C8.99178 15.3682 9.16762 15.5798 9.38934 15.7343C9.61106 15.8889 9.87042 15.9807 10.14 16H17.75C18.2804 16 18.7891 15.7893 19.1642 15.4142C19.5393 15.0391 19.75 14.5304 19.75 14V12C19.75 11.4696 19.5393 10.9609 19.1642 10.5858C18.7891 10.2107 18.2804 10 17.75 10V8C17.75 5.87827 16.9071 3.84344 15.4069 2.34315C13.9066 0.842855 11.8717 0 9.75 0Z" fill="#FEA501" />
            </svg>